<?xml version="1.0" encoding="UTF-8"?>
<svg xmlns="http://www.w3.org/2000/svg" xmlns:xlink="http://www.w3.org/1999/xlink" width="349.97pt" height="212.828pt" viewBox="0 0 349.97 212.828">
<defs>
<g>
<g id="glyph-0-0">
<path d="M 3.328125 -3.015625 C 3.390625 -3.265625 3.625 -4.1875 4.3125 -4.1875 C 4.359375 -4.1875 4.609375 -4.1875 4.8125 -4.0625 C 4.53125 -4 4.34375 -3.765625 4.34375 -3.515625 C 4.34375 -3.359375 4.453125 -3.171875 4.71875 -3.171875 C 4.9375 -3.171875 5.25 -3.34375 5.25 -3.75 C 5.25 -4.265625 4.671875 -4.40625 4.328125 -4.40625 C 3.75 -4.40625 3.40625 -3.875 3.28125 -3.65625 C 3.03125 -4.3125 2.5 -4.40625 2.203125 -4.40625 C 1.171875 -4.40625 0.59375 -3.125 0.59375 -2.875 C 0.59375 -2.765625 0.703125 -2.765625 0.71875 -2.765625 C 0.796875 -2.765625 0.828125 -2.796875 0.84375 -2.875 C 1.1875 -3.9375 1.84375 -4.1875 2.1875 -4.1875 C 2.375 -4.1875 2.71875 -4.09375 2.71875 -3.515625 C 2.71875 -3.203125 2.546875 -2.546875 2.1875 -1.140625 C 2.03125 -0.53125 1.671875 -0.109375 1.234375 -0.109375 C 1.171875 -0.109375 0.953125 -0.109375 0.734375 -0.234375 C 0.984375 -0.296875 1.203125 -0.5 1.203125 -0.78125 C 1.203125 -1.046875 0.984375 -1.125 0.84375 -1.125 C 0.53125 -1.125 0.296875 -0.875 0.296875 -0.546875 C 0.296875 -0.09375 0.78125 0.109375 1.21875 0.109375 C 1.890625 0.109375 2.25 -0.59375 2.265625 -0.640625 C 2.390625 -0.28125 2.75 0.109375 3.34375 0.109375 C 4.375 0.109375 4.9375 -1.171875 4.9375 -1.421875 C 4.9375 -1.53125 4.859375 -1.53125 4.828125 -1.53125 C 4.734375 -1.53125 4.71875 -1.484375 4.6875 -1.421875 C 4.359375 -0.34375 3.6875 -0.109375 3.375 -0.109375 C 2.984375 -0.109375 2.828125 -0.421875 2.828125 -0.765625 C 2.828125 -0.984375 2.875 -1.203125 2.984375 -1.640625 Z M 3.328125 -3.015625 "/>
</g>
<g id="glyph-0-1">
<path d="M 5.390625 -6.078125 C 5.46875 -6.40625 5.5 -6.5 6.046875 -6.5 C 6.203125 -6.5 6.3125 -6.5 6.3125 -6.6875 C 6.3125 -6.78125 6.25 -6.8125 6.171875 -6.8125 C 5.921875 -6.8125 5.3125 -6.78125 5.0625 -6.78125 C 4.734375 -6.78125 3.921875 -6.8125 3.59375 -6.8125 C 3.515625 -6.8125 3.390625 -6.8125 3.390625 -6.609375 C 3.390625 -6.5 3.46875 -6.5 3.734375 -6.5 C 3.953125 -6.5 4.0625 -6.5 4.3125 -6.484375 C 4.546875 -6.453125 4.609375 -6.421875 4.609375 -6.28125 C 4.609375 -6.21875 4.59375 -6.15625 4.578125 -6.078125 L 3.421875 -1.5 C 3.1875 -0.53125 2.515625 0 2 0 C 1.734375 0 1.203125 -0.09375 1.046875 -0.625 C 1.078125 -0.609375 1.140625 -0.609375 1.171875 -0.609375 C 1.5625 -0.609375 1.8125 -0.953125 1.8125 -1.25 C 1.8125 -1.5625 1.546875 -1.671875 1.375 -1.671875 C 1.203125 -1.671875 0.703125 -1.546875 0.703125 -0.875 C 0.703125 -0.25 1.234375 0.21875 2.03125 0.21875 C 2.9375 0.21875 3.984375 -0.4375 4.234375 -1.421875 Z M 5.390625 -6.078125 "/>
</g>
<g id="glyph-1-0">
<path d="M 2.28125 -6.0625 C 1.78125 -6.0625 1.40625 -5.90625 1.078125 -5.59375 C 0.5625 -5.09375 0.21875 -4.0625 0.21875 -3.015625 C 0.21875 -2.03125 0.515625 -0.984375 0.9375 -0.484375 C 1.265625 -0.09375 1.71875 0.125 2.25 0.125 C 2.703125 0.125 3.078125 -0.03125 3.40625 -0.34375 C 3.921875 -0.828125 4.265625 -1.875 4.265625 -2.953125 C 4.265625 -4.796875 3.453125 -6.0625 2.28125 -6.0625 Z M 2.25 -5.828125 C 3 -5.828125 3.40625 -4.8125 3.40625 -2.9375 C 3.40625 -1.0625 3.015625 -0.109375 2.25 -0.109375 C 1.46875 -0.109375 1.078125 -1.0625 1.078125 -2.9375 C 1.078125 -4.828125 1.484375 -5.828125 2.25 -5.828125 Z M 2.25 -5.828125 "/>
</g>
<g id="glyph-1-1">
<path d="M 4.265625 -1.234375 L 4.140625 -1.28125 C 3.8125 -0.765625 3.6875 -0.6875 3.296875 -0.6875 L 1.140625 -0.6875 L 2.65625 -2.265625 C 3.453125 -3.09375 3.796875 -3.78125 3.796875 -4.46875 C 3.796875 -5.375 3.078125 -6.0625 2.140625 -6.0625 C 1.65625 -6.0625 1.1875 -5.859375 0.859375 -5.5 C 0.5625 -5.203125 0.4375 -4.921875 0.28125 -4.28125 L 0.46875 -4.234375 C 0.828125 -5.109375 1.140625 -5.40625 1.765625 -5.40625 C 2.515625 -5.40625 3.03125 -4.890625 3.03125 -4.140625 C 3.03125 -3.4375 2.625 -2.59375 1.859375 -1.796875 L 0.265625 -0.109375 L 0.265625 0 L 3.765625 0 Z M 4.265625 -1.234375 "/>
</g>
<g id="glyph-1-2">
<path d="M 4.234375 -2.078125 L 3.3125 -2.078125 L 3.3125 -6.0625 L 2.921875 -6.0625 L 0.109375 -2.078125 L 0.109375 -1.5 L 2.625 -1.5 L 2.625 0 L 3.3125 0 L 3.3125 -1.5 L 4.234375 -1.5 Z M 2.625 -2.078125 L 0.46875 -2.078125 L 2.625 -5.140625 Z M 2.625 -2.078125 "/>
</g>
<g id="glyph-1-3">
<path d="M 4 -6.140625 C 2.984375 -6.046875 2.453125 -5.875 1.796875 -5.421875 C 0.828125 -4.734375 0.3125 -3.703125 0.3125 -2.5 C 0.3125 -1.71875 0.546875 -0.9375 0.9375 -0.484375 C 1.28125 -0.09375 1.765625 0.125 2.3125 0.125 C 3.421875 0.125 4.203125 -0.71875 4.203125 -1.96875 C 4.203125 -3.109375 3.546875 -3.84375 2.515625 -3.84375 C 2.109375 -3.84375 1.921875 -3.78125 1.359375 -3.4375 C 1.609375 -4.796875 2.609375 -5.765625 4.015625 -5.984375 Z M 2.171875 -3.421875 C 2.9375 -3.421875 3.390625 -2.78125 3.390625 -1.65625 C 3.390625 -0.671875 3.046875 -0.125 2.40625 -0.125 C 1.625 -0.125 1.140625 -0.96875 1.140625 -2.359375 C 1.140625 -2.8125 1.203125 -3.0625 1.390625 -3.203125 C 1.578125 -3.34375 1.859375 -3.421875 2.171875 -3.421875 Z M 2.171875 -3.421875 "/>
</g>
<g id="glyph-1-4">
<path d="M 2.59375 -3.328125 C 3.484375 -3.796875 3.796875 -4.171875 3.796875 -4.796875 C 3.796875 -5.53125 3.15625 -6.0625 2.265625 -6.0625 C 1.28125 -6.0625 0.5625 -5.46875 0.5625 -4.640625 C 0.5625 -4.0625 0.71875 -3.796875 1.671875 -2.984375 C 0.703125 -2.25 0.5 -1.96875 0.5 -1.359375 C 0.5 -0.484375 1.203125 0.125 2.21875 0.125 C 3.296875 0.125 3.984375 -0.46875 3.984375 -1.390625 C 3.984375 -2.078125 3.6875 -2.515625 2.59375 -3.328125 Z M 2.4375 -2.40625 C 3.09375 -1.9375 3.3125 -1.609375 3.3125 -1.109375 C 3.3125 -0.53125 2.90625 -0.125 2.328125 -0.125 C 1.640625 -0.125 1.1875 -0.640625 1.1875 -1.421875 C 1.1875 -2 1.375 -2.375 1.90625 -2.796875 Z M 2.34375 -3.484375 C 1.546875 -4.015625 1.21875 -4.421875 1.21875 -4.921875 C 1.21875 -5.4375 1.625 -5.8125 2.1875 -5.8125 C 2.796875 -5.8125 3.1875 -5.421875 3.1875 -4.796875 C 3.1875 -4.28125 2.9375 -3.890625 2.421875 -3.546875 C 2.375 -3.515625 2.375 -3.515625 2.34375 -3.484375 Z M 2.34375 -3.484375 "/>
</g>
<g id="glyph-1-5">
<path d="M 2.609375 -6.0625 L 1 -5.25 L 1 -5.125 C 1.109375 -5.171875 1.203125 -5.203125 1.234375 -5.21875 C 1.40625 -5.28125 1.546875 -5.3125 1.640625 -5.3125 C 1.828125 -5.3125 1.90625 -5.1875 1.90625 -4.890625 L 1.90625 -0.828125 C 1.90625 -0.53125 1.84375 -0.328125 1.6875 -0.25 C 1.5625 -0.171875 1.4375 -0.140625 1.0625 -0.140625 L 1.0625 0 L 3.53125 0 L 3.53125 -0.140625 C 2.828125 -0.140625 2.6875 -0.234375 2.6875 -0.65625 L 2.6875 -6.046875 Z M 2.609375 -6.0625 "/>
</g>
<g id="glyph-1-6">
<path d="M 0.34375 -2.3125 L 0.34375 -1.734375 L 2.5625 -1.734375 L 2.5625 -2.3125 Z M 0.34375 -2.3125 "/>
</g>
<g id="glyph-1-7">
<path d="M 1.125 -0.890625 C 0.859375 -0.890625 0.625 -0.65625 0.625 -0.390625 C 0.625 -0.125 0.859375 0.09375 1.109375 0.09375 C 1.390625 0.09375 1.625 -0.125 1.625 -0.390625 C 1.625 -0.65625 1.390625 -0.890625 1.125 -0.890625 Z M 1.125 -0.890625 "/>
</g>
<g id="glyph-2-0">
<path d="M 3.59375 -2.21875 C 3.59375 -2.984375 3.5 -3.546875 3.1875 -4.03125 C 2.96875 -4.34375 2.53125 -4.625 1.984375 -4.625 C 0.359375 -4.625 0.359375 -2.71875 0.359375 -2.21875 C 0.359375 -1.71875 0.359375 0.140625 1.984375 0.140625 C 3.59375 0.140625 3.59375 -1.71875 3.59375 -2.21875 Z M 1.984375 -0.0625 C 1.65625 -0.0625 1.234375 -0.25 1.09375 -0.8125 C 1 -1.21875 1 -1.796875 1 -2.3125 C 1 -2.828125 1 -3.359375 1.09375 -3.734375 C 1.25 -4.28125 1.6875 -4.4375 1.984375 -4.4375 C 2.359375 -4.4375 2.71875 -4.203125 2.84375 -3.796875 C 2.953125 -3.421875 2.96875 -2.921875 2.96875 -2.3125 C 2.96875 -1.796875 2.96875 -1.28125 2.875 -0.84375 C 2.734375 -0.203125 2.265625 -0.0625 1.984375 -0.0625 Z M 1.984375 -0.0625 "/>
</g>
<g id="glyph-2-1">
<path d="M 2.328125 -4.4375 C 2.328125 -4.625 2.328125 -4.625 2.125 -4.625 C 1.671875 -4.1875 1.046875 -4.1875 0.765625 -4.1875 L 0.765625 -3.9375 C 0.921875 -3.9375 1.390625 -3.9375 1.765625 -4.125 L 1.765625 -0.578125 C 1.765625 -0.34375 1.765625 -0.25 1.078125 -0.25 L 0.8125 -0.25 L 0.8125 0 C 0.9375 0 1.796875 -0.03125 2.046875 -0.03125 C 2.265625 -0.03125 3.140625 0 3.296875 0 L 3.296875 -0.25 L 3.03125 -0.25 C 2.328125 -0.25 2.328125 -0.34375 2.328125 -0.578125 Z M 2.328125 -4.4375 "/>
</g>
<g id="glyph-2-2">
<path d="M 3.515625 -1.265625 L 3.28125 -1.265625 C 3.265625 -1.109375 3.1875 -0.703125 3.09375 -0.640625 C 3.046875 -0.59375 2.515625 -0.59375 2.40625 -0.59375 L 1.125 -0.59375 C 1.859375 -1.234375 2.109375 -1.4375 2.515625 -1.765625 C 3.03125 -2.171875 3.515625 -2.609375 3.515625 -3.265625 C 3.515625 -4.109375 2.78125 -4.625 1.890625 -4.625 C 1.03125 -4.625 0.4375 -4.015625 0.4375 -3.375 C 0.4375 -3.03125 0.734375 -2.984375 0.8125 -2.984375 C 0.96875 -2.984375 1.171875 -3.109375 1.171875 -3.359375 C 1.171875 -3.484375 1.125 -3.734375 0.765625 -3.734375 C 0.984375 -4.21875 1.453125 -4.375 1.78125 -4.375 C 2.484375 -4.375 2.84375 -3.828125 2.84375 -3.265625 C 2.84375 -2.65625 2.40625 -2.1875 2.1875 -1.9375 L 0.515625 -0.265625 C 0.4375 -0.203125 0.4375 -0.1875 0.4375 0 L 3.3125 0 Z M 3.515625 -1.265625 "/>
</g>
<g id="glyph-3-0">
<path d="M 3.296875 2.390625 C 3.296875 2.359375 3.296875 2.34375 3.125 2.171875 C 1.890625 0.921875 1.5625 -0.96875 1.5625 -2.5 C 1.5625 -4.234375 1.9375 -5.96875 3.171875 -7.203125 C 3.296875 -7.328125 3.296875 -7.34375 3.296875 -7.375 C 3.296875 -7.453125 3.265625 -7.484375 3.203125 -7.484375 C 3.09375 -7.484375 2.203125 -6.796875 1.609375 -5.53125 C 1.109375 -4.4375 0.984375 -3.328125 0.984375 -2.5 C 0.984375 -1.71875 1.09375 -0.515625 1.640625 0.625 C 2.25 1.84375 3.09375 2.5 3.203125 2.5 C 3.265625 2.5 3.296875 2.46875 3.296875 2.390625 Z M 3.296875 2.390625 "/>
</g>
<g id="glyph-3-1">
<path d="M 2.875 -2.5 C 2.875 -3.265625 2.765625 -4.46875 2.21875 -5.609375 C 1.625 -6.828125 0.765625 -7.484375 0.671875 -7.484375 C 0.609375 -7.484375 0.5625 -7.4375 0.5625 -7.375 C 0.5625 -7.34375 0.5625 -7.328125 0.75 -7.140625 C 1.734375 -6.15625 2.296875 -4.578125 2.296875 -2.5 C 2.296875 -0.78125 1.9375 0.96875 0.703125 2.21875 C 0.5625 2.34375 0.5625 2.359375 0.5625 2.390625 C 0.5625 2.453125 0.609375 2.5 0.671875 2.5 C 0.765625 2.5 1.671875 1.8125 2.25 0.546875 C 2.765625 -0.546875 2.875 -1.65625 2.875 -2.5 Z M 2.875 -2.5 "/>
</g>
</g>
<clipPath id="clip-0">
<path clip-rule="nonzero" d="M 344 141 L 349.96875 141 L 349.96875 146 L 344 146 Z M 344 141 "/>
</clipPath>
<clipPath id="clip-1">
<path clip-rule="nonzero" d="M 26 4 L 28 4 L 28 212.828125 L 26 212.828125 Z M 26 4 "/>
</clipPath>
<clipPath id="clip-2">
<path clip-rule="nonzero" d="M 10 2 L 349.96875 2 L 349.96875 211 L 10 211 Z M 10 2 "/>
</clipPath>
<clipPath id="clip-3">
<path clip-rule="nonzero" d="M 10 54 L 349.96875 54 L 349.96875 204 L 10 204 Z M 10 54 "/>
</clipPath>
<clipPath id="clip-4">
<path clip-rule="nonzero" d="M 10 66 L 349.96875 66 L 349.96875 200 L 10 200 Z M 10 66 "/>
</clipPath>
</defs>
<path fill="none" stroke-width="0.79701" stroke-linecap="butt" stroke-linejoin="miter" stroke="rgb(0%, 0%, 0%)" stroke-opacity="1" stroke-miterlimit="10" d="M -6.121531 -0.00103125 L 317.812063 -0.00103125 " transform="matrix(1, 0, 0, -1, 27.102, 143.831)"/>
<g clip-path="url(#clip-0)">
<path fill-rule="nonzero" fill="rgb(0%, 0%, 0%)" fill-opacity="1" d="M 349.574219 143.832031 C 348.195312 143.570312 345.949219 142.792969 344.394531 141.886719 L 344.394531 145.773438 C 345.949219 144.867188 348.195312 144.089844 349.574219 143.832031 "/>
</g>
<g fill="rgb(0%, 0%, 0%)" fill-opacity="1">
<use xlink:href="#glyph-0-0" x="340.158" y="151.839"/>
</g>
<g clip-path="url(#clip-1)">
<path fill="none" stroke-width="0.79701" stroke-linecap="butt" stroke-linejoin="miter" stroke="rgb(0%, 0%, 0%)" stroke-opacity="1" stroke-miterlimit="10" d="M -0.0004375 -68.598687 L -0.0004375 138.772406 " transform="matrix(1, 0, 0, -1, 27.102, 143.831)"/>
</g>
<path fill-rule="nonzero" fill="rgb(0%, 0%, 0%)" fill-opacity="1" d="M 27.101562 0.398438 C 26.84375 1.777344 26.066406 4.023438 25.160156 5.578125 L 29.042969 5.578125 C 28.136719 4.023438 27.359375 1.777344 27.101562 0.398438 "/>
<path fill="none" stroke-width="0.79701" stroke-linecap="butt" stroke-linejoin="miter" stroke="rgb(0%, 0%, 0%)" stroke-opacity="1" stroke-miterlimit="10" d="M -0.0004375 -2.493219 L -0.0004375 2.495063 " transform="matrix(1, 0, 0, -1, 27.102, 143.831)"/>
<g fill="rgb(0%, 0%, 0%)" fill-opacity="1">
<use xlink:href="#glyph-1-0" x="24.86" y="157.034"/>
</g>
<path fill="none" stroke-width="0.79701" stroke-linecap="butt" stroke-linejoin="miter" stroke="rgb(0%, 0%, 0%)" stroke-opacity="1" stroke-miterlimit="10" d="M 40.819875 -2.493219 L 40.819875 2.495063 " transform="matrix(1, 0, 0, -1, 27.102, 143.831)"/>
<g fill="rgb(0%, 0%, 0%)" fill-opacity="1">
<use xlink:href="#glyph-1-1" x="65.679" y="157.034"/>
</g>
<path fill="none" stroke-width="0.79701" stroke-linecap="butt" stroke-linejoin="miter" stroke="rgb(0%, 0%, 0%)" stroke-opacity="1" stroke-miterlimit="10" d="M 81.640187 -2.493219 L 81.640187 2.495063 " transform="matrix(1, 0, 0, -1, 27.102, 143.831)"/>
<g fill="rgb(0%, 0%, 0%)" fill-opacity="1">
<use xlink:href="#glyph-1-2" x="106.498" y="157.034"/>
</g>
<path fill="none" stroke-width="0.79701" stroke-linecap="butt" stroke-linejoin="miter" stroke="rgb(0%, 0%, 0%)" stroke-opacity="1" stroke-miterlimit="10" d="M 122.456594 -2.493219 L 122.456594 2.495063 " transform="matrix(1, 0, 0, -1, 27.102, 143.831)"/>
<g fill="rgb(0%, 0%, 0%)" fill-opacity="1">
<use xlink:href="#glyph-1-3" x="147.317" y="157.034"/>
</g>
<path fill="none" stroke-width="0.79701" stroke-linecap="butt" stroke-linejoin="miter" stroke="rgb(0%, 0%, 0%)" stroke-opacity="1" stroke-miterlimit="10" d="M 163.276906 -2.493219 L 163.276906 2.495063 " transform="matrix(1, 0, 0, -1, 27.102, 143.831)"/>
<g fill="rgb(0%, 0%, 0%)" fill-opacity="1">
<use xlink:href="#glyph-1-4" x="188.136" y="157.034"/>
</g>
<path fill="none" stroke-width="0.79701" stroke-linecap="butt" stroke-linejoin="miter" stroke="rgb(0%, 0%, 0%)" stroke-opacity="1" stroke-miterlimit="10" d="M 204.097219 -2.493219 L 204.097219 2.495063 " transform="matrix(1, 0, 0, -1, 27.102, 143.831)"/>
<g fill="rgb(0%, 0%, 0%)" fill-opacity="1">
<use xlink:href="#glyph-1-5" x="226.713" y="157.034"/>
<use xlink:href="#glyph-1-0" x="231.19617" y="157.034"/>
</g>
<path fill="none" stroke-width="0.79701" stroke-linecap="butt" stroke-linejoin="miter" stroke="rgb(0%, 0%, 0%)" stroke-opacity="1" stroke-miterlimit="10" d="M 244.917531 -2.493219 L 244.917531 2.495063 " transform="matrix(1, 0, 0, -1, 27.102, 143.831)"/>
<g fill="rgb(0%, 0%, 0%)" fill-opacity="1">
<use xlink:href="#glyph-1-5" x="267.532" y="157.034"/>
<use xlink:href="#glyph-1-1" x="272.01517" y="157.034"/>
</g>
<path fill="none" stroke-width="0.79701" stroke-linecap="butt" stroke-linejoin="miter" stroke="rgb(0%, 0%, 0%)" stroke-opacity="1" stroke-miterlimit="10" d="M 285.737844 -2.493219 L 285.737844 2.495063 " transform="matrix(1, 0, 0, -1, 27.102, 143.831)"/>
<g fill="rgb(0%, 0%, 0%)" fill-opacity="1">
<use xlink:href="#glyph-1-5" x="308.351" y="157.034"/>
<use xlink:href="#glyph-1-2" x="312.83417" y="157.034"/>
</g>
<path fill="none" stroke-width="0.79701" stroke-linecap="butt" stroke-linejoin="miter" stroke="rgb(0%, 0%, 0%)" stroke-opacity="1" stroke-miterlimit="10" d="M -2.449656 -49.88775 L 2.448781 -49.88775 " transform="matrix(1, 0, 0, -1, 27.102, 143.831)"/>
<g fill="rgb(0%, 0%, 0%)" fill-opacity="1">
<use xlink:href="#glyph-1-6" x="5.479" y="196.714"/>
<use xlink:href="#glyph-1-0" x="8.464791" y="196.714"/>
<use xlink:href="#glyph-1-7" x="12.947961" y="196.714"/>
<use xlink:href="#glyph-1-2" x="15.189546" y="196.714"/>
</g>
<path fill="none" stroke-width="0.79701" stroke-linecap="butt" stroke-linejoin="miter" stroke="rgb(0%, 0%, 0%)" stroke-opacity="1" stroke-miterlimit="10" d="M -2.449656 -24.946344 L 2.448781 -24.946344 " transform="matrix(1, 0, 0, -1, 27.102, 143.831)"/>
<g fill="rgb(0%, 0%, 0%)" fill-opacity="1">
<use xlink:href="#glyph-1-6" x="5.479" y="171.77"/>
<use xlink:href="#glyph-1-0" x="8.464791" y="171.77"/>
<use xlink:href="#glyph-1-7" x="12.947961" y="171.77"/>
<use xlink:href="#glyph-1-1" x="15.189546" y="171.77"/>
</g>
<path fill="none" stroke-width="0.79701" stroke-linecap="butt" stroke-linejoin="miter" stroke="rgb(0%, 0%, 0%)" stroke-opacity="1" stroke-miterlimit="10" d="M -2.449656 24.944281 L 2.448781 24.944281 " transform="matrix(1, 0, 0, -1, 27.102, 143.831)"/>
<g fill="rgb(0%, 0%, 0%)" fill-opacity="1">
<use xlink:href="#glyph-1-0" x="8.465" y="121.881"/>
<use xlink:href="#glyph-1-7" x="12.94817" y="121.881"/>
<use xlink:href="#glyph-1-1" x="15.189755" y="121.881"/>
</g>
<path fill="none" stroke-width="0.79701" stroke-linecap="butt" stroke-linejoin="miter" stroke="rgb(0%, 0%, 0%)" stroke-opacity="1" stroke-miterlimit="10" d="M -2.449656 49.889594 L 2.448781 49.889594 " transform="matrix(1, 0, 0, -1, 27.102, 143.831)"/>
<g fill="rgb(0%, 0%, 0%)" fill-opacity="1">
<use xlink:href="#glyph-1-0" x="8.465" y="96.937"/>
<use xlink:href="#glyph-1-7" x="12.94817" y="96.937"/>
<use xlink:href="#glyph-1-2" x="15.189755" y="96.937"/>
</g>
<path fill="none" stroke-width="0.79701" stroke-linecap="butt" stroke-linejoin="miter" stroke="rgb(0%, 0%, 0%)" stroke-opacity="1" stroke-miterlimit="10" d="M -2.449656 74.834906 L 2.448781 74.834906 " transform="matrix(1, 0, 0, -1, 27.102, 143.831)"/>
<g fill="rgb(0%, 0%, 0%)" fill-opacity="1">
<use xlink:href="#glyph-1-0" x="8.465" y="71.99"/>
<use xlink:href="#glyph-1-7" x="12.94817" y="71.99"/>
<use xlink:href="#glyph-1-3" x="15.189755" y="71.99"/>
</g>
<path fill="none" stroke-width="0.79701" stroke-linecap="butt" stroke-linejoin="miter" stroke="rgb(0%, 0%, 0%)" stroke-opacity="1" stroke-miterlimit="10" d="M -2.449656 99.780219 L 2.448781 99.780219 " transform="matrix(1, 0, 0, -1, 27.102, 143.831)"/>
<g fill="rgb(0%, 0%, 0%)" fill-opacity="1">
<use xlink:href="#glyph-1-0" x="8.465" y="47.046"/>
<use xlink:href="#glyph-1-7" x="12.94817" y="47.046"/>
<use xlink:href="#glyph-1-4" x="15.189755" y="47.046"/>
</g>
<path fill="none" stroke-width="0.79701" stroke-linecap="butt" stroke-linejoin="miter" stroke="rgb(0%, 0%, 0%)" stroke-opacity="1" stroke-miterlimit="10" d="M -2.449656 124.725531 L 2.448781 124.725531 " transform="matrix(1, 0, 0, -1, 27.102, 143.831)"/>
<g fill="rgb(0%, 0%, 0%)" fill-opacity="1">
<use xlink:href="#glyph-1-5" x="8.465" y="22.101"/>
<use xlink:href="#glyph-1-7" x="12.94817" y="22.101"/>
<use xlink:href="#glyph-1-0" x="15.189755" y="22.101"/>
</g>
<g clip-path="url(#clip-2)">
<path fill="none" stroke-width="1.19553" stroke-linecap="butt" stroke-linejoin="miter" stroke="rgb(0%, 0%, 100%)" stroke-opacity="1" stroke-miterlimit="10" d="M -0.0004375 124.725531 L 2.042531 124.413031 L 4.081594 123.479438 L 6.124562 121.932563 L 8.163625 119.788031 L 10.206594 117.057563 L 12.245656 113.748969 L 14.288625 109.909125 L 16.327687 105.553656 L 18.36675 100.713813 L 20.409719 95.440375 L 22.452687 89.752875 L 24.49175 83.702094 L 26.530812 77.342719 L 28.573781 70.706 L 30.612844 63.834906 L 32.655812 56.79975 L 34.694875 49.639594 L 36.737844 42.405219 L 38.776906 35.147406 L 40.819875 27.928656 L 42.858937 20.780219 L 44.901906 13.7685 L 46.940969 6.920844 L 48.983937 0.311469 L 51.023 -6.036187 L 53.065969 -12.07525 L 55.105031 -17.758844 L 57.148 -23.07525 L 59.187062 -27.977594 L 61.230031 -32.442437 L 63.269094 -36.430719 L 65.312062 -39.938531 L 67.351125 -42.942437 L 69.394094 -45.438531 L 71.433156 -47.407281 L 73.476125 -48.868219 L 75.515187 -49.790094 L 77.558156 -50.215875 L 79.597219 -50.114312 L 81.640187 -49.528375 L 83.67925 -48.4815 L 85.722219 -46.973687 L 87.761281 -45.024469 L 89.80425 -42.692437 L 91.843312 -39.973687 L 93.886281 -36.930719 L 95.925344 -33.586969 L 97.968312 -29.985406 L 100.007375 -26.153375 L 102.050344 -22.149469 L 104.089406 -17.997125 L 106.132375 -13.758844 L 108.171437 -9.454156 L 110.2105 -5.13775 L 112.253469 -0.848687 L 114.296437 3.366156 L 116.3355 7.471625 L 118.378469 11.436469 L 120.417531 15.213813 L 122.456594 18.784125 L 124.499562 22.116156 L 126.538625 25.159125 L 128.581594 27.913031 L 130.620656 30.346625 L 132.663625 32.440375 L 134.702687 34.17475 L 136.745656 35.557563 L 138.784719 36.557563 L 140.827687 37.178656 L 142.86675 37.428656 L 144.909719 37.307563 L 146.948781 36.807563 L 148.99175 35.944281 L 151.030812 34.748969 L 153.073781 33.213813 L 155.112844 31.381781 L 157.155812 29.260688 L 159.194875 26.866156 L 161.237844 24.245063 L 163.276906 21.416938 L 165.319875 18.397406 L 167.358937 15.241156 L 169.401906 11.971625 L 171.440969 8.631781 L 173.483937 5.225531 L 175.523 1.823188 L 177.565969 -1.559625 L 179.605031 -4.88775 L 181.648 -8.145562 L 183.687062 -11.26275 L 185.730031 -14.243219 L 187.769094 -17.051812 L 189.812062 -19.669 L 191.851125 -22.051812 L 193.894094 -24.184625 L 195.933156 -26.067437 L 197.976125 -27.665094 L 200.015187 -28.973687 L 202.058156 -29.969781 L 204.097219 -30.669 L 206.140187 -31.055719 L 208.17925 -31.129937 L 210.222219 -30.895562 L 212.261281 -30.3565 L 214.300344 -29.508844 L 216.343312 -28.38775 L 218.382375 -26.989312 L 220.425344 -25.344781 L 222.464406 -23.461969 L 224.507375 -21.352594 L 226.546437 -19.059625 L 228.589406 -16.586969 L 230.628469 -13.9815 L 232.671437 -11.251031 L 234.7105 -8.442437 L 236.753469 -5.563531 L 238.792531 -2.657281 L 240.8355 0.248969 L 242.874562 3.116156 L 244.917531 5.948188 L 246.956594 8.694281 L 248.999562 11.327094 L 251.038625 13.819281 L 253.081594 16.163031 L 255.120656 18.323188 L 257.163625 20.280219 L 259.202688 22.026313 L 261.245656 23.538031 L 263.284719 24.795844 L 265.327688 25.803656 L 267.36675 26.553656 L 269.409719 27.030219 L 271.448781 27.229438 L 273.49175 27.151313 L 275.530813 26.815375 L 277.573781 26.206 L 279.612844 25.342719 L 281.655813 24.233344 L 283.694875 22.897406 L 285.737844 21.338813 L 287.776906 19.581 L 289.819875 17.635688 L 291.858938 15.526313 L 293.901906 13.284125 L 295.940969 10.913031 L 297.983938 8.467719 L 300.023 5.936469 L 302.065969 3.381781 L 304.105031 0.795844 L 306.148 -1.770562 " transform="matrix(1, 0, 0, -1, 27.102, 143.831)"/>
</g>
<g clip-path="url(#clip-3)">
<path fill="none" stroke-width="1.19553" stroke-linecap="butt" stroke-linejoin="miter" stroke="rgb(100%, 0%, 0%)" stroke-opacity="1" stroke-miterlimit="10" d="M -0.0004375 -0.00103125 L 2.042531 6.221625 L 4.081594 12.409125 L 6.124562 18.495063 L 8.163625 24.444281 L 10.206594 30.221625 L 12.245656 35.756781 L 14.288625 41.034125 L 16.327687 45.998969 L 18.36675 50.627875 L 20.409719 54.889594 L 22.452687 58.733344 L 24.49175 62.151313 L 26.530812 65.108344 L 28.573781 67.588813 L 30.612844 69.584906 L 32.655812 71.081 L 34.694875 72.065375 L 36.737844 72.526313 L 38.776906 72.491156 L 40.819875 71.928656 L 42.858937 70.881781 L 44.901906 69.346625 L 46.940969 67.338813 L 48.983937 64.881781 L 51.023 62.002875 L 53.065969 58.721625 L 55.105031 55.081 L 57.148 51.100531 L 59.187062 46.823188 L 61.230031 42.295844 L 63.269094 37.530219 L 65.312062 32.592719 L 67.351125 27.526313 L 69.394094 22.350531 L 71.433156 17.139594 L 73.476125 11.913031 L 75.515187 6.709906 L 77.558156 1.596625 L 79.597219 -3.391656 L 81.640187 -8.2315 L 83.67925 -12.883844 L 85.722219 -17.286187 L 87.761281 -21.442437 L 89.80425 -25.294 L 91.843312 -28.82525 L 93.886281 -32.004937 L 95.925344 -34.809625 L 97.968312 -37.2315 L 100.007375 -39.251031 L 102.050344 -40.860406 L 104.089406 -42.044 L 106.132375 -42.805719 L 108.171437 -43.153375 L 110.2105 -43.067437 L 112.253469 -42.583062 L 114.296437 -41.696344 L 116.3355 -40.422906 L 118.378469 -38.790094 L 120.417531 -36.805719 L 122.456594 -34.51275 L 124.499562 -31.919 L 126.538625 -29.047906 L 128.581594 -25.954156 L 130.620656 -22.649469 L 132.663625 -19.180719 L 134.702687 -15.590875 L 136.745656 -11.88775 L 138.784719 -8.133844 L 140.827687 -4.352594 L 142.86675 -0.586969 L 144.909719 3.1435 L 146.948781 6.772406 L 148.99175 10.303656 L 151.030812 13.670844 L 153.073781 16.86225 L 155.112844 19.854438 L 157.155812 22.61225 L 159.194875 25.120063 L 161.237844 27.338813 L 163.276906 29.260688 L 165.319875 30.881781 L 167.358937 32.178656 L 169.401906 33.139594 L 171.440969 33.776313 L 173.483937 34.061469 L 175.523 34.026313 L 177.565969 33.639594 L 179.605031 32.940375 L 181.648 31.916938 L 183.687062 30.596625 L 185.730031 28.98725 L 187.769094 27.116156 L 189.812062 24.995063 L 191.851125 22.651313 L 193.894094 20.120063 L 195.933156 17.397406 L 197.976125 14.541938 L 200.015187 11.573188 L 202.058156 8.530219 L 204.097219 5.42475 L 206.140187 2.295844 L 208.17925 -0.82525 L 210.222219 -3.903375 L 212.261281 -6.922906 L 214.300344 -9.840875 L 216.343312 -12.622125 L 218.382375 -15.266656 L 220.425344 -17.735406 L 222.464406 -19.993219 L 224.507375 -22.051812 L 226.546437 -23.860406 L 228.589406 -25.430719 L 230.628469 -26.727594 L 232.671437 -27.751031 L 234.7105 -28.485406 L 236.753469 -28.934625 L 238.792531 -29.098687 L 240.8355 -28.973687 L 242.874562 -28.563531 L 244.917531 -27.864312 L 246.956594 -26.903375 L 248.999562 -25.692437 L 251.038625 -24.235406 L 253.081594 -22.536187 L 255.120656 -20.641656 L 257.163625 -18.547906 L 259.202688 -16.301812 L 261.245656 -13.895562 L 263.284719 -11.376031 L 265.327688 -8.766656 L 267.36675 -6.098687 L 269.409719 -3.379937 L 271.448781 -0.649469 L 273.49175 2.069281 L 275.530813 4.73725 L 277.573781 7.358344 L 279.612844 9.866156 L 281.655813 12.272406 L 283.694875 14.530219 L 285.737844 16.639594 L 287.776906 18.561469 L 289.819875 20.280219 L 291.858938 21.788031 L 293.901906 23.073188 L 295.940969 24.123969 L 297.983938 24.932563 L 300.023 25.483344 L 302.065969 25.7685 L 304.105031 25.803656 L 306.148 25.581 " transform="matrix(1, 0, 0, -1, 27.102, 143.831)"/>
</g>
<g clip-path="url(#clip-4)">
<path fill="none" stroke-width="1.19553" stroke-linecap="butt" stroke-linejoin="miter" stroke="rgb(0%, 50%, 0%)" stroke-opacity="1" stroke-miterlimit="10" d="M -0.0004375 -0.00103125 L 2.042531 0.151313 L 4.081594 0.623969 L 6.124562 1.397406 L 8.163625 2.456 L 10.206594 3.815375 L 12.245656 5.452094 L 14.288625 7.334906 L 16.327687 9.456 L 18.36675 11.79975 L 20.409719 14.331 L 22.452687 17.038031 L 24.49175 19.870063 L 26.530812 22.823188 L 28.573781 25.866156 L 30.612844 28.948188 L 32.655812 32.053656 L 34.694875 35.135688 L 36.737844 38.178656 L 38.776906 41.147406 L 40.819875 44.002875 L 42.858937 46.721625 L 44.901906 49.280219 L 46.940969 51.623969 L 48.983937 53.756781 L 51.023 55.639594 L 53.065969 57.248969 L 55.105031 58.573188 L 57.148 59.581 L 59.187062 60.2685 L 61.230031 60.627875 L 63.269094 60.6435 L 65.312062 60.303656 L 67.351125 59.620063 L 69.394094 58.584906 L 71.433156 57.198188 L 73.476125 55.475531 L 75.515187 53.420844 L 77.558156 51.04975 L 79.597219 48.381781 L 81.640187 45.413031 L 83.67925 42.194281 L 85.722219 38.725531 L 87.761281 35.061469 L 89.80425 31.194281 L 91.843312 27.166938 L 93.886281 23.026313 L 95.925344 18.784125 L 97.968312 14.479438 L 100.007375 10.139594 L 102.050344 5.811469 L 104.089406 1.510688 L 106.132375 -2.708062 L 108.171437 -6.821344 L 110.2105 -10.813531 L 112.253469 -14.629937 L 114.296437 -18.258844 L 116.3355 -21.665094 L 118.378469 -24.821344 L 120.417531 -27.704156 L 122.456594 -30.297906 L 124.499562 -32.579156 L 126.538625 -34.536187 L 128.581594 -36.157281 L 130.620656 -37.430719 L 132.663625 -38.340875 L 134.702687 -38.903375 L 136.745656 -39.102594 L 138.784719 -38.95025 L 140.827687 -38.438531 L 142.86675 -37.594781 L 144.909719 -36.419 L 146.948781 -34.922906 L 148.99175 -33.126031 L 151.030812 -31.055719 L 153.073781 -28.723687 L 155.112844 -26.153375 L 157.155812 -23.38775 L 159.194875 -20.430719 L 161.237844 -17.32525 L 163.276906 -14.094781 L 165.319875 -10.774469 L 167.358937 -7.395562 L 169.401906 -3.989312 L 171.440969 -0.586969 L 173.483937 2.780219 L 175.523 6.084906 L 177.565969 9.291938 L 179.605031 12.385688 L 181.648 15.315375 L 183.687062 18.061469 L 185.730031 20.616156 L 187.769094 22.952094 L 189.812062 25.045844 L 191.851125 26.866156 L 193.894094 28.42475 L 195.933156 29.686469 L 197.976125 30.659125 L 200.015187 31.331 L 202.058156 31.706 L 204.097219 31.752875 L 206.140187 31.5185 L 208.17925 30.971625 L 210.222219 30.131781 L 212.261281 29.022406 L 214.300344 27.639594 L 216.343312 26.002875 L 218.382375 24.147406 L 220.425344 22.061469 L 222.464406 19.780219 L 224.507375 17.338813 L 226.546437 14.756781 L 228.589406 12.04975 L 230.628469 9.241156 L 232.671437 6.385688 L 234.7105 3.479438 L 236.753469 0.573188 L 238.792531 -2.305719 L 240.8355 -5.153375 L 242.874562 -7.919 L 244.917531 -10.590875 L 246.956594 -13.133844 L 248.999562 -15.528375 L 251.038625 -17.758844 L 253.081594 -19.794 L 255.120656 -21.626031 L 257.163625 -23.223687 L 259.202688 -24.594781 L 261.245656 -25.704156 L 263.284719 -26.567437 L 265.327688 -27.153375 L 267.36675 -27.477594 L 269.409719 -27.540094 L 271.448781 -27.329156 L 273.49175 -26.840875 L 275.530813 -26.118219 L 277.573781 -25.133844 L 279.612844 -23.911187 L 281.655813 -22.461969 L 283.694875 -20.801812 L 285.737844 -18.958062 L 287.776906 -16.938531 L 289.819875 -14.778375 L 291.858938 -12.485406 L 293.901906 -10.079156 L 295.940969 -7.594781 L 297.983938 -5.051812 L 300.023 -2.4815 L 302.065969 0.100531 L 304.105031 2.666938 L 306.148 5.186469 " transform="matrix(1, 0, 0, -1, 27.102, 143.831)"/>
</g>
<g fill="rgb(0%, 0%, 100%)" fill-opacity="1">
<use xlink:href="#glyph-0-1" x="53.271" y="47.82"/>
</g>
<g fill="rgb(0%, 0%, 100%)" fill-opacity="1">
<use xlink:href="#glyph-2-0" x="58.796" y="49.314"/>
</g>
<g fill="rgb(0%, 0%, 100%)" fill-opacity="1">
<use xlink:href="#glyph-3-0" x="63.265" y="47.82"/>
</g>
<g fill="rgb(0%, 0%, 100%)" fill-opacity="1">
<use xlink:href="#glyph-0-0" x="67.139" y="47.82"/>
</g>
<g fill="rgb(0%, 0%, 100%)" fill-opacity="1">
<use xlink:href="#glyph-3-1" x="72.833" y="47.82"/>
</g>
<g fill="rgb(100%, 0%, 0%)" fill-opacity="1">
<use xlink:href="#glyph-0-1" x="81.844" y="71.518"/>
</g>
<g fill="rgb(100%, 0%, 0%)" fill-opacity="1">
<use xlink:href="#glyph-2-1" x="87.369" y="73.012"/>
</g>
<g fill="rgb(100%, 0%, 0%)" fill-opacity="1">
<use xlink:href="#glyph-3-0" x="91.838" y="71.518"/>
</g>
<g fill="rgb(100%, 0%, 0%)" fill-opacity="1">
<use xlink:href="#glyph-0-0" x="95.713" y="71.518"/>
</g>
<g fill="rgb(100%, 0%, 0%)" fill-opacity="1">
<use xlink:href="#glyph-3-1" x="101.406" y="71.518"/>
</g>
<g fill="rgb(0%, 50%, 0%)" fill-opacity="1">
<use xlink:href="#glyph-0-1" x="120.622" y="82.742"/>
</g>
<g fill="rgb(0%, 50%, 0%)" fill-opacity="1">
<use xlink:href="#glyph-2-2" x="126.147" y="84.237"/>
</g>
<g fill="rgb(0%, 50%, 0%)" fill-opacity="1">
<use xlink:href="#glyph-3-0" x="130.616" y="82.742"/>
</g>
<g fill="rgb(0%, 50%, 0%)" fill-opacity="1">
<use xlink:href="#glyph-0-0" x="134.49" y="82.742"/>
</g>
<g fill="rgb(0%, 50%, 0%)" fill-opacity="1">
<use xlink:href="#glyph-3-1" x="140.184" y="82.742"/>
</g>
</svg>
