<?xml version="1.0" encoding="UTF-8"?>
<svg xmlns="http://www.w3.org/2000/svg" xmlns:xlink="http://www.w3.org/1999/xlink" width="114.51pt" height="86.971pt" viewBox="0 0 114.51 86.971">
<defs>
<g>
<g id="glyph-0-0">
<path d="M 3.703125 -6.015625 C 3.796875 -6.375 3.828125 -6.46875 4.609375 -6.46875 C 4.859375 -6.46875 4.9375 -6.46875 4.9375 -6.65625 C 4.9375 -6.78125 4.828125 -6.78125 4.78125 -6.78125 C 4.5 -6.78125 3.765625 -6.75 3.46875 -6.75 C 3.171875 -6.75 2.453125 -6.78125 2.15625 -6.78125 C 2.078125 -6.78125 1.953125 -6.78125 1.953125 -6.578125 C 1.953125 -6.46875 2.046875 -6.46875 2.234375 -6.46875 C 2.65625 -6.46875 2.921875 -6.46875 2.921875 -6.28125 C 2.921875 -6.234375 2.921875 -6.21875 2.890625 -6.125 L 1.5625 -0.78125 C 1.46875 -0.40625 1.4375 -0.3125 0.65625 -0.3125 C 0.421875 -0.3125 0.34375 -0.3125 0.34375 -0.109375 C 0.34375 0 0.453125 0 0.484375 0 C 0.78125 0 1.5 -0.03125 1.78125 -0.03125 C 2.078125 -0.03125 2.8125 0 3.109375 0 C 3.1875 0 3.3125 0 3.3125 -0.1875 C 3.3125 -0.3125 3.234375 -0.3125 3.015625 -0.3125 C 2.84375 -0.3125 2.78125 -0.3125 2.59375 -0.328125 C 2.375 -0.34375 2.34375 -0.390625 2.34375 -0.5 C 2.34375 -0.578125 2.359375 -0.65625 2.375 -0.71875 Z M 3.703125 -6.015625 "/>
</g>
<g id="glyph-0-1">
<path d="M 6.234375 -5.640625 C 6.71875 -6.421875 7.140625 -6.453125 7.5 -6.46875 C 7.625 -6.484375 7.625 -6.640625 7.625 -6.65625 C 7.625 -6.734375 7.578125 -6.78125 7.5 -6.78125 C 7.25 -6.78125 6.953125 -6.75 6.6875 -6.75 C 6.359375 -6.75 6.015625 -6.78125 5.703125 -6.78125 C 5.640625 -6.78125 5.515625 -6.78125 5.515625 -6.59375 C 5.515625 -6.484375 5.609375 -6.46875 5.671875 -6.46875 C 5.9375 -6.453125 6.125 -6.34375 6.125 -6.140625 C 6.125 -6 5.984375 -5.78125 5.984375 -5.765625 L 2.9375 -0.921875 L 2.265625 -6.171875 C 2.265625 -6.34375 2.484375 -6.46875 2.953125 -6.46875 C 3.078125 -6.46875 3.1875 -6.46875 3.1875 -6.671875 C 3.1875 -6.75 3.109375 -6.78125 3.0625 -6.78125 C 2.65625 -6.78125 2.234375 -6.75 1.828125 -6.75 C 1.640625 -6.75 1.453125 -6.75 1.28125 -6.75 C 1.09375 -6.75 0.90625 -6.78125 0.75 -6.78125 C 0.671875 -6.78125 0.5625 -6.78125 0.5625 -6.59375 C 0.5625 -6.46875 0.640625 -6.46875 0.796875 -6.46875 C 1.359375 -6.46875 1.375 -6.375 1.40625 -6.125 L 2.1875 -0.015625 C 2.21875 0.1875 2.25 0.21875 2.375 0.21875 C 2.546875 0.21875 2.578125 0.171875 2.65625 0.046875 Z M 6.234375 -5.640625 "/>
</g>
<g id="glyph-1-0">
<path d="M 1.3125 -0.546875 C 1.25 -0.3125 1.234375 -0.25 0.703125 -0.25 C 0.578125 -0.25 0.5 -0.25 0.5 -0.09375 C 0.5 0 0.578125 0 0.703125 0 L 3.171875 0 C 4.71875 0 6.1875 -1.421875 6.1875 -2.921875 C 6.1875 -3.9375 5.5 -4.734375 4.359375 -4.734375 L 1.84375 -4.734375 C 1.703125 -4.734375 1.609375 -4.734375 1.609375 -4.578125 C 1.609375 -4.484375 1.6875 -4.484375 1.84375 -4.484375 C 1.953125 -4.484375 1.984375 -4.484375 2.109375 -4.46875 C 2.25 -4.453125 2.265625 -4.453125 2.265625 -4.375 C 2.265625 -4.359375 2.265625 -4.328125 2.234375 -4.21875 Z M 2.859375 -4.25 C 2.921875 -4.46875 2.921875 -4.484375 3.21875 -4.484375 L 4.109375 -4.484375 C 4.890625 -4.484375 5.53125 -4.09375 5.53125 -3.15625 C 5.53125 -3 5.46875 -1.796875 4.765625 -1 C 4.5 -0.6875 3.90625 -0.25 3.046875 -0.25 L 2.109375 -0.25 C 1.890625 -0.25 1.890625 -0.25 1.890625 -0.3125 C 1.890625 -0.328125 1.890625 -0.359375 1.921875 -0.46875 Z M 2.859375 -4.25 "/>
</g>
<g id="glyph-1-1">
<path d="M 1.3125 -0.546875 C 1.25 -0.3125 1.234375 -0.25 0.703125 -0.25 C 0.59375 -0.25 0.5 -0.25 0.5 -0.109375 C 0.5 0 0.578125 0 0.703125 0 L 3.390625 0 C 4.5625 0 5.453125 -0.796875 5.453125 -1.484375 C 5.453125 -1.984375 5 -2.40625 4.265625 -2.484375 C 5.109375 -2.625 5.8125 -3.15625 5.8125 -3.75 C 5.8125 -4.28125 5.265625 -4.734375 4.375 -4.734375 L 1.84375 -4.734375 C 1.71875 -4.734375 1.625 -4.734375 1.625 -4.578125 C 1.625 -4.484375 1.703125 -4.484375 1.84375 -4.484375 C 1.859375 -4.484375 1.984375 -4.484375 2.109375 -4.46875 C 2.25 -4.453125 2.265625 -4.453125 2.265625 -4.375 C 2.265625 -4.359375 2.265625 -4.328125 2.234375 -4.21875 Z M 2.421875 -2.5625 L 2.84375 -4.25 C 2.90625 -4.46875 2.90625 -4.484375 3.203125 -4.484375 L 4.265625 -4.484375 C 4.96875 -4.484375 5.125 -4.03125 5.125 -3.765625 C 5.125 -3.203125 4.5 -2.5625 3.5625 -2.5625 Z M 2.09375 -0.25 C 1.875 -0.25 1.875 -0.25 1.875 -0.3125 C 1.875 -0.328125 1.875 -0.359375 1.90625 -0.46875 L 2.375 -2.359375 L 3.84375 -2.359375 C 4.5 -2.359375 4.75 -1.9375 4.75 -1.53125 C 4.75 -0.84375 4.046875 -0.25 3.21875 -0.25 Z M 2.09375 -0.25 "/>
</g>
<g id="glyph-1-2">
<path d="M 5.5 -1.609375 C 5.53125 -1.6875 5.53125 -1.71875 5.53125 -1.734375 C 5.53125 -1.765625 5.515625 -1.828125 5.421875 -1.828125 C 5.40625 -1.828125 5.375 -1.828125 5.34375 -1.796875 C 5.328125 -1.78125 5.328125 -1.78125 5.234375 -1.59375 C 4.78125 -0.59375 4.4375 -0.25 3.296875 -0.25 L 2.125 -0.25 C 1.90625 -0.25 1.90625 -0.25 1.90625 -0.3125 C 1.90625 -0.328125 1.90625 -0.359375 1.921875 -0.46875 L 2.390625 -2.328125 L 3.171875 -2.328125 C 3.71875 -2.328125 3.796875 -2.234375 3.796875 -2 C 3.796875 -1.921875 3.78125 -1.8125 3.75 -1.6875 C 3.734375 -1.625 3.734375 -1.625 3.734375 -1.609375 C 3.734375 -1.59375 3.734375 -1.515625 3.84375 -1.515625 C 3.953125 -1.515625 3.953125 -1.546875 3.984375 -1.671875 L 4.359375 -3.1875 C 4.390625 -3.265625 4.390625 -3.28125 4.390625 -3.28125 C 4.390625 -3.359375 4.328125 -3.390625 4.265625 -3.390625 C 4.171875 -3.390625 4.171875 -3.34375 4.125 -3.203125 C 3.984375 -2.65625 3.78125 -2.578125 3.1875 -2.578125 L 2.453125 -2.578125 L 2.875 -4.21875 C 2.921875 -4.4375 2.9375 -4.453125 3.21875 -4.453125 L 4.359375 -4.453125 C 5.265625 -4.453125 5.5 -4.28125 5.5 -3.65625 C 5.5 -3.46875 5.46875 -3.265625 5.46875 -3.234375 C 5.46875 -3.171875 5.484375 -3.109375 5.578125 -3.109375 C 5.6875 -3.109375 5.703125 -3.171875 5.703125 -3.296875 L 5.828125 -4.5 C 5.859375 -4.703125 5.8125 -4.703125 5.640625 -4.703125 L 1.8125 -4.703125 C 1.671875 -4.703125 1.59375 -4.703125 1.59375 -4.5625 C 1.59375 -4.453125 1.671875 -4.453125 1.828125 -4.453125 C 1.9375 -4.453125 1.96875 -4.453125 2.09375 -4.453125 C 2.234375 -4.4375 2.234375 -4.421875 2.234375 -4.34375 C 2.234375 -4.296875 2.21875 -4.234375 2.21875 -4.203125 L 1.296875 -0.5625 C 1.234375 -0.296875 1.234375 -0.25 0.6875 -0.25 C 0.5625 -0.25 0.484375 -0.25 0.484375 -0.09375 C 0.484375 0 0.5625 0 0.6875 0 L 4.609375 0 C 4.78125 0 4.78125 0 4.84375 -0.125 Z M 5.5 -1.609375 "/>
</g>
<g id="glyph-2-0">
<path d="M 4.0625 -2.28125 L 6.828125 -2.28125 C 6.96875 -2.28125 7.15625 -2.28125 7.15625 -2.484375 C 7.15625 -2.671875 6.96875 -2.671875 6.828125 -2.671875 L 4.0625 -2.671875 L 4.0625 -5.453125 C 4.0625 -5.59375 4.0625 -5.78125 3.859375 -5.78125 C 3.65625 -5.78125 3.65625 -5.59375 3.65625 -5.453125 L 3.65625 -2.671875 L 0.890625 -2.671875 C 0.75 -2.671875 0.5625 -2.671875 0.5625 -2.484375 C 0.5625 -2.28125 0.75 -2.28125 0.890625 -2.28125 L 3.65625 -2.28125 L 3.65625 0.5 C 3.65625 0.640625 3.65625 0.828125 3.859375 0.828125 C 4.0625 0.828125 4.0625 0.640625 4.0625 0.5 Z M 4.0625 -2.28125 "/>
</g>
<g id="glyph-3-0">
<path d="M 6.53125 -2.28125 C 6.703125 -2.28125 6.890625 -2.28125 6.890625 -2.484375 C 6.890625 -2.671875 6.703125 -2.671875 6.53125 -2.671875 L 1.171875 -2.671875 C 1 -2.671875 0.828125 -2.671875 0.828125 -2.484375 C 0.828125 -2.28125 1 -2.28125 1.171875 -2.28125 Z M 6.53125 -2.28125 "/>
</g>
</g>
<clipPath id="clip-0">
<path clip-rule="nonzero" d="M 74 0.171875 L 75 0.171875 L 75 16 L 74 16 Z M 74 0.171875 "/>
</clipPath>
<clipPath id="clip-1">
<path clip-rule="nonzero" d="M 48 0.171875 L 75 0.171875 L 75 37 L 48 37 Z M 48 0.171875 "/>
</clipPath>
<clipPath id="clip-2">
<path clip-rule="nonzero" d="M 68 80 L 81 80 L 81 86.769531 L 68 86.769531 Z M 68 80 "/>
</clipPath>
<clipPath id="clip-3">
<path clip-rule="nonzero" d="M 14 0.171875 L 16 0.171875 L 16 82 L 14 82 Z M 14 0.171875 "/>
</clipPath>
<clipPath id="clip-4">
<path clip-rule="nonzero" d="M 14 0.171875 L 50 0.171875 L 50 1 L 14 1 Z M 14 0.171875 "/>
</clipPath>
<clipPath id="clip-5">
<path clip-rule="nonzero" d="M 9 80 L 22 80 L 22 86.769531 L 9 86.769531 Z M 9 80 "/>
</clipPath>
</defs>
<path fill="none" stroke-width="0.79701" stroke-linecap="butt" stroke-linejoin="miter" stroke="rgb(0%, 0%, 0%)" stroke-opacity="1" stroke-miterlimit="10" d="M -0.000281013 44.051295 L -0.000281013 30.556295 L -11.906481 25.09945 " transform="matrix(0.995739, 0, 0, -0.995739, 74.402624, 58.148754)"/>
<path fill="none" stroke-width="1.59404" stroke-linecap="butt" stroke-linejoin="miter" stroke="rgb(0%, 0%, 0%)" stroke-opacity="1" stroke-miterlimit="10" d="M -11.906481 30.556295 L -11.906481 13.095176 " transform="matrix(0.995739, 0, 0, -0.995739, 74.402624, 58.148754)"/>
<path fill="none" stroke-width="0.79701" stroke-linecap="butt" stroke-linejoin="miter" stroke="rgb(0%, 0%, 0%)" stroke-opacity="1" stroke-miterlimit="10" d="M -11.906481 18.552021 L -0.000281013 13.095176 L -0.000281013 -0.399824 " transform="matrix(0.995739, 0, 0, -0.995739, 74.402624, 58.148754)"/>
<path fill-rule="nonzero" fill="rgb(0%, 0%, 0%)" fill-opacity="1" d="M 66.542969 41.503906 L 67.617188 39.160156 L 71.976562 43.996094 L 65.46875 43.851562 Z M 66.542969 41.503906 "/>
<path fill="none" stroke-width="0.79701" stroke-linecap="butt" stroke-linejoin="miter" stroke="rgb(0%, 0%, 0%)" stroke-opacity="1" stroke-miterlimit="10" d="M -11.906481 21.827697 L -24.2089 21.827697 " transform="matrix(0.995739, 0, 0, -0.995739, 74.402624, 58.148754)"/>
<g clip-path="url(#clip-0)">
<path fill="none" stroke-width="0.79701" stroke-linecap="butt" stroke-linejoin="miter" stroke="rgb(0%, 0%, 0%)" stroke-opacity="1" stroke-miterlimit="10" d="M -0.000281013 43.655076 L -0.000281013 57.828749 " transform="matrix(0.995739, 0, 0, -0.995739, 74.402624, 58.148754)"/>
</g>
<g clip-path="url(#clip-1)">
<path fill="none" stroke-width="0.79701" stroke-linecap="butt" stroke-linejoin="miter" stroke="rgb(0%, 0%, 0%)" stroke-opacity="1" stroke-miterlimit="10" d="M -0.000281013 57.828749 L -25.511324 57.828749 L -25.511324 21.827697 L -16.723882 21.827697 L -23.81268 21.827697 " transform="matrix(0.995739, 0, 0, -0.995739, 74.402624, 58.148754)"/>
</g>
<path fill="none" stroke-width="0.79701" stroke-linecap="butt" stroke-linejoin="miter" stroke="rgb(0%, 0%, 0%)" stroke-opacity="1" stroke-miterlimit="10" d="M -0.000281013 0.000318291 L -0.000281013 -22.678344 " transform="matrix(0.995739, 0, 0, -0.995739, 74.402624, 58.148754)"/>
<g clip-path="url(#clip-2)">
<path fill="none" stroke-width="0.79701" stroke-linecap="butt" stroke-linejoin="miter" stroke="rgb(0%, 0%, 0%)" stroke-opacity="1" stroke-miterlimit="10" d="M -5.668966 -22.678344 L -0.000281013 -22.678344 M -0.000281013 -22.678344 L 5.668404 -22.678344 M -2.836585 -25.510725 L -0.000281013 -25.510725 M -0.000281013 -25.510725 L 2.836023 -25.510725 M -1.416471 -28.347029 L -0.000281013 -28.347029 M -0.000281013 -28.347029 L 1.415909 -28.347029 " transform="matrix(0.995739, 0, 0, -0.995739, 74.402624, 58.148754)"/>
</g>
<g clip-path="url(#clip-3)">
<path fill="none" stroke-width="0.79701" stroke-linecap="butt" stroke-linejoin="miter" stroke="rgb(0%, 0%, 0%)" stroke-opacity="1" stroke-miterlimit="10" d="M -59.527356 57.828749 L -59.527356 29.481402 M -59.527356 5.669003 L -59.527356 -22.678344 " transform="matrix(0.995739, 0, 0, -0.995739, 74.402624, 58.148754)"/>
</g>
<path fill="none" stroke-width="1.59404" stroke-linecap="butt" stroke-linejoin="miter" stroke="rgb(0%, 0%, 0%)" stroke-opacity="1" stroke-miterlimit="10" d="M -47.621156 17.575203 C -47.621156 11.000313 -52.952466 5.669003 -59.527356 5.669003 C -66.102245 5.669003 -71.433555 11.000313 -71.433555 17.575203 C -71.433555 24.150092 -66.102245 29.481402 -59.527356 29.481402 C -52.952466 29.481402 -47.621156 24.150092 -47.621156 17.575203 Z M -47.621156 17.575203 " transform="matrix(0.995739, 0, 0, -0.995739, 74.402624, 58.148754)"/>
<path fill="none" stroke-width="1.59404" stroke-linecap="butt" stroke-linejoin="miter" stroke="rgb(0%, 0%, 0%)" stroke-opacity="1" stroke-miterlimit="10" d="M -59.527356 9.242824 L -59.527356 25.907581 " transform="matrix(0.995739, 0, 0, -0.995739, 74.402624, 58.148754)"/>
<path fill-rule="nonzero" fill="rgb(0%, 0%, 0%)" fill-opacity="1" stroke-width="1.59404" stroke-linecap="butt" stroke-linejoin="miter" stroke="rgb(0%, 0%, 0%)" stroke-opacity="1" stroke-miterlimit="10" d="M -59.527356 21.79239 L -61.512376 21.79239 L -59.527356 26.009578 L -57.542335 21.79239 Z M -59.527356 21.79239 " transform="matrix(0.995739, 0, 0, -0.995739, 74.402624, 58.148754)"/>
<g fill="rgb(0%, 0%, 0%)" fill-opacity="1">
<use xlink:href="#glyph-0-0" x="29.843297" y="42.881086"/>
</g>
<g fill="rgb(0%, 0%, 0%)" fill-opacity="1">
<use xlink:href="#glyph-1-0" x="34.203639" y="44.368721"/>
</g>
<g clip-path="url(#clip-4)">
<path fill="none" stroke-width="0.79701" stroke-linecap="butt" stroke-linejoin="miter" stroke="rgb(0%, 0%, 0%)" stroke-opacity="1" stroke-miterlimit="10" d="M -59.527356 57.828749 L -25.511324 57.828749 " transform="matrix(0.995739, 0, 0, -0.995739, 74.402624, 58.148754)"/>
</g>
<g clip-path="url(#clip-5)">
<path fill="none" stroke-width="0.79701" stroke-linecap="butt" stroke-linejoin="miter" stroke="rgb(0%, 0%, 0%)" stroke-opacity="1" stroke-miterlimit="10" d="M -65.19604 -22.678344 L -59.527356 -22.678344 M -59.527356 -22.678344 L -53.858671 -22.678344 M -62.363659 -25.510725 L -59.527356 -25.510725 M -59.527356 -25.510725 L -56.694975 -25.510725 M -60.947469 -28.347029 L -59.527356 -28.347029 M -59.527356 -28.347029 L -58.111165 -28.347029 " transform="matrix(0.995739, 0, 0, -0.995739, 74.402624, 58.148754)"/>
</g>
<g fill="rgb(0%, 0%, 0%)" fill-opacity="1">
<use xlink:href="#glyph-2-0" x="98.770352" y="15.023293"/>
</g>
<g fill="rgb(0%, 0%, 0%)" fill-opacity="1">
<use xlink:href="#glyph-3-0" x="98.770352" y="71.234758"/>
</g>
<g fill="rgb(0%, 0%, 0%)" fill-opacity="1">
<use xlink:href="#glyph-0-1" x="93.21811" y="43.294318"/>
</g>
<g fill="rgb(0%, 0%, 0%)" fill-opacity="1">
<use xlink:href="#glyph-1-1" x="99.00435" y="44.781952"/>
</g>
<g fill="rgb(0%, 0%, 0%)" fill-opacity="1">
<use xlink:href="#glyph-1-2" x="105.338745" y="44.781952"/>
</g>
</svg>
