<?xml version="1.0" encoding="UTF-8"?>
<svg xmlns="http://www.w3.org/2000/svg" xmlns:xlink="http://www.w3.org/1999/xlink" width="283.756pt" height="363.97pt" viewBox="0 0 283.756 363.97">
<defs>
<g>
<g id="glyph-0-0">
<path d="M 5.1875 0.09375 L 5.1875 -4.359375 C 5.1875 -4.875 5.265625 -5.1875 5.421875 -5.296875 C 5.546875 -5.375 5.671875 -5.40625 5.984375 -5.453125 L 5.984375 -5.609375 L 4 -5.609375 L 4 -5.453125 C 4.3125 -5.421875 4.4375 -5.390625 4.5625 -5.3125 C 4.734375 -5.1875 4.8125 -4.890625 4.8125 -4.359375 L 4.8125 -1.5 L 1.546875 -5.609375 L 0.109375 -5.609375 L 0.109375 -5.453125 C 0.46875 -5.453125 0.578125 -5.375 0.921875 -4.984375 L 0.921875 -1.25 C 0.921875 -0.375 0.796875 -0.21875 0.109375 -0.15625 L 0.109375 0 L 2.09375 0 L 2.09375 -0.15625 C 1.4375 -0.1875 1.296875 -0.390625 1.296875 -1.25 L 1.296875 -4.5625 L 5.03125 0.09375 Z M 5.1875 0.09375 "/>
</g>
<g id="glyph-0-1">
<path d="M 5.703125 -4.859375 L 5.703125 -1.015625 C 5.703125 -0.3125 5.609375 -0.203125 4.9375 -0.15625 L 4.9375 0 L 7.3125 0 L 7.3125 -0.15625 C 6.6875 -0.203125 6.578125 -0.328125 6.578125 -0.921875 L 6.578125 -4.6875 C 6.578125 -5.28125 6.6875 -5.390625 7.3125 -5.453125 L 7.3125 -5.609375 L 5.625 -5.609375 L 3.75 -1.328125 L 1.796875 -5.609375 L 0.125 -5.609375 L 0.125 -5.453125 C 0.8125 -5.40625 0.921875 -5.296875 0.921875 -4.6875 L 0.921875 -1.25 C 0.921875 -0.375 0.796875 -0.21875 0.109375 -0.15625 L 0.109375 0 L 2.09375 0 L 2.09375 -0.15625 C 1.4375 -0.1875 1.296875 -0.390625 1.296875 -1.25 L 1.296875 -4.65625 L 3.421875 0 L 3.546875 0 Z M 5.703125 -4.859375 "/>
</g>
<g id="glyph-0-2">
<path d="M 3.0625 -5.71875 C 1.4375 -5.71875 0.28125 -4.5 0.28125 -2.796875 C 0.28125 -2 0.5625 -1.234375 1.015625 -0.75 C 1.5 -0.21875 2.265625 0.125 3 0.125 C 4.671875 0.125 5.828125 -1.0625 5.828125 -2.765625 C 5.828125 -3.609375 5.578125 -4.328125 5.109375 -4.828125 C 4.578125 -5.421875 3.875 -5.71875 3.0625 -5.71875 Z M 3.0625 -5.421875 C 3.453125 -5.421875 3.84375 -5.265625 4.140625 -5 C 4.59375 -4.578125 4.859375 -3.78125 4.859375 -2.78125 C 4.859375 -2.28125 4.75 -1.6875 4.578125 -1.25 C 4.5 -1.046875 4.359375 -0.828125 4.171875 -0.640625 C 3.875 -0.34375 3.484375 -0.1875 3.046875 -0.1875 C 2.65625 -0.1875 2.265625 -0.34375 1.96875 -0.59375 C 1.53125 -0.984375 1.25 -1.84375 1.25 -2.78125 C 1.25 -3.65625 1.484375 -4.46875 1.84375 -4.875 C 2.171875 -5.234375 2.59375 -5.421875 3.0625 -5.421875 Z M 3.0625 -5.421875 "/>
</g>
<g id="glyph-0-3">
<path d="M 3.78125 -5.71875 L 3.609375 -5.71875 C 3.578125 -5.53125 3.484375 -5.4375 3.34375 -5.4375 C 3.25 -5.4375 3.109375 -5.46875 2.96875 -5.53125 C 2.65625 -5.65625 2.34375 -5.71875 2.0625 -5.71875 C 1.703125 -5.71875 1.328125 -5.578125 1.046875 -5.328125 C 0.75 -5.078125 0.59375 -4.71875 0.59375 -4.28125 C 0.59375 -3.59375 0.96875 -3.125 1.921875 -2.625 C 2.53125 -2.296875 2.96875 -1.953125 3.1875 -1.640625 C 3.265625 -1.53125 3.296875 -1.34375 3.296875 -1.140625 C 3.296875 -0.578125 2.875 -0.1875 2.265625 -0.1875 C 1.5 -0.1875 0.96875 -0.65625 0.546875 -1.6875 L 0.359375 -1.6875 L 0.609375 0.109375 L 0.796875 0.109375 C 0.796875 -0.046875 0.90625 -0.171875 1.03125 -0.171875 C 1.125 -0.171875 1.265625 -0.140625 1.4375 -0.078125 C 1.75 0.046875 2.09375 0.125 2.4375 0.125 C 3.40625 0.125 4.15625 -0.546875 4.15625 -1.421875 C 4.15625 -2.125 3.6875 -2.671875 2.578125 -3.265625 C 1.6875 -3.765625 1.328125 -4.125 1.328125 -4.59375 C 1.328125 -5.0625 1.6875 -5.375 2.203125 -5.375 C 2.59375 -5.375 2.953125 -5.21875 3.25 -4.90625 C 3.5 -4.640625 3.625 -4.421875 3.765625 -3.921875 L 3.96875 -3.921875 Z M 3.78125 -5.71875 "/>
</g>
<g id="glyph-0-4">
<path d="M 0.0625 -3.296875 C 0.171875 -3.328125 0.25 -3.34375 0.359375 -3.34375 C 0.5625 -3.34375 0.640625 -3.203125 0.640625 -2.828125 L 0.640625 -0.71875 C 0.640625 -0.28125 0.578125 -0.234375 0.046875 -0.125 L 0.046875 0 L 2.078125 0 L 2.078125 -0.125 C 1.5 -0.15625 1.359375 -0.28125 1.359375 -0.765625 L 1.359375 -2.671875 C 1.359375 -2.9375 1.71875 -3.359375 1.953125 -3.359375 C 2 -3.359375 2.078125 -3.3125 2.171875 -3.234375 C 2.296875 -3.109375 2.390625 -3.0625 2.5 -3.0625 C 2.703125 -3.0625 2.84375 -3.203125 2.84375 -3.453125 C 2.84375 -3.71875 2.65625 -3.890625 2.375 -3.890625 C 2.015625 -3.890625 1.765625 -3.703125 1.359375 -3.09375 L 1.359375 -3.875 L 1.3125 -3.890625 C 0.859375 -3.703125 0.5625 -3.59375 0.0625 -3.4375 Z M 0.0625 -3.296875 "/>
</g>
<g id="glyph-0-5">
<path d="M 3.75 -0.5625 C 3.59375 -0.4375 3.5 -0.390625 3.375 -0.390625 C 3.171875 -0.390625 3.109375 -0.515625 3.109375 -0.890625 L 3.109375 -2.546875 C 3.109375 -2.984375 3.078125 -3.234375 2.953125 -3.4375 C 2.765625 -3.734375 2.390625 -3.890625 1.890625 -3.890625 C 1.09375 -3.890625 0.46875 -3.484375 0.46875 -2.953125 C 0.46875 -2.75 0.640625 -2.578125 0.84375 -2.578125 C 1.046875 -2.578125 1.21875 -2.75 1.21875 -2.9375 C 1.21875 -2.96875 1.21875 -3.015625 1.203125 -3.078125 C 1.1875 -3.15625 1.171875 -3.21875 1.171875 -3.28125 C 1.171875 -3.5 1.453125 -3.6875 1.78125 -3.6875 C 2.203125 -3.6875 2.4375 -3.453125 2.4375 -2.984375 L 2.4375 -2.46875 C 1.125 -1.953125 0.984375 -1.875 0.625 -1.5625 C 0.4375 -1.390625 0.3125 -1.09375 0.3125 -0.828125 C 0.3125 -0.28125 0.6875 0.078125 1.203125 0.078125 C 1.578125 0.078125 1.921875 -0.09375 2.4375 -0.53125 C 2.484375 -0.09375 2.640625 0.078125 2.984375 0.078125 C 3.265625 0.078125 3.453125 -0.015625 3.75 -0.34375 Z M 2.4375 -1.046875 C 2.4375 -0.78125 2.390625 -0.703125 2.203125 -0.59375 C 2 -0.484375 1.765625 -0.40625 1.59375 -0.40625 C 1.296875 -0.40625 1.0625 -0.6875 1.0625 -1.0625 L 1.0625 -1.09375 C 1.0625 -1.59375 1.40625 -1.890625 2.4375 -2.265625 Z M 2.4375 -1.046875 "/>
</g>
<g id="glyph-0-6">
<path d="M 1.484375 -3.890625 L 0.171875 -3.4375 L 0.171875 -3.296875 L 0.234375 -3.3125 C 0.34375 -3.328125 0.453125 -3.34375 0.53125 -3.34375 C 0.734375 -3.34375 0.796875 -3.203125 0.796875 -2.828125 L 0.796875 -0.859375 C 0.796875 -0.25 0.71875 -0.15625 0.140625 -0.125 L 0.140625 0 L 2.140625 0 L 2.140625 -0.125 C 1.578125 -0.171875 1.515625 -0.25 1.515625 -0.859375 L 1.515625 -3.875 Z M 1.078125 -5.78125 C 0.859375 -5.78125 0.65625 -5.59375 0.65625 -5.359375 C 0.65625 -5.109375 0.84375 -4.921875 1.078125 -4.921875 C 1.328125 -4.921875 1.53125 -5.109375 1.53125 -5.359375 C 1.53125 -5.59375 1.328125 -5.78125 1.078125 -5.78125 Z M 1.078125 -5.78125 "/>
</g>
<g id="glyph-0-7">
<path d="M 0.15625 -5.28125 L 0.21875 -5.28125 C 0.3125 -5.28125 0.40625 -5.296875 0.46875 -5.296875 C 0.75 -5.296875 0.828125 -5.171875 0.828125 -4.78125 L 0.828125 -0.734375 C 0.828125 -0.28125 0.71875 -0.171875 0.171875 -0.125 L 0.171875 0 L 2.171875 0 L 2.171875 -0.125 C 1.640625 -0.15625 1.546875 -0.25 1.546875 -0.71875 L 1.546875 -5.765625 L 1.5 -5.78125 C 1.0625 -5.640625 0.75 -5.5625 0.15625 -5.40625 Z M 0.15625 -5.28125 "/>
</g>
<g id="glyph-0-8">
<path d="M 1.703125 -2.46875 C 1.9375 -2.453125 2.078125 -2.4375 2.296875 -2.4375 C 2.953125 -2.4375 3.40625 -2.53125 3.78125 -2.734375 C 4.28125 -3 4.59375 -3.515625 4.59375 -4.078125 C 4.59375 -4.421875 4.46875 -4.75 4.25 -5 C 3.90625 -5.375 3.171875 -5.609375 2.375 -5.609375 L 0.140625 -5.609375 L 0.140625 -5.453125 C 0.765625 -5.375 0.84375 -5.296875 0.84375 -4.6875 L 0.84375 -1.015625 C 0.84375 -0.3125 0.78125 -0.21875 0.140625 -0.15625 L 0.140625 0 L 2.5 0 L 2.5 -0.15625 C 1.84375 -0.1875 1.703125 -0.3125 1.703125 -0.921875 Z M 1.703125 -5 C 1.703125 -5.234375 1.765625 -5.296875 2 -5.296875 C 3.140625 -5.296875 3.671875 -4.890625 3.671875 -4.015625 C 3.671875 -3.203125 3.171875 -2.78125 2.1875 -2.78125 C 2.03125 -2.78125 1.90625 -2.78125 1.703125 -2.796875 Z M 1.703125 -5 "/>
</g>
<g id="glyph-1-0">
<path d="M 4.3125 -3.421875 C 4.296875 -3.453125 4.265625 -3.515625 4.265625 -3.546875 C 4.265625 -3.546875 4.421875 -3.671875 4.515625 -3.734375 L 6 -4.875 C 6.796875 -5.46875 7.125 -5.5 7.375 -5.515625 C 7.4375 -5.53125 7.53125 -5.53125 7.53125 -5.6875 C 7.53125 -5.71875 7.5 -5.78125 7.4375 -5.78125 C 7.25 -5.78125 7.03125 -5.765625 6.828125 -5.765625 C 6.53125 -5.765625 6.203125 -5.78125 5.890625 -5.78125 C 5.828125 -5.78125 5.734375 -5.78125 5.734375 -5.609375 C 5.734375 -5.5625 5.78125 -5.53125 5.828125 -5.515625 C 6.015625 -5.5 6.09375 -5.46875 6.09375 -5.34375 C 6.09375 -5.1875 5.84375 -5 5.796875 -4.953125 L 2.484375 -2.40625 L 3.171875 -5.125 C 3.25 -5.4375 3.265625 -5.515625 3.875 -5.515625 C 4.09375 -5.515625 4.171875 -5.515625 4.171875 -5.6875 C 4.171875 -5.765625 4.09375 -5.78125 4.046875 -5.78125 C 3.8125 -5.78125 3.203125 -5.765625 2.96875 -5.765625 C 2.71875 -5.765625 2.125 -5.78125 1.875 -5.78125 C 1.8125 -5.78125 1.703125 -5.78125 1.703125 -5.625 C 1.703125 -5.515625 1.78125 -5.515625 1.953125 -5.515625 C 2.0625 -5.515625 2.203125 -5.515625 2.3125 -5.5 C 2.453125 -5.484375 2.5 -5.46875 2.5 -5.375 C 2.5 -5.328125 2.484375 -5.3125 2.46875 -5.203125 L 1.328125 -0.65625 C 1.25 -0.328125 1.234375 -0.265625 0.5625 -0.265625 C 0.421875 -0.265625 0.328125 -0.265625 0.328125 -0.109375 C 0.328125 0 0.421875 0 0.453125 0 C 0.6875 0 1.28125 -0.03125 1.53125 -0.03125 C 1.703125 -0.03125 1.890625 -0.015625 2.0625 -0.015625 C 2.25 -0.015625 2.4375 0 2.609375 0 C 2.671875 0 2.78125 0 2.78125 -0.171875 C 2.78125 -0.265625 2.703125 -0.265625 2.546875 -0.265625 C 2.234375 -0.265625 2 -0.265625 2 -0.421875 C 2 -0.46875 2.046875 -0.65625 2.078125 -0.78125 C 2.1875 -1.234375 2.296875 -1.671875 2.40625 -2.125 L 3.671875 -3.09375 L 4.65625 -0.828125 C 4.765625 -0.59375 4.765625 -0.578125 4.765625 -0.53125 C 4.765625 -0.265625 4.390625 -0.265625 4.3125 -0.265625 C 4.21875 -0.265625 4.125 -0.265625 4.125 -0.09375 C 4.125 0 4.234375 0 4.25 0 C 4.59375 0 4.953125 -0.03125 5.28125 -0.03125 C 5.46875 -0.03125 5.921875 0 6.109375 0 C 6.15625 0 6.265625 0 6.265625 -0.171875 C 6.265625 -0.265625 6.171875 -0.265625 6.09375 -0.265625 C 5.75 -0.265625 5.640625 -0.34375 5.515625 -0.640625 Z M 4.3125 -3.421875 "/>
</g>
<g id="glyph-2-0">
<path d="M 3.296875 -2.359375 L 1.59375 -4.046875 C 1.5 -4.140625 1.484375 -4.15625 1.421875 -4.15625 C 1.328125 -4.15625 1.25 -4.078125 1.25 -3.984375 C 1.25 -3.921875 1.265625 -3.90625 1.359375 -3.8125 L 3.046875 -2.125 L 1.359375 -0.421875 C 1.265625 -0.328125 1.25 -0.3125 1.25 -0.25 C 1.25 -0.15625 1.328125 -0.078125 1.421875 -0.078125 C 1.484375 -0.078125 1.5 -0.09375 1.59375 -0.1875 L 3.28125 -1.875 L 5.03125 -0.125 C 5.0625 -0.125 5.109375 -0.078125 5.171875 -0.078125 C 5.265625 -0.078125 5.328125 -0.15625 5.328125 -0.25 C 5.328125 -0.265625 5.328125 -0.296875 5.3125 -0.34375 C 5.296875 -0.359375 3.953125 -1.6875 3.53125 -2.125 L 5.078125 -3.671875 C 5.125 -3.71875 5.25 -3.828125 5.296875 -3.875 C 5.296875 -3.890625 5.328125 -3.921875 5.328125 -3.984375 C 5.328125 -4.078125 5.265625 -4.15625 5.171875 -4.15625 C 5.09375 -4.15625 5.0625 -4.125 4.96875 -4.03125 Z M 3.296875 -2.359375 "/>
</g>
<g id="glyph-3-0">
<path d="M 3.734375 -6.125 C 3.796875 -6.359375 3.828125 -6.453125 4.015625 -6.484375 C 4.109375 -6.5 4.421875 -6.5 4.625 -6.5 C 5.328125 -6.5 6.4375 -6.5 6.4375 -5.515625 C 6.4375 -5.171875 6.28125 -4.484375 5.890625 -4.09375 C 5.625 -3.84375 5.109375 -3.515625 4.203125 -3.515625 L 3.09375 -3.515625 Z M 5.171875 -3.390625 C 6.1875 -3.609375 7.359375 -4.3125 7.359375 -5.3125 C 7.359375 -6.171875 6.46875 -6.8125 5.15625 -6.8125 L 2.328125 -6.8125 C 2.125 -6.8125 2.03125 -6.8125 2.03125 -6.609375 C 2.03125 -6.5 2.125 -6.5 2.3125 -6.5 C 2.328125 -6.5 2.515625 -6.5 2.6875 -6.484375 C 2.875 -6.453125 2.953125 -6.453125 2.953125 -6.3125 C 2.953125 -6.28125 2.953125 -6.25 2.921875 -6.125 L 1.578125 -0.78125 C 1.484375 -0.390625 1.46875 -0.3125 0.671875 -0.3125 C 0.5 -0.3125 0.40625 -0.3125 0.40625 -0.109375 C 0.40625 0 0.53125 0 0.546875 0 C 0.828125 0 1.53125 -0.03125 1.796875 -0.03125 C 2.078125 -0.03125 2.796875 0 3.078125 0 C 3.15625 0 3.265625 0 3.265625 -0.203125 C 3.265625 -0.3125 3.1875 -0.3125 2.984375 -0.3125 C 2.625 -0.3125 2.34375 -0.3125 2.34375 -0.484375 C 2.34375 -0.546875 2.359375 -0.59375 2.375 -0.65625 L 3.03125 -3.296875 L 4.21875 -3.296875 C 5.125 -3.296875 5.296875 -2.734375 5.296875 -2.390625 C 5.296875 -2.25 5.21875 -1.9375 5.15625 -1.703125 C 5.09375 -1.421875 5 -1.0625 5 -0.859375 C 5 0.21875 6.203125 0.21875 6.328125 0.21875 C 7.171875 0.21875 7.53125 -0.78125 7.53125 -0.921875 C 7.53125 -1.046875 7.421875 -1.046875 7.40625 -1.046875 C 7.3125 -1.046875 7.296875 -0.984375 7.28125 -0.90625 C 7.03125 -0.171875 6.59375 0 6.375 0 C 6.046875 0 5.96875 -0.21875 5.96875 -0.609375 C 5.96875 -0.921875 6.03125 -1.421875 6.078125 -1.75 C 6.09375 -1.890625 6.109375 -2.078125 6.109375 -2.21875 C 6.109375 -2.984375 5.4375 -3.296875 5.171875 -3.390625 Z M 5.171875 -3.390625 "/>
</g>
<g id="glyph-4-0">
<path d="M 3.359375 -5.4375 C 3.4375 -5.765625 3.46875 -5.84375 4.171875 -5.84375 C 4.390625 -5.84375 4.453125 -5.84375 4.453125 -6.015625 C 4.453125 -6.125 4.359375 -6.125 4.328125 -6.125 C 4.0625 -6.125 3.40625 -6.09375 3.140625 -6.09375 C 2.875 -6.09375 2.21875 -6.125 1.953125 -6.125 C 1.890625 -6.125 1.765625 -6.125 1.765625 -5.953125 C 1.765625 -5.84375 1.84375 -5.84375 2.015625 -5.84375 C 2.390625 -5.84375 2.640625 -5.84375 2.640625 -5.671875 C 2.640625 -5.625 2.640625 -5.609375 2.625 -5.53125 L 1.40625 -0.703125 C 1.328125 -0.375 1.296875 -0.28125 0.59375 -0.28125 C 0.390625 -0.28125 0.3125 -0.28125 0.3125 -0.09375 C 0.3125 0 0.40625 0 0.4375 0 C 0.703125 0 1.359375 -0.03125 1.609375 -0.03125 C 1.890625 -0.03125 2.546875 0 2.8125 0 C 2.890625 0 3 0 3 -0.171875 C 3 -0.28125 2.921875 -0.28125 2.71875 -0.28125 C 2.5625 -0.28125 2.515625 -0.28125 2.34375 -0.296875 C 2.15625 -0.3125 2.109375 -0.34375 2.109375 -0.453125 C 2.109375 -0.515625 2.140625 -0.59375 2.15625 -0.65625 Z M 3.359375 -5.4375 "/>
</g>
<g id="glyph-4-1">
<path d="M 8.3125 -5.4375 C 8.390625 -5.765625 8.40625 -5.84375 9.078125 -5.84375 C 9.28125 -5.84375 9.359375 -5.84375 9.359375 -6.03125 C 9.359375 -6.125 9.28125 -6.125 9.125 -6.125 L 7.9375 -6.125 C 7.703125 -6.125 7.6875 -6.125 7.59375 -5.953125 L 4.3125 -0.84375 L 3.609375 -5.921875 C 3.59375 -6.125 3.5625 -6.125 3.34375 -6.125 L 2.109375 -6.125 C 1.9375 -6.125 1.84375 -6.125 1.84375 -5.953125 C 1.84375 -5.84375 1.921875 -5.84375 2.09375 -5.84375 C 2.21875 -5.84375 2.375 -5.84375 2.484375 -5.828125 C 2.625 -5.8125 2.6875 -5.78125 2.6875 -5.6875 C 2.6875 -5.65625 2.671875 -5.625 2.640625 -5.515625 L 1.5 -0.953125 C 1.421875 -0.59375 1.265625 -0.3125 0.53125 -0.28125 C 0.5 -0.28125 0.375 -0.265625 0.375 -0.109375 C 0.375 -0.03125 0.4375 0 0.5 0 C 0.796875 0 1.109375 -0.03125 1.40625 -0.03125 C 1.703125 -0.03125 2.03125 0 2.328125 0 C 2.375 0 2.484375 0 2.484375 -0.171875 C 2.484375 -0.28125 2.390625 -0.28125 2.328125 -0.28125 C 1.8125 -0.28125 1.71875 -0.46875 1.71875 -0.671875 C 1.71875 -0.734375 1.71875 -0.78125 1.75 -0.875 L 2.96875 -5.765625 L 2.984375 -5.765625 L 3.75 -0.203125 C 3.765625 -0.09375 3.78125 0 3.890625 0 C 3.984375 0 4.03125 -0.09375 4.078125 -0.15625 L 7.703125 -5.84375 L 7.71875 -5.84375 L 6.4375 -0.703125 C 6.34375 -0.34375 6.328125 -0.28125 5.609375 -0.28125 C 5.46875 -0.28125 5.359375 -0.28125 5.359375 -0.109375 C 5.359375 0 5.46875 0 5.5 0 C 5.75 0 6.359375 -0.03125 6.609375 -0.03125 C 6.984375 -0.03125 7.359375 0 7.734375 0 C 7.78125 0 7.90625 0 7.90625 -0.171875 C 7.90625 -0.28125 7.828125 -0.28125 7.65625 -0.28125 C 7.3125 -0.28125 7.0625 -0.28125 7.0625 -0.4375 C 7.0625 -0.46875 7.0625 -0.5 7.109375 -0.65625 Z M 8.3125 -5.4375 "/>
</g>
<g id="glyph-5-0">
<path d="M 1.1875 -0.484375 C 1.140625 -0.28125 1.125 -0.21875 0.640625 -0.21875 C 0.515625 -0.21875 0.453125 -0.21875 0.453125 -0.09375 C 0.453125 0 0.515625 0 0.640625 0 L 2.875 0 C 4.265625 0 5.609375 -1.28125 5.609375 -2.65625 C 5.609375 -3.5625 4.96875 -4.296875 3.953125 -4.296875 L 1.671875 -4.296875 C 1.53125 -4.296875 1.46875 -4.296875 1.46875 -4.15625 C 1.46875 -4.0625 1.53125 -4.0625 1.671875 -4.0625 C 1.765625 -4.0625 1.796875 -4.0625 1.90625 -4.046875 C 2.03125 -4.03125 2.046875 -4.03125 2.046875 -3.96875 C 2.046875 -3.953125 2.046875 -3.921875 2.015625 -3.828125 Z M 2.59375 -3.84375 C 2.640625 -4.046875 2.65625 -4.0625 2.921875 -4.0625 L 3.71875 -4.0625 C 4.421875 -4.0625 5.015625 -3.71875 5.015625 -2.859375 C 5.015625 -2.71875 4.953125 -1.625 4.328125 -0.90625 C 4.078125 -0.625 3.53125 -0.21875 2.765625 -0.21875 L 1.90625 -0.21875 C 1.71875 -0.21875 1.703125 -0.234375 1.703125 -0.28125 C 1.703125 -0.296875 1.703125 -0.328125 1.734375 -0.421875 Z M 2.59375 -3.84375 "/>
</g>
<g id="glyph-5-1">
<path d="M 4.453125 -4.328125 C 4.453125 -4.359375 4.4375 -4.421875 4.375 -4.421875 C 4.34375 -4.421875 4.328125 -4.40625 4.25 -4.328125 L 3.9375 -3.96875 C 3.703125 -4.296875 3.3125 -4.421875 2.921875 -4.421875 C 2.046875 -4.421875 1.25 -3.703125 1.25 -2.984375 C 1.25 -2.890625 1.28125 -2.625 1.46875 -2.40625 C 1.671875 -2.140625 1.90625 -2.09375 2.34375 -1.984375 C 2.46875 -1.953125 2.78125 -1.890625 2.875 -1.859375 C 3.078125 -1.8125 3.453125 -1.671875 3.453125 -1.203125 C 3.453125 -0.703125 2.921875 -0.09375 2.203125 -0.09375 C 1.65625 -0.09375 0.984375 -0.296875 0.984375 -1 C 0.984375 -1.0625 1 -1.1875 1.03125 -1.3125 C 1.03125 -1.328125 1.03125 -1.34375 1.03125 -1.34375 C 1.03125 -1.421875 0.953125 -1.421875 0.921875 -1.421875 C 0.84375 -1.421875 0.828125 -1.40625 0.8125 -1.296875 L 0.484375 -0.046875 C 0.484375 -0.015625 0.46875 0.015625 0.46875 0.046875 C 0.46875 0.09375 0.5 0.125 0.5625 0.125 C 0.59375 0.125 0.609375 0.125 0.6875 0.03125 C 0.75 -0.03125 0.921875 -0.234375 0.984375 -0.3125 C 1.3125 0.046875 1.8125 0.125 2.1875 0.125 C 3.140625 0.125 3.90625 -0.6875 3.90625 -1.4375 C 3.90625 -1.703125 3.78125 -1.953125 3.65625 -2.109375 C 3.421875 -2.328125 3.328125 -2.359375 2.53125 -2.546875 C 2.390625 -2.578125 2.1875 -2.625 2.125 -2.640625 C 1.96875 -2.703125 1.703125 -2.859375 1.703125 -3.21875 C 1.703125 -3.71875 2.265625 -4.21875 2.921875 -4.21875 C 3.59375 -4.21875 3.921875 -3.828125 3.921875 -3.234375 C 3.921875 -3.15625 3.90625 -3.015625 3.90625 -2.953125 C 3.90625 -2.859375 3.96875 -2.859375 4 -2.859375 C 4.109375 -2.859375 4.109375 -2.890625 4.140625 -3 Z M 4.453125 -4.328125 "/>
</g>
<g id="glyph-5-2">
<path d="M 4.4375 -3.609375 C 4.5 -3.84375 4.609375 -4.046875 5.109375 -4.0625 C 5.140625 -4.0625 5.234375 -4.0625 5.234375 -4.203125 C 5.234375 -4.234375 5.203125 -4.296875 5.140625 -4.296875 C 4.9375 -4.296875 4.703125 -4.265625 4.484375 -4.265625 C 4.28125 -4.265625 4.015625 -4.296875 3.828125 -4.296875 C 3.796875 -4.296875 3.703125 -4.296875 3.703125 -4.15625 C 3.703125 -4.0625 3.78125 -4.0625 3.84375 -4.0625 C 4.140625 -4.0625 4.25 -3.96875 4.25 -3.8125 C 4.25 -3.78125 4.234375 -3.75 4.234375 -3.71875 C 4.140625 -3.3125 3.6875 -1.421875 3.59375 -1.21875 C 3.25 -0.421875 2.515625 -0.09375 2 -0.09375 C 1.578125 -0.09375 1.125 -0.3125 1.125 -0.9375 C 1.125 -1.09375 1.15625 -1.234375 1.1875 -1.375 L 1.796875 -3.796875 C 1.859375 -4.015625 1.859375 -4.0625 2.34375 -4.0625 C 2.453125 -4.0625 2.53125 -4.0625 2.53125 -4.203125 C 2.53125 -4.234375 2.515625 -4.296875 2.4375 -4.296875 C 2.25 -4.296875 1.796875 -4.265625 1.609375 -4.265625 C 1.5 -4.265625 1.28125 -4.265625 1.1875 -4.265625 C 1.0625 -4.28125 0.90625 -4.296875 0.78125 -4.296875 C 0.75 -4.296875 0.65625 -4.296875 0.65625 -4.15625 C 0.65625 -4.0625 0.734375 -4.0625 0.859375 -4.0625 C 0.859375 -4.0625 0.984375 -4.0625 1.09375 -4.046875 C 1.21875 -4.03125 1.234375 -4.03125 1.234375 -3.96875 C 1.234375 -3.921875 1.171875 -3.6875 1.140625 -3.546875 L 0.640625 -1.546875 C 0.578125 -1.296875 0.578125 -1.25 0.578125 -1.125 C 0.578125 -0.34375 1.21875 0.125 1.96875 0.125 C 2.84375 0.125 3.6875 -0.578125 3.890625 -1.40625 Z M 4.4375 -3.609375 "/>
</g>
<g id="glyph-6-0">
<path d="M 2.28125 -5.5625 L 2.28125 -1.078125 C 2.28125 -0.3125 2.171875 -0.21875 1.4375 -0.171875 L 1.4375 0 L 4.046875 0 L 4.046875 -0.171875 C 3.3125 -0.203125 3.1875 -0.328125 3.1875 -0.984375 L 3.1875 -5.5625 L 3.671875 -5.5625 C 4.703125 -5.5625 4.890625 -5.40625 5.109375 -4.40625 L 5.3125 -4.40625 L 5.265625 -5.9375 L 0.203125 -5.9375 L 0.15625 -4.40625 L 0.375 -4.40625 C 0.578125 -5.390625 0.796875 -5.5625 1.796875 -5.5625 Z M 2.28125 -5.5625 "/>
</g>
<g id="glyph-6-1">
<path d="M 1.40625 -3.078125 C 1.78125 -3.484375 2.046875 -3.640625 2.40625 -3.640625 C 2.859375 -3.640625 3.078125 -3.3125 3.078125 -2.6875 L 3.078125 -0.921875 C 3.078125 -0.3125 2.984375 -0.1875 2.46875 -0.140625 L 2.46875 0 L 4.375 0 L 4.375 -0.140625 C 3.890625 -0.21875 3.828125 -0.296875 3.828125 -0.921875 L 3.828125 -2.703125 C 3.828125 -3.640625 3.453125 -4.125 2.71875 -4.125 C 2.203125 -4.125 1.828125 -3.90625 1.40625 -3.375 L 1.40625 -6.09375 L 1.359375 -6.125 C 1.0625 -6.015625 0.828125 -5.953125 0.328125 -5.796875 L 0.09375 -5.734375 L 0.09375 -5.59375 C 0.125 -5.59375 0.15625 -5.59375 0.203125 -5.59375 C 0.578125 -5.59375 0.65625 -5.53125 0.65625 -5.140625 L 0.65625 -0.921875 C 0.65625 -0.28125 0.59375 -0.203125 0.078125 -0.140625 L 0.078125 0 L 2.015625 0 L 2.015625 -0.140625 C 1.5 -0.1875 1.40625 -0.296875 1.40625 -0.921875 Z M 1.40625 -3.078125 "/>
</g>
<g id="glyph-6-2">
<path d="M 3.65625 -1.46875 C 3.234375 -0.796875 2.84375 -0.53125 2.265625 -0.53125 C 1.765625 -0.53125 1.375 -0.796875 1.109375 -1.296875 C 0.953125 -1.640625 0.890625 -1.9375 0.875 -2.484375 L 3.625 -2.484375 C 3.5625 -3.0625 3.46875 -3.328125 3.25 -3.609375 C 2.984375 -3.9375 2.5625 -4.125 2.09375 -4.125 C 1.65625 -4.125 1.234375 -3.96875 0.890625 -3.65625 C 0.46875 -3.296875 0.21875 -2.65625 0.21875 -1.921875 C 0.21875 -0.6875 0.875 0.09375 1.90625 0.09375 C 2.75 0.09375 3.421875 -0.4375 3.796875 -1.40625 Z M 0.890625 -2.765625 C 0.984375 -3.46875 1.296875 -3.796875 1.84375 -3.796875 C 2.390625 -3.796875 2.59375 -3.546875 2.71875 -2.765625 Z M 0.890625 -2.765625 "/>
</g>
<g id="glyph-6-3">
<path d="M 0.171875 -5.59375 L 0.21875 -5.59375 C 0.328125 -5.59375 0.4375 -5.609375 0.5 -5.609375 C 0.796875 -5.609375 0.875 -5.484375 0.875 -5.0625 L 0.875 -0.78125 C 0.875 -0.296875 0.75 -0.171875 0.1875 -0.140625 L 0.1875 0 L 2.3125 0 L 2.3125 -0.140625 C 1.734375 -0.171875 1.625 -0.265625 1.625 -0.75 L 1.625 -6.109375 L 1.59375 -6.125 C 1.125 -5.96875 0.796875 -5.890625 0.171875 -5.734375 Z M 0.171875 -5.59375 "/>
</g>
<g id="glyph-6-4">
<path d="M 2.25 -4.125 C 1.078125 -4.125 0.265625 -3.265625 0.265625 -2.03125 C 0.265625 -0.8125 1.09375 0.09375 2.21875 0.09375 C 3.359375 0.09375 4.21875 -0.859375 4.21875 -2.09375 C 4.21875 -3.28125 3.390625 -4.125 2.25 -4.125 Z M 2.125 -3.875 C 2.875 -3.875 3.40625 -3.015625 3.40625 -1.78125 C 3.40625 -0.765625 3 -0.15625 2.328125 -0.15625 C 1.984375 -0.15625 1.65625 -0.375 1.46875 -0.734375 C 1.203125 -1.203125 1.0625 -1.828125 1.0625 -2.46875 C 1.0625 -3.3125 1.484375 -3.875 2.125 -3.875 Z M 2.125 -3.875 "/>
</g>
<g id="glyph-6-5">
<path d="M 0.078125 -3.53125 C 0.15625 -3.53125 0.21875 -3.53125 0.3125 -3.53125 C 0.609375 -3.53125 0.671875 -3.4375 0.671875 -3.015625 L 0.671875 1.171875 C 0.671875 1.640625 0.578125 1.734375 0.046875 1.796875 L 0.046875 1.953125 L 2.21875 1.953125 L 2.21875 1.78125 C 1.546875 1.78125 1.421875 1.671875 1.421875 1.109375 L 1.421875 -0.296875 C 1.734375 0 1.953125 0.09375 2.328125 0.09375 C 3.390625 0.09375 4.21875 -0.921875 4.21875 -2.21875 C 4.21875 -3.328125 3.59375 -4.125 2.71875 -4.125 C 2.21875 -4.125 1.828125 -3.90625 1.421875 -3.421875 L 1.421875 -4.109375 L 1.375 -4.125 C 0.890625 -3.9375 0.578125 -3.828125 0.078125 -3.671875 Z M 1.421875 -3 C 1.421875 -3.265625 1.921875 -3.59375 2.34375 -3.59375 C 3 -3.59375 3.4375 -2.90625 3.4375 -1.859375 C 3.4375 -0.875 3 -0.203125 2.359375 -0.203125 C 1.9375 -0.203125 1.421875 -0.515625 1.421875 -0.796875 Z M 1.421875 -3 "/>
</g>
<g id="glyph-6-6">
<path d="M 0.140625 -3.5625 C 0.203125 -3.59375 0.28125 -3.609375 0.390625 -3.609375 C 0.640625 -3.609375 0.71875 -3.46875 0.71875 -3.03125 L 0.71875 -0.8125 C 0.71875 -0.296875 0.625 -0.171875 0.15625 -0.140625 L 0.15625 0 L 2.0625 0 L 2.0625 -0.140625 C 1.609375 -0.171875 1.46875 -0.28125 1.46875 -0.59375 L 1.46875 -3.125 C 1.90625 -3.53125 2.09375 -3.625 2.390625 -3.625 C 2.828125 -3.625 3.046875 -3.359375 3.046875 -2.765625 L 3.046875 -0.890625 C 3.046875 -0.328125 2.9375 -0.171875 2.484375 -0.140625 L 2.484375 0 L 4.34375 0 L 4.34375 -0.140625 C 3.90625 -0.171875 3.796875 -0.28125 3.796875 -0.71875 L 3.796875 -2.78125 C 3.796875 -3.625 3.40625 -4.125 2.75 -4.125 C 2.328125 -4.125 2.046875 -3.96875 1.4375 -3.40625 L 1.4375 -4.109375 L 1.375 -4.125 C 0.9375 -3.96875 0.640625 -3.859375 0.140625 -3.71875 Z M 0.140625 -3.5625 "/>
</g>
<g id="glyph-6-7">
<path d="M 4.265625 -4.03125 L 3.046875 -4.03125 L 3.046875 -3.90625 C 3.34375 -3.90625 3.484375 -3.828125 3.484375 -3.671875 C 3.484375 -3.640625 3.46875 -3.59375 3.4375 -3.53125 L 2.578125 -1.046875 L 1.546875 -3.3125 C 1.484375 -3.4375 1.453125 -3.5625 1.453125 -3.65625 C 1.453125 -3.828125 1.59375 -3.890625 1.96875 -3.90625 L 1.96875 -4.03125 L 0.125 -4.03125 L 0.125 -3.90625 C 0.359375 -3.875 0.515625 -3.78125 0.578125 -3.625 L 1.609375 -1.421875 L 1.625 -1.34375 L 1.765625 -1.078125 C 2.015625 -0.625 2.15625 -0.3125 2.15625 -0.171875 C 2.15625 -0.03125 1.953125 0.53125 1.796875 0.796875 C 1.671875 1.03125 1.484375 1.203125 1.359375 1.203125 C 1.296875 1.203125 1.21875 1.1875 1.125 1.140625 C 0.953125 1.078125 0.8125 1.046875 0.65625 1.046875 C 0.453125 1.046875 0.265625 1.21875 0.265625 1.4375 C 0.265625 1.734375 0.5625 1.953125 0.9375 1.953125 C 1.53125 1.953125 1.96875 1.453125 2.453125 0.15625 L 3.828125 -3.5 C 3.953125 -3.78125 4.046875 -3.875 4.265625 -3.90625 Z M 4.265625 -4.03125 "/>
</g>
<g id="glyph-6-8">
<path d="M 2.828125 -2.8125 L 2.796875 -4.03125 L 2.6875 -4.03125 L 2.671875 -4.015625 C 2.59375 -3.953125 2.578125 -3.953125 2.546875 -3.953125 C 2.5 -3.953125 2.40625 -3.96875 2.3125 -4.015625 C 2.109375 -4.078125 1.90625 -4.109375 1.671875 -4.109375 C 0.96875 -4.109375 0.453125 -3.65625 0.453125 -3.015625 C 0.453125 -2.515625 0.75 -2.15625 1.5 -1.71875 L 2.03125 -1.421875 C 2.34375 -1.25 2.5 -1.03125 2.5 -0.75 C 2.5 -0.359375 2.203125 -0.109375 1.75 -0.109375 C 1.4375 -0.109375 1.171875 -0.21875 1 -0.421875 C 0.8125 -0.640625 0.71875 -0.859375 0.609375 -1.359375 L 0.46875 -1.359375 L 0.46875 0.03125 L 0.578125 0.03125 C 0.640625 -0.046875 0.6875 -0.078125 0.796875 -0.078125 C 0.875 -0.078125 1 -0.046875 1.203125 0 C 1.453125 0.046875 1.6875 0.09375 1.859375 0.09375 C 2.546875 0.09375 3.125 -0.4375 3.125 -1.0625 C 3.125 -1.5 2.90625 -1.796875 2.375 -2.125 L 1.40625 -2.703125 C 1.140625 -2.84375 1.015625 -3.0625 1.015625 -3.3125 C 1.015625 -3.671875 1.296875 -3.921875 1.703125 -3.921875 C 2.21875 -3.921875 2.484375 -3.609375 2.6875 -2.8125 Z M 2.828125 -2.8125 "/>
</g>
<g id="glyph-6-9">
<path d="M 3.96875 -0.59375 C 3.8125 -0.46875 3.703125 -0.421875 3.5625 -0.421875 C 3.359375 -0.421875 3.296875 -0.546875 3.296875 -0.9375 L 3.296875 -2.6875 C 3.296875 -3.15625 3.25 -3.421875 3.125 -3.625 C 2.921875 -3.953125 2.53125 -4.125 2.015625 -4.125 C 1.171875 -4.125 0.5 -3.6875 0.5 -3.125 C 0.5 -2.921875 0.6875 -2.734375 0.890625 -2.734375 C 1.109375 -2.734375 1.296875 -2.921875 1.296875 -3.109375 C 1.296875 -3.140625 1.28125 -3.1875 1.28125 -3.25 C 1.25 -3.34375 1.25 -3.40625 1.25 -3.46875 C 1.25 -3.71875 1.53125 -3.90625 1.890625 -3.90625 C 2.328125 -3.90625 2.578125 -3.65625 2.578125 -3.171875 L 2.578125 -2.625 C 1.1875 -2.0625 1.046875 -1.984375 0.65625 -1.65625 C 0.453125 -1.46875 0.328125 -1.171875 0.328125 -0.875 C 0.328125 -0.3125 0.71875 0.09375 1.28125 0.09375 C 1.671875 0.09375 2.03125 -0.09375 2.578125 -0.5625 C 2.625 -0.09375 2.796875 0.09375 3.15625 0.09375 C 3.46875 0.09375 3.65625 -0.015625 3.96875 -0.359375 Z M 2.578125 -1.109375 C 2.578125 -0.828125 2.53125 -0.75 2.34375 -0.640625 C 2.125 -0.515625 1.875 -0.4375 1.6875 -0.4375 C 1.375 -0.4375 1.125 -0.734375 1.125 -1.125 L 1.125 -1.15625 C 1.125 -1.6875 1.484375 -2.015625 2.578125 -2.40625 Z M 2.578125 -1.109375 "/>
</g>
<g id="glyph-6-10">
<path d="M 2.28125 -4.03125 L 1.375 -4.03125 L 1.375 -5.078125 C 1.375 -5.171875 1.375 -5.1875 1.3125 -5.1875 C 1.25 -5.109375 1.203125 -5.03125 1.140625 -4.9375 C 0.796875 -4.453125 0.40625 -4.015625 0.265625 -3.984375 C 0.171875 -3.921875 0.109375 -3.859375 0.109375 -3.8125 C 0.109375 -3.78125 0.125 -3.765625 0.15625 -3.75 L 0.625 -3.75 L 0.625 -1.046875 C 0.625 -0.296875 0.890625 0.09375 1.421875 0.09375 C 1.859375 0.09375 2.203125 -0.125 2.5 -0.59375 L 2.390625 -0.6875 C 2.203125 -0.46875 2.046875 -0.375 1.84375 -0.375 C 1.515625 -0.375 1.375 -0.625 1.375 -1.1875 L 1.375 -3.75 L 2.28125 -3.75 Z M 2.28125 -4.03125 "/>
</g>
<g id="glyph-6-11">
<path d="M 5.125 -4.03125 L 5.125 -3.90625 C 5.421875 -3.84375 5.515625 -3.78125 5.515625 -3.625 C 5.515625 -3.484375 5.46875 -3.28125 5.359375 -3.03125 L 4.5625 -1.046875 L 3.796875 -3.046875 C 3.65625 -3.46875 3.65625 -3.46875 3.65625 -3.578125 C 3.65625 -3.78125 3.75 -3.84375 4.171875 -3.90625 L 4.171875 -4.03125 L 2.34375 -4.03125 L 2.34375 -3.90625 C 2.6875 -3.859375 2.796875 -3.765625 2.96875 -3.28125 C 3.03125 -3.109375 3.09375 -2.9375 3.140625 -2.78125 L 2.328125 -1 L 1.4375 -3.34375 C 1.40625 -3.421875 1.390625 -3.515625 1.390625 -3.609375 C 1.390625 -3.796875 1.5 -3.859375 1.796875 -3.90625 L 1.796875 -4.03125 L 0.1875 -4.03125 L 0.1875 -3.90625 C 0.390625 -3.890625 0.46875 -3.796875 0.65625 -3.34375 L 1.875 -0.265625 C 1.984375 0 2.046875 0.125 2.109375 0.125 C 2.15625 0.125 2.21875 0.015625 2.328125 -0.21875 L 3.34375 -2.375 L 4.15625 -0.265625 C 4.28125 0.078125 4.3125 0.125 4.375 0.125 C 4.4375 0.125 4.46875 0.046875 4.625 -0.3125 L 5.859375 -3.421875 C 6.015625 -3.796875 6.046875 -3.84375 6.21875 -3.90625 L 6.21875 -4.03125 Z M 5.125 -4.03125 "/>
</g>
<g id="glyph-6-12">
<path d="M 1.375 -6.109375 L 1.328125 -6.125 C 0.953125 -5.984375 0.703125 -5.921875 0.28125 -5.796875 L 0.03125 -5.734375 L 0.03125 -5.59375 C 0.078125 -5.59375 0.109375 -5.59375 0.171875 -5.59375 C 0.53125 -5.59375 0.625 -5.515625 0.625 -5.140625 L 0.625 -0.484375 C 0.625 -0.203125 1.375 0.09375 2.09375 0.09375 C 3.28125 0.09375 4.203125 -0.890625 4.203125 -2.171875 C 4.203125 -3.28125 3.515625 -4.125 2.625 -4.125 C 2.078125 -4.125 1.546875 -3.796875 1.375 -3.359375 Z M 1.375 -2.890625 C 1.375 -3.234375 1.796875 -3.5625 2.265625 -3.5625 C 2.953125 -3.5625 3.40625 -2.859375 3.40625 -1.765625 C 3.40625 -0.765625 2.984375 -0.203125 2.25 -0.203125 C 1.78125 -0.203125 1.375 -0.40625 1.375 -0.625 Z M 1.375 -2.890625 "/>
</g>
<g id="glyph-6-13">
<path d="M 0.0625 -3.5 C 0.1875 -3.53125 0.265625 -3.53125 0.375 -3.53125 C 0.59375 -3.53125 0.6875 -3.390625 0.6875 -3 L 0.6875 -0.75 C 0.6875 -0.3125 0.625 -0.234375 0.046875 -0.140625 L 0.046875 0 L 2.203125 0 L 2.203125 -0.140625 C 1.59375 -0.15625 1.4375 -0.296875 1.4375 -0.8125 L 1.4375 -2.828125 C 1.4375 -3.109375 1.828125 -3.5625 2.0625 -3.5625 C 2.109375 -3.5625 2.203125 -3.515625 2.296875 -3.421875 C 2.4375 -3.296875 2.53125 -3.25 2.65625 -3.25 C 2.875 -3.25 3 -3.40625 3 -3.65625 C 3 -3.953125 2.8125 -4.125 2.515625 -4.125 C 2.140625 -4.125 1.875 -3.921875 1.4375 -3.28125 L 1.4375 -4.109375 L 1.390625 -4.125 C 0.921875 -3.921875 0.59375 -3.8125 0.0625 -3.640625 Z M 0.0625 -3.5 "/>
</g>
<g id="glyph-6-14">
<path d="M 3.5625 -1.40625 C 3.140625 -0.765625 2.8125 -0.5625 2.3125 -0.5625 C 1.484375 -0.5625 0.921875 -1.28125 0.921875 -2.3125 C 0.921875 -3.234375 1.40625 -3.859375 2.140625 -3.859375 C 2.453125 -3.859375 2.578125 -3.765625 2.65625 -3.4375 L 2.71875 -3.234375 C 2.796875 -2.984375 2.953125 -2.828125 3.140625 -2.828125 C 3.375 -2.828125 3.5625 -3 3.5625 -3.203125 C 3.5625 -3.703125 2.9375 -4.125 2.1875 -4.125 C 1.75 -4.125 1.296875 -3.953125 0.921875 -3.625 C 0.46875 -3.234375 0.21875 -2.625 0.21875 -1.90625 C 0.21875 -0.75 0.9375 0.09375 1.921875 0.09375 C 2.328125 0.09375 2.6875 -0.046875 3.015625 -0.328125 C 3.25 -0.546875 3.421875 -0.796875 3.6875 -1.3125 Z M 3.5625 -1.40625 "/>
</g>
<g id="glyph-6-15">
<path d="M 0.171875 -3.5625 C 0.28125 -3.59375 0.359375 -3.609375 0.453125 -3.609375 C 0.6875 -3.609375 0.765625 -3.46875 0.765625 -3.03125 L 0.765625 -0.765625 C 0.765625 -0.28125 0.640625 -0.140625 0.140625 -0.140625 L 0.140625 0 L 2.140625 0 L 2.140625 -0.140625 C 1.65625 -0.15625 1.53125 -0.25 1.53125 -0.59375 L 1.53125 -3.125 C 1.53125 -3.140625 1.59375 -3.234375 1.65625 -3.296875 C 1.890625 -3.5 2.265625 -3.65625 2.578125 -3.65625 C 2.984375 -3.65625 3.171875 -3.34375 3.171875 -2.71875 L 3.171875 -0.765625 C 3.171875 -0.265625 3.078125 -0.171875 2.5625 -0.140625 L 2.5625 0 L 4.578125 0 L 4.578125 -0.140625 C 4.0625 -0.140625 3.921875 -0.296875 3.921875 -0.859375 L 3.921875 -3.109375 C 4.203125 -3.5 4.5 -3.65625 4.90625 -3.65625 C 5.421875 -3.65625 5.578125 -3.421875 5.578125 -2.671875 L 5.578125 -0.78125 C 5.578125 -0.265625 5.5 -0.203125 4.984375 -0.140625 L 4.984375 0 L 6.953125 0 L 6.953125 -0.140625 L 6.71875 -0.15625 C 6.453125 -0.171875 6.328125 -0.328125 6.328125 -0.6875 L 6.328125 -2.53125 C 6.328125 -3.59375 5.984375 -4.125 5.296875 -4.125 C 4.765625 -4.125 4.3125 -3.890625 3.828125 -3.375 C 3.671875 -3.890625 3.359375 -4.125 2.875 -4.125 C 2.484375 -4.125 2.234375 -4 1.484375 -3.4375 L 1.484375 -4.109375 L 1.421875 -4.125 C 0.96875 -3.953125 0.65625 -3.859375 0.171875 -3.71875 Z M 0.171875 -3.5625 "/>
</g>
<g id="glyph-6-16">
<path d="M 4.296875 -0.453125 L 4.25 -0.453125 C 3.84375 -0.453125 3.734375 -0.546875 3.734375 -0.953125 L 3.734375 -4.03125 L 2.328125 -4.03125 L 2.328125 -3.890625 C 2.875 -3.859375 2.984375 -3.765625 2.984375 -3.3125 L 2.984375 -1.203125 C 2.984375 -0.953125 2.9375 -0.828125 2.8125 -0.734375 C 2.578125 -0.53125 2.296875 -0.4375 2.03125 -0.4375 C 1.671875 -0.4375 1.390625 -0.734375 1.390625 -1.109375 L 1.390625 -4.03125 L 0.078125 -4.03125 L 0.078125 -3.90625 C 0.515625 -3.890625 0.640625 -3.75 0.640625 -3.34375 L 0.640625 -1.078125 C 0.640625 -0.375 1.0625 0.09375 1.71875 0.09375 C 2.046875 0.09375 2.40625 -0.046875 2.640625 -0.296875 L 3.03125 -0.6875 L 3.03125 0.0625 L 3.0625 0.078125 C 3.515625 -0.09375 3.84375 -0.203125 4.296875 -0.328125 Z M 4.296875 -0.453125 "/>
</g>
<g id="glyph-6-17">
<path d="M 4.21875 -3.484375 L 4.21875 -3.828125 L 3.53125 -3.828125 C 3.34375 -3.828125 3.203125 -3.859375 3.03125 -3.921875 L 2.828125 -3.984375 C 2.59375 -4.078125 2.34375 -4.125 2.109375 -4.125 C 1.28125 -4.125 0.625 -3.484375 0.625 -2.65625 C 0.625 -2.09375 0.859375 -1.765625 1.453125 -1.46875 C 1.28125 -1.296875 1.125 -1.140625 1.0625 -1.109375 C 0.765625 -0.84375 0.65625 -0.65625 0.65625 -0.484375 C 0.65625 -0.296875 0.765625 -0.1875 1.125 -0.015625 C 0.5 0.453125 0.25 0.75 0.25 1.078125 C 0.25 1.5625 0.953125 1.953125 1.796875 1.953125 C 2.46875 1.953125 3.171875 1.71875 3.640625 1.34375 C 3.984375 1.0625 4.140625 0.78125 4.140625 0.4375 C 4.140625 -0.109375 3.71875 -0.5 3.046875 -0.515625 L 1.890625 -0.578125 C 1.421875 -0.59375 1.1875 -0.671875 1.1875 -0.8125 C 1.1875 -1 1.484375 -1.3125 1.734375 -1.375 C 1.8125 -1.375 1.875 -1.359375 1.90625 -1.359375 C 2.078125 -1.34375 2.1875 -1.34375 2.25 -1.34375 C 2.578125 -1.34375 2.9375 -1.46875 3.203125 -1.71875 C 3.5 -1.96875 3.640625 -2.28125 3.640625 -2.71875 C 3.640625 -2.984375 3.59375 -3.1875 3.46875 -3.484375 Z M 1.3125 0.015625 C 1.609375 0.078125 2.328125 0.140625 2.765625 0.140625 C 3.59375 0.140625 3.890625 0.25 3.890625 0.578125 C 3.890625 1.09375 3.203125 1.4375 2.1875 1.4375 C 1.40625 1.4375 0.875 1.1875 0.875 0.796875 C 0.875 0.578125 0.9375 0.46875 1.3125 0.015625 Z M 1.359375 -3.03125 C 1.359375 -3.5625 1.609375 -3.875 2.03125 -3.875 C 2.3125 -3.875 2.53125 -3.71875 2.6875 -3.453125 C 2.84375 -3.140625 2.953125 -2.71875 2.953125 -2.375 C 2.953125 -1.875 2.6875 -1.5625 2.28125 -1.5625 C 1.734375 -1.5625 1.359375 -2.140625 1.359375 -3 Z M 1.359375 -3.03125 "/>
</g>
<g id="glyph-6-18">
<path d="M 0.75 1.265625 C 1.34375 0.96875 1.75 0.421875 1.75 -0.109375 C 1.75 -0.5625 1.4375 -0.921875 1.03125 -0.921875 C 0.71875 -0.921875 0.5 -0.703125 0.5 -0.40625 C 0.5 -0.109375 0.703125 0.046875 1.03125 0.046875 C 1.078125 0.046875 1.140625 0.046875 1.203125 0.03125 C 1.265625 0.015625 1.265625 0.015625 1.28125 0.015625 C 1.34375 0.015625 1.40625 0.078125 1.40625 0.140625 C 1.40625 0.4375 1.140625 0.765625 0.65625 1.09375 Z M 0.75 1.265625 "/>
</g>
<g id="glyph-6-19">
<path d="M 3.078125 0.09375 L 4.40625 -0.375 L 4.40625 -0.515625 C 4.25 -0.515625 4.21875 -0.515625 4.203125 -0.515625 C 3.875 -0.515625 3.796875 -0.609375 3.796875 -1.015625 L 3.796875 -6.109375 L 3.765625 -6.125 C 3.328125 -5.96875 3.015625 -5.890625 2.4375 -5.734375 L 2.4375 -5.59375 C 2.515625 -5.59375 2.5625 -5.59375 2.640625 -5.59375 C 2.96875 -5.59375 3.046875 -5.5 3.046875 -5.140625 L 3.046875 -3.734375 C 2.703125 -4.03125 2.46875 -4.125 2.109375 -4.125 C 1.078125 -4.125 0.234375 -3.109375 0.234375 -1.84375 C 0.234375 -0.6875 0.921875 0.09375 1.90625 0.09375 C 2.40625 0.09375 2.75 -0.09375 3.046875 -0.515625 L 3.046875 0.0625 Z M 3.046875 -0.921875 C 3.046875 -0.859375 2.984375 -0.75 2.890625 -0.640625 C 2.734375 -0.46875 2.515625 -0.375 2.25 -0.375 C 1.5 -0.375 1.015625 -1.09375 1.015625 -2.203125 C 1.015625 -3.203125 1.453125 -3.875 2.140625 -3.875 C 2.609375 -3.875 3.046875 -3.453125 3.046875 -2.984375 Z M 3.046875 -0.921875 "/>
</g>
<g id="glyph-6-20">
<path d="M 3.75 -1.203125 L 3.59375 -1.25 C 3.5 -0.796875 3.4375 -0.65625 3.328125 -0.5 C 3.203125 -0.34375 2.890625 -0.265625 2.4375 -0.265625 L 1.203125 -0.265625 L 3.609375 -3.90625 L 3.609375 -4.03125 L 0.5 -4.03125 L 0.46875 -2.984375 L 0.640625 -2.984375 C 0.71875 -3.625 0.859375 -3.765625 1.390625 -3.765625 L 2.625 -3.765625 L 0.234375 -0.140625 L 0.234375 0 L 3.625 0 Z M 3.75 -1.203125 "/>
</g>
<g id="glyph-6-21">
<path d="M 1.5625 -4.125 L 0.171875 -3.625 L 0.171875 -3.5 L 0.25 -3.5 C 0.359375 -3.53125 0.46875 -3.53125 0.5625 -3.53125 C 0.765625 -3.53125 0.859375 -3.390625 0.859375 -3 L 0.859375 -0.921875 C 0.859375 -0.265625 0.765625 -0.171875 0.140625 -0.140625 L 0.140625 0 L 2.265625 0 L 2.265625 -0.140625 C 1.671875 -0.171875 1.609375 -0.265625 1.609375 -0.921875 L 1.609375 -4.09375 Z M 1.140625 -6.125 C 0.90625 -6.125 0.703125 -5.921875 0.703125 -5.671875 C 0.703125 -5.421875 0.890625 -5.203125 1.140625 -5.203125 C 1.40625 -5.203125 1.609375 -5.40625 1.609375 -5.671875 C 1.609375 -5.921875 1.40625 -6.125 1.140625 -6.125 Z M 1.140625 -6.125 "/>
</g>
<g id="glyph-6-22">
<path d="M 1.734375 -4.09375 L 1.6875 -4.125 C 1.15625 -3.921875 0.8125 -3.796875 0.28125 -3.640625 L 0.28125 -3.5 L 0.328125 -3.5 C 0.46875 -3.53125 0.59375 -3.53125 0.6875 -3.53125 C 0.890625 -3.53125 0.984375 -3.375 0.984375 -3 L 0.984375 0.40625 C 0.984375 1.078125 0.953125 1.3125 0.859375 1.484375 C 0.796875 1.578125 0.671875 1.65625 0.546875 1.65625 C 0.40625 1.65625 0.328125 1.59375 0.171875 1.40625 C 0.015625 1.1875 -0.109375 1.109375 -0.265625 1.109375 C -0.46875 1.109375 -0.625 1.265625 -0.625 1.46875 C -0.625 1.75 -0.265625 1.953125 0.21875 1.953125 C 1.203125 1.953125 1.734375 1.28125 1.734375 0 Z M 1.28125 -6.125 C 1.03125 -6.125 0.828125 -5.921875 0.828125 -5.671875 C 0.828125 -5.421875 1.015625 -5.203125 1.28125 -5.203125 C 1.53125 -5.203125 1.734375 -5.40625 1.734375 -5.671875 C 1.734375 -5.921875 1.53125 -6.125 1.28125 -6.125 Z M 1.28125 -6.125 "/>
</g>
<g id="glyph-6-23">
<path d="M 4.28125 -4.03125 L 3.03125 -4.03125 L 3.03125 -3.90625 C 3.3125 -3.875 3.453125 -3.78125 3.453125 -3.609375 C 3.453125 -3.53125 3.4375 -3.4375 3.40625 -3.34375 L 2.515625 -1.015625 L 1.59375 -3.3125 C 1.546875 -3.4375 1.515625 -3.5625 1.515625 -3.65625 C 1.515625 -3.8125 1.609375 -3.875 1.921875 -3.90625 L 1.921875 -4.03125 L 0.171875 -4.03125 L 0.171875 -3.90625 C 0.515625 -3.890625 0.578125 -3.796875 0.984375 -2.875 L 2.0625 -0.296875 C 2.078125 -0.234375 2.109375 -0.171875 2.140625 -0.109375 C 2.1875 0.046875 2.25 0.125 2.296875 0.125 C 2.34375 0.125 2.40625 0.015625 2.546875 -0.328125 L 3.6875 -3.203125 C 3.953125 -3.8125 4.015625 -3.875 4.28125 -3.90625 Z M 4.28125 -4.03125 "/>
</g>
<g id="glyph-6-24">
<path d="M 1.125 -0.890625 C 0.859375 -0.890625 0.625 -0.65625 0.625 -0.390625 C 0.625 -0.125 0.859375 0.09375 1.109375 0.09375 C 1.390625 0.09375 1.625 -0.125 1.625 -0.390625 C 1.625 -0.65625 1.390625 -0.890625 1.125 -0.890625 Z M 1.125 -0.890625 "/>
</g>
<g id="glyph-6-25">
<path d="M 2.765625 -4.03125 L 1.671875 -4.03125 L 1.671875 -5.078125 C 1.671875 -5.59375 1.84375 -5.875 2.171875 -5.875 C 2.375 -5.875 2.5 -5.78125 2.65625 -5.53125 C 2.796875 -5.296875 2.90625 -5.203125 3.0625 -5.203125 C 3.265625 -5.203125 3.4375 -5.359375 3.4375 -5.5625 C 3.4375 -5.890625 3.046875 -6.125 2.5 -6.125 C 1.953125 -6.125 1.46875 -5.890625 1.234375 -5.46875 C 1 -5.078125 0.9375 -4.75 0.921875 -4.03125 L 0.1875 -4.03125 L 0.1875 -3.75 L 0.921875 -3.75 L 0.921875 -0.9375 C 0.921875 -0.28125 0.828125 -0.171875 0.171875 -0.140625 L 0.171875 0 L 2.515625 0 L 2.515625 -0.140625 C 1.78125 -0.15625 1.671875 -0.265625 1.671875 -0.9375 L 1.671875 -3.75 L 2.765625 -3.75 Z M 2.765625 -4.03125 "/>
</g>
<g id="glyph-6-26">
<path d="M 5.484375 0.09375 L 5.484375 -4.625 C 5.484375 -5.15625 5.578125 -5.484375 5.75 -5.609375 C 5.875 -5.6875 6 -5.734375 6.34375 -5.765625 L 6.34375 -5.9375 L 4.234375 -5.9375 L 4.234375 -5.765625 C 4.578125 -5.734375 4.703125 -5.703125 4.828125 -5.625 C 5.015625 -5.5 5.09375 -5.171875 5.09375 -4.625 L 5.09375 -1.59375 L 1.640625 -5.9375 L 0.109375 -5.9375 L 0.109375 -5.765625 C 0.5 -5.765625 0.625 -5.6875 0.984375 -5.28125 L 0.984375 -1.3125 C 0.984375 -0.390625 0.859375 -0.21875 0.109375 -0.171875 L 0.109375 0 L 2.21875 0 L 2.21875 -0.171875 C 1.53125 -0.203125 1.375 -0.40625 1.375 -1.3125 L 1.375 -4.828125 L 5.34375 0.09375 Z M 5.484375 0.09375 "/>
</g>
<g id="glyph-6-27">
<path d="M 6.046875 -5.140625 L 6.046875 -1.078125 C 6.046875 -0.328125 5.9375 -0.21875 5.234375 -0.171875 L 5.234375 0 L 7.734375 0 L 7.734375 -0.171875 C 7.078125 -0.21875 6.953125 -0.34375 6.953125 -0.984375 L 6.953125 -4.953125 C 6.953125 -5.59375 7.078125 -5.71875 7.734375 -5.765625 L 7.734375 -5.9375 L 5.953125 -5.9375 L 3.96875 -1.40625 L 1.90625 -5.9375 L 0.125 -5.9375 L 0.125 -5.765625 C 0.859375 -5.71875 0.984375 -5.609375 0.984375 -4.953125 L 0.984375 -1.3125 C 0.984375 -0.390625 0.859375 -0.21875 0.109375 -0.171875 L 0.109375 0 L 2.21875 0 L 2.21875 -0.171875 C 1.53125 -0.203125 1.375 -0.40625 1.375 -1.3125 L 1.375 -4.9375 L 3.625 0 L 3.75 0 Z M 6.046875 -5.140625 "/>
</g>
<g id="glyph-6-28">
<path d="M 3.234375 -6.0625 C 1.53125 -6.0625 0.3125 -4.765625 0.3125 -2.96875 C 0.3125 -2.125 0.59375 -1.3125 1.078125 -0.796875 C 1.59375 -0.21875 2.390625 0.125 3.1875 0.125 C 4.953125 0.125 6.171875 -1.125 6.171875 -2.9375 C 6.171875 -3.828125 5.90625 -4.578125 5.421875 -5.125 C 4.859375 -5.734375 4.09375 -6.0625 3.234375 -6.0625 Z M 3.234375 -5.734375 C 3.65625 -5.734375 4.0625 -5.578125 4.390625 -5.296875 C 4.875 -4.859375 5.140625 -4.015625 5.140625 -2.9375 C 5.140625 -2.40625 5.03125 -1.796875 4.859375 -1.328125 C 4.765625 -1.109375 4.625 -0.875 4.40625 -0.671875 C 4.09375 -0.359375 3.6875 -0.203125 3.21875 -0.203125 C 2.8125 -0.203125 2.40625 -0.359375 2.09375 -0.640625 C 1.625 -1.046875 1.328125 -1.953125 1.328125 -2.953125 C 1.328125 -3.859375 1.578125 -4.734375 1.953125 -5.15625 C 2.3125 -5.546875 2.75 -5.734375 3.234375 -5.734375 Z M 3.234375 -5.734375 "/>
</g>
<g id="glyph-6-29">
<path d="M 4.015625 -6.0625 L 3.828125 -6.0625 C 3.78125 -5.859375 3.6875 -5.765625 3.53125 -5.765625 C 3.4375 -5.765625 3.296875 -5.796875 3.140625 -5.859375 C 2.8125 -5.984375 2.46875 -6.0625 2.1875 -6.0625 C 1.796875 -6.0625 1.40625 -5.90625 1.109375 -5.65625 C 0.796875 -5.375 0.640625 -5 0.640625 -4.53125 C 0.640625 -3.8125 1.03125 -3.3125 2.03125 -2.78125 C 2.6875 -2.4375 3.140625 -2.078125 3.375 -1.734375 C 3.453125 -1.609375 3.5 -1.421875 3.5 -1.203125 C 3.5 -0.609375 3.046875 -0.203125 2.390625 -0.203125 C 1.59375 -0.203125 1.03125 -0.6875 0.578125 -1.78125 L 0.375 -1.78125 L 0.640625 0.109375 L 0.84375 0.109375 C 0.859375 -0.046875 0.953125 -0.171875 1.09375 -0.171875 C 1.1875 -0.171875 1.34375 -0.140625 1.515625 -0.078125 C 1.859375 0.046875 2.21875 0.125 2.578125 0.125 C 3.609375 0.125 4.40625 -0.578125 4.40625 -1.5 C 4.40625 -2.25 3.90625 -2.828125 2.71875 -3.46875 C 1.78125 -3.984375 1.40625 -4.375 1.40625 -4.859375 C 1.40625 -5.359375 1.78125 -5.6875 2.34375 -5.6875 C 2.75 -5.6875 3.125 -5.53125 3.4375 -5.203125 C 3.71875 -4.921875 3.84375 -4.6875 3.984375 -4.15625 L 4.203125 -4.15625 Z M 4.015625 -6.0625 "/>
</g>
<g id="glyph-6-30">
<path d="M 0.0625 -5.59375 C 0.171875 -5.59375 0.265625 -5.609375 0.34375 -5.609375 C 0.640625 -5.609375 0.734375 -5.484375 0.734375 -5.0625 L 0.734375 -0.734375 C 0.734375 -0.265625 0.703125 -0.234375 0.0625 -0.140625 L 0.0625 0 L 2.15625 0 L 2.15625 -0.140625 L 1.984375 -0.140625 C 1.625 -0.15625 1.484375 -0.28125 1.484375 -0.59375 L 1.484375 -2.25 L 2.75 -0.578125 L 2.765625 -0.53125 C 2.796875 -0.515625 2.8125 -0.484375 2.828125 -0.453125 C 2.90625 -0.375 2.9375 -0.3125 2.9375 -0.265625 C 2.9375 -0.1875 2.859375 -0.140625 2.75 -0.140625 L 2.578125 -0.140625 L 2.578125 0 L 4.53125 0 L 4.53125 -0.140625 C 4.140625 -0.15625 3.859375 -0.328125 3.484375 -0.796875 L 2.109375 -2.53125 L 2.375 -2.765625 C 3 -3.359375 3.5625 -3.78125 3.828125 -3.84375 C 3.953125 -3.890625 4.078125 -3.90625 4.234375 -3.90625 L 4.3125 -3.90625 L 4.3125 -4.03125 L 2.46875 -4.03125 L 2.46875 -3.90625 C 2.828125 -3.90625 2.921875 -3.859375 2.921875 -3.734375 C 2.921875 -3.671875 2.84375 -3.546875 2.71875 -3.4375 L 1.484375 -2.34375 L 1.484375 -6.109375 L 1.453125 -6.125 C 1.109375 -6.015625 0.859375 -5.953125 0.328125 -5.796875 L 0.0625 -5.734375 Z M 0.0625 -5.59375 "/>
</g>
</g>
</defs>
<path fill="none" stroke-width="0.79701" stroke-linecap="butt" stroke-linejoin="miter" stroke="rgb(0%, 0%, 0%)" stroke-opacity="1" stroke-miterlimit="10" d="M -22.679375 215.434687 L 232.445625 215.434687 " transform="matrix(1, 0, 0, -1, 31.195, 230.005)"/>
<path fill="none" stroke-width="0.79701" stroke-linecap="butt" stroke-linejoin="miter" stroke="rgb(0%, 0%, 0%)" stroke-opacity="1" stroke-miterlimit="10" d="M 34.015937 215.434687 L 34.015937 226.774531 M 28.347969 223.938594 L 34.015937 226.774531 M 34.015937 226.774531 L 39.683906 229.610469 " transform="matrix(1, 0, 0, -1, 31.195, 230.005)"/>
<path fill="none" stroke-width="0.79701" stroke-linecap="butt" stroke-linejoin="miter" stroke="rgb(0%, 0%, 0%)" stroke-opacity="1" stroke-miterlimit="10" d="M 0.0003125 170.079219 L 0.0003125 215.434687 " transform="matrix(1, 0, 0, -1, 31.195, 230.005)"/>
<path fill="none" stroke-width="0.79701" stroke-linecap="butt" stroke-linejoin="miter" stroke="rgb(0%, 0%, 0%)" stroke-opacity="1" stroke-miterlimit="10" d="M 90.71125 170.079219 L 90.71125 215.434687 " transform="matrix(1, 0, 0, -1, 31.195, 230.005)"/>
<path fill-rule="nonzero" fill="rgb(0%, 0%, 0%)" fill-opacity="1" d="M 33.320312 14.570312 C 33.320312 13.394531 32.367188 12.441406 31.195312 12.441406 C 30.019531 12.441406 29.070312 13.394531 29.070312 14.570312 C 29.070312 15.742188 30.019531 16.695312 31.195312 16.695312 C 32.367188 16.695312 33.320312 15.742188 33.320312 14.570312 Z M 33.320312 14.570312 "/>
<path fill-rule="nonzero" fill="rgb(0%, 0%, 0%)" fill-opacity="1" d="M 124.03125 14.570312 C 124.03125 13.394531 123.078125 12.441406 121.90625 12.441406 C 120.730469 12.441406 119.777344 13.394531 119.777344 14.570312 C 119.777344 15.742188 120.730469 16.695312 121.90625 16.695312 C 123.078125 16.695312 124.03125 15.742188 124.03125 14.570312 Z M 124.03125 14.570312 "/>
<path fill="none" stroke-width="0.79701" stroke-linecap="butt" stroke-linejoin="miter" stroke="rgb(0%, 0%, 0%)" stroke-opacity="1" stroke-miterlimit="10" d="M 0.0003125 124.727656 L 0.0003125 125.575312 M 0.0003125 169.231562 L 0.0003125 170.079219 " transform="matrix(1, 0, 0, -1, 31.195, 230.005)"/>
<path fill="none" stroke-width="0.79701" stroke-linecap="butt" stroke-linejoin="miter" stroke="rgb(0%, 0%, 0%)" stroke-opacity="1" stroke-miterlimit="10" d="M 0.0003125 169.63 L 0.0003125 155.044062 L 13.890937 155.044062 " transform="matrix(1, 0, 0, -1, 31.195, 230.005)"/>
<path fill-rule="nonzero" fill="rgb(0%, 0%, 0%)" fill-opacity="1" stroke-width="0.79701" stroke-linecap="butt" stroke-linejoin="miter" stroke="rgb(0%, 0%, 0%)" stroke-opacity="1" stroke-miterlimit="10" d="M 5.152656 155.044062 L 5.152656 157.028437 L 9.371406 155.044062 L 5.152656 153.059687 Z M 5.152656 155.044062 " transform="matrix(1, 0, 0, -1, 31.195, 230.005)"/>
<path fill="none" stroke-width="1.59404" stroke-linecap="butt" stroke-linejoin="miter" stroke="rgb(0%, 0%, 0%)" stroke-opacity="1" stroke-miterlimit="10" d="M 13.890937 158.3175 L 13.890937 136.489375 M 17.222969 155.044062 L 17.222969 139.762812 " transform="matrix(1, 0, 0, -1, 31.195, 230.005)"/>
<path fill="none" stroke-width="0.79701" stroke-linecap="butt" stroke-linejoin="miter" stroke="rgb(0%, 0%, 0%)" stroke-opacity="1" stroke-miterlimit="10" d="M 13.890937 139.762812 L 0.0003125 139.762812 L 0.0003125 125.176875 " transform="matrix(1, 0, 0, -1, 31.195, 230.005)"/>
<path fill="none" stroke-width="0.79701" stroke-linecap="butt" stroke-linejoin="miter" stroke="rgb(0%, 0%, 0%)" stroke-opacity="1" stroke-miterlimit="10" d="M 17.222969 147.403437 L 28.18 147.403437 " transform="matrix(1, 0, 0, -1, 31.195, 230.005)"/>
<path fill-rule="nonzero" fill="rgb(100%, 100%, 100%)" fill-opacity="1" stroke-width="0.79701" stroke-linecap="butt" stroke-linejoin="miter" stroke="rgb(0%, 0%, 0%)" stroke-opacity="1" stroke-miterlimit="10" d="M 17.222969 147.403437 C 17.222969 148.278437 17.933906 148.989375 18.808906 148.989375 C 19.687812 148.989375 20.39875 148.278437 20.39875 147.403437 C 20.39875 146.528437 19.687812 145.8175 18.808906 145.8175 C 17.933906 145.8175 17.222969 146.528437 17.222969 147.403437 Z M 17.222969 147.403437 " transform="matrix(1, 0, 0, -1, 31.195, 230.005)"/>
<path fill="none" stroke-width="0.79701" stroke-linecap="butt" stroke-linejoin="miter" stroke="rgb(0%, 0%, 0%)" stroke-opacity="1" stroke-miterlimit="10" d="M 90.71125 124.727656 L 90.71125 125.575312 M 90.71125 169.231562 L 90.71125 170.079219 " transform="matrix(1, 0, 0, -1, 31.195, 230.005)"/>
<path fill="none" stroke-width="0.79701" stroke-linecap="butt" stroke-linejoin="miter" stroke="rgb(0%, 0%, 0%)" stroke-opacity="1" stroke-miterlimit="10" d="M 90.71125 169.63 L 90.71125 155.044062 L 76.820625 155.044062 " transform="matrix(1, 0, 0, -1, 31.195, 230.005)"/>
<path fill-rule="nonzero" fill="rgb(0%, 0%, 0%)" fill-opacity="1" stroke-width="0.79701" stroke-linecap="butt" stroke-linejoin="miter" stroke="rgb(0%, 0%, 0%)" stroke-opacity="1" stroke-miterlimit="10" d="M 85.555 155.044062 L 85.555 157.028437 L 81.340156 155.044062 L 85.555 153.059687 Z M 85.555 155.044062 " transform="matrix(1, 0, 0, -1, 31.195, 230.005)"/>
<path fill="none" stroke-width="1.59404" stroke-linecap="butt" stroke-linejoin="miter" stroke="rgb(0%, 0%, 0%)" stroke-opacity="1" stroke-miterlimit="10" d="M 76.820625 158.3175 L 76.820625 136.489375 M 73.484688 155.044062 L 73.484688 139.762812 " transform="matrix(1, 0, 0, -1, 31.195, 230.005)"/>
<path fill="none" stroke-width="0.79701" stroke-linecap="butt" stroke-linejoin="miter" stroke="rgb(0%, 0%, 0%)" stroke-opacity="1" stroke-miterlimit="10" d="M 76.820625 139.762812 L 90.71125 139.762812 L 90.71125 125.176875 " transform="matrix(1, 0, 0, -1, 31.195, 230.005)"/>
<path fill="none" stroke-width="0.79701" stroke-linecap="butt" stroke-linejoin="miter" stroke="rgb(0%, 0%, 0%)" stroke-opacity="1" stroke-miterlimit="10" d="M 73.484688 147.403437 L 62.531562 147.403437 " transform="matrix(1, 0, 0, -1, 31.195, 230.005)"/>
<path fill-rule="nonzero" fill="rgb(100%, 100%, 100%)" fill-opacity="1" stroke-width="0.79701" stroke-linecap="butt" stroke-linejoin="miter" stroke="rgb(0%, 0%, 0%)" stroke-opacity="1" stroke-miterlimit="10" d="M 73.484688 147.403437 C 73.484688 148.278437 72.777656 148.989375 71.89875 148.989375 C 71.02375 148.989375 70.312813 148.278437 70.312813 147.403437 C 70.312813 146.528437 71.02375 145.8175 71.89875 145.8175 C 72.777656 145.8175 73.484688 146.528437 73.484688 147.403437 Z M 73.484688 147.403437 " transform="matrix(1, 0, 0, -1, 31.195, 230.005)"/>
<path fill="none" stroke-width="0.79701" stroke-linecap="butt" stroke-linejoin="miter" stroke="rgb(0%, 0%, 0%)" stroke-opacity="1" stroke-miterlimit="10" d="M 27.781562 147.403437 L 62.93 147.403437 " transform="matrix(1, 0, 0, -1, 31.195, 230.005)"/>
<path fill-rule="nonzero" fill="rgb(0%, 0%, 0%)" fill-opacity="1" d="M 61.101562 82.601562 C 61.101562 81.425781 60.148438 80.476562 58.976562 80.476562 C 57.800781 80.476562 56.847656 81.425781 56.847656 82.601562 C 56.847656 83.777344 57.800781 84.726562 58.976562 84.726562 C 60.148438 84.726562 61.101562 83.777344 61.101562 82.601562 Z M 61.101562 82.601562 "/>
<path fill="none" stroke-width="0.79701" stroke-linecap="butt" stroke-linejoin="miter" stroke="rgb(0%, 0%, 0%)" stroke-opacity="1" stroke-miterlimit="10" d="M 27.781562 147.403437 L 27.781562 124.727656 L 0.0003125 124.727656 " transform="matrix(1, 0, 0, -1, 31.195, 230.005)"/>
<path fill-rule="nonzero" fill="rgb(0%, 0%, 0%)" fill-opacity="1" d="M 33.320312 105.277344 C 33.320312 104.105469 32.367188 103.152344 31.195312 103.152344 C 30.019531 103.152344 29.070312 104.105469 29.070312 105.277344 C 29.070312 106.453125 30.019531 107.40625 31.195312 107.40625 C 32.367188 107.40625 33.320312 106.453125 33.320312 105.277344 Z M 33.320312 105.277344 "/>
<path fill="none" stroke-width="0.79701" stroke-linecap="butt" stroke-linejoin="miter" stroke="rgb(0%, 0%, 0%)" stroke-opacity="1" stroke-miterlimit="10" d="M 0.0003125 34.016719 L 0.0003125 34.868281 M 0.0003125 78.520625 L 0.0003125 79.372187 " transform="matrix(1, 0, 0, -1, 31.195, 230.005)"/>
<path fill="none" stroke-width="0.79701" stroke-linecap="butt" stroke-linejoin="miter" stroke="rgb(0%, 0%, 0%)" stroke-opacity="1" stroke-miterlimit="10" d="M 0.0003125 78.919062 L 0.0003125 64.333125 L 13.890937 64.333125 M 13.890937 49.055781 L 0.0003125 49.055781 L 0.0003125 34.469844 " transform="matrix(1, 0, 0, -1, 31.195, 230.005)"/>
<path fill="none" stroke-width="1.59404" stroke-linecap="butt" stroke-linejoin="miter" stroke="rgb(0%, 0%, 0%)" stroke-opacity="1" stroke-miterlimit="10" d="M 13.890937 67.606562 L 13.890937 45.778437 M 17.222969 64.333125 L 17.222969 49.055781 " transform="matrix(1, 0, 0, -1, 31.195, 230.005)"/>
<path fill-rule="nonzero" fill="rgb(0%, 0%, 0%)" fill-opacity="1" stroke-width="0.79701" stroke-linecap="butt" stroke-linejoin="miter" stroke="rgb(0%, 0%, 0%)" stroke-opacity="1" stroke-miterlimit="10" d="M 8.625312 49.055781 L 8.625312 47.071406 L 4.410469 49.055781 L 8.625312 51.040156 Z M 8.625312 49.055781 " transform="matrix(1, 0, 0, -1, 31.195, 230.005)"/>
<path fill="none" stroke-width="0.79701" stroke-linecap="butt" stroke-linejoin="miter" stroke="rgb(0%, 0%, 0%)" stroke-opacity="1" stroke-miterlimit="10" d="M 17.222969 56.6925 L 28.18 56.6925 " transform="matrix(1, 0, 0, -1, 31.195, 230.005)"/>
<path fill="none" stroke-width="0.79701" stroke-linecap="butt" stroke-linejoin="miter" stroke="rgb(0%, 0%, 0%)" stroke-opacity="1" stroke-miterlimit="10" d="M 90.71125 34.016719 L 90.71125 34.868281 M 90.71125 78.520625 L 90.71125 79.372187 " transform="matrix(1, 0, 0, -1, 31.195, 230.005)"/>
<path fill="none" stroke-width="0.79701" stroke-linecap="butt" stroke-linejoin="miter" stroke="rgb(0%, 0%, 0%)" stroke-opacity="1" stroke-miterlimit="10" d="M 90.71125 78.919062 L 90.71125 64.333125 L 76.820625 64.333125 M 76.820625 49.055781 L 90.71125 49.055781 L 90.71125 34.469844 " transform="matrix(1, 0, 0, -1, 31.195, 230.005)"/>
<path fill="none" stroke-width="1.59404" stroke-linecap="butt" stroke-linejoin="miter" stroke="rgb(0%, 0%, 0%)" stroke-opacity="1" stroke-miterlimit="10" d="M 76.820625 67.606562 L 76.820625 45.778437 M 73.484688 64.333125 L 73.484688 49.055781 " transform="matrix(1, 0, 0, -1, 31.195, 230.005)"/>
<path fill-rule="nonzero" fill="rgb(0%, 0%, 0%)" fill-opacity="1" stroke-width="0.79701" stroke-linecap="butt" stroke-linejoin="miter" stroke="rgb(0%, 0%, 0%)" stroke-opacity="1" stroke-miterlimit="10" d="M 82.082344 49.055781 L 82.082344 47.071406 L 86.301094 49.055781 L 82.082344 51.040156 Z M 82.082344 49.055781 " transform="matrix(1, 0, 0, -1, 31.195, 230.005)"/>
<path fill="none" stroke-width="0.79701" stroke-linecap="butt" stroke-linejoin="miter" stroke="rgb(0%, 0%, 0%)" stroke-opacity="1" stroke-miterlimit="10" d="M 73.484688 56.6925 L 62.531562 56.6925 " transform="matrix(1, 0, 0, -1, 31.195, 230.005)"/>
<path fill="none" stroke-width="0.79701" stroke-linecap="butt" stroke-linejoin="miter" stroke="rgb(0%, 0%, 0%)" stroke-opacity="1" stroke-miterlimit="10" d="M -5.667656 34.016719 L 0.0003125 34.016719 M 0.0003125 34.016719 L 5.668281 34.016719 M -2.835625 31.180781 L 0.0003125 31.180781 M 0.0003125 31.180781 L 2.83625 31.180781 M -1.417656 28.344844 L 0.0003125 28.344844 M 0.0003125 28.344844 L 1.418281 28.344844 " transform="matrix(1, 0, 0, -1, 31.195, 230.005)"/>
<path fill="none" stroke-width="0.79701" stroke-linecap="butt" stroke-linejoin="miter" stroke="rgb(0%, 0%, 0%)" stroke-opacity="1" stroke-miterlimit="10" d="M 27.781562 56.6925 L 62.93 56.6925 " transform="matrix(1, 0, 0, -1, 31.195, 230.005)"/>
<g fill="rgb(0%, 0%, 0%)" fill-opacity="1">
<use xlink:href="#glyph-0-0" x="50.584" y="170.032"/>
<use xlink:href="#glyph-0-1" x="56.698048" y="170.032"/>
<use xlink:href="#glyph-0-2" x="64.226286" y="170.032"/>
<use xlink:href="#glyph-0-3" x="70.340334" y="170.032"/>
</g>
<g fill="rgb(0%, 0%, 0%)" fill-opacity="1">
<use xlink:href="#glyph-0-4" x="77.165711" y="170.032"/>
<use xlink:href="#glyph-0-5" x="79.985625" y="170.032"/>
<use xlink:href="#glyph-0-6" x="83.74551" y="170.032"/>
<use xlink:href="#glyph-0-7" x="86.099673" y="170.032"/>
</g>
<path fill-rule="nonzero" fill="rgb(0%, 0%, 0%)" fill-opacity="1" d="M 96.25 173.3125 C 96.25 172.136719 95.300781 171.183594 94.125 171.183594 C 92.949219 171.183594 92 172.136719 92 173.3125 C 92 174.484375 92.949219 175.4375 94.125 175.4375 C 95.300781 175.4375 96.25 174.484375 96.25 173.3125 Z M 96.25 173.3125 "/>
<path fill="none" stroke-width="0.79701" stroke-linecap="butt" stroke-linejoin="miter" stroke="rgb(0%, 0%, 0%)" stroke-opacity="1" stroke-miterlimit="10" d="M 62.93 56.6925 L 62.93 79.372187 L 90.71125 79.372187 " transform="matrix(1, 0, 0, -1, 31.195, 230.005)"/>
<path fill-rule="nonzero" fill="rgb(0%, 0%, 0%)" fill-opacity="1" d="M 124.03125 150.632812 C 124.03125 149.460938 123.078125 148.507812 121.90625 148.507812 C 120.730469 148.507812 119.777344 149.460938 119.777344 150.632812 C 119.777344 151.808594 120.730469 152.761719 121.90625 152.761719 C 123.078125 152.761719 124.03125 151.808594 124.03125 150.632812 Z M 124.03125 150.632812 "/>
<g fill="rgb(0%, 0%, 0%)" fill-opacity="1">
<use xlink:href="#glyph-1-0" x="136.403" y="188.608"/>
</g>
<g fill="rgb(0%, 0%, 0%)" fill-opacity="1">
<use xlink:href="#glyph-2-0" x="144.2009" y="188.608"/>
</g>
<path fill="none" stroke-width="0.79701" stroke-linecap="butt" stroke-linejoin="miter" stroke="rgb(0%, 0%, 0%)" stroke-opacity="1" stroke-miterlimit="10" d="M 90.71125 34.016719 L 90.71125 17.008906 " transform="matrix(1, 0, 0, -1, 31.195, 230.005)"/>
<path fill="none" stroke-width="0.79701" stroke-linecap="butt" stroke-linejoin="miter" stroke="rgb(0%, 0%, 0%)" stroke-opacity="1" stroke-miterlimit="10" d="M 90.71125 -28.346563 L 90.71125 -21.260625 M 90.71125 -21.260625 L 90.71125 -14.174688 L 92.125313 -13.46375 M 92.125313 -13.46375 L 93.543281 -12.756719 L 90.71125 -11.33875 M 90.71125 -11.33875 L 87.875313 -9.920781 L 90.71125 -8.502813 M 90.71125 -8.502813 L 93.543281 -7.084844 L 90.71125 -5.670781 M 90.71125 -5.670781 L 87.875313 -4.252813 L 90.71125 -2.834844 M 90.71125 -2.834844 L 93.543281 -1.416875 L 90.71125 0.00109375 M 90.71125 0.00109375 L 87.875313 1.419062 L 89.293281 2.126094 M 89.293281 2.126094 L 90.71125 2.837031 L 90.71125 9.922969 M 90.71125 9.922969 L 90.71125 17.008906 " transform="matrix(1, 0, 0, -1, 31.195, 230.005)"/>
<g fill="rgb(0%, 0%, 0%)" fill-opacity="1">
<use xlink:href="#glyph-3-0" x="128.457" y="239.077"/>
</g>
<path fill="none" stroke-width="0.79701" stroke-linecap="butt" stroke-linejoin="miter" stroke="rgb(0%, 0%, 0%)" stroke-opacity="1" stroke-miterlimit="10" d="M 85.039375 -28.346563 L 90.71125 -28.346563 M 90.71125 -28.346563 L 96.379219 -28.346563 M 87.875313 -31.1825 L 90.71125 -31.1825 M 90.71125 -31.1825 L 93.543281 -31.1825 M 89.293281 -34.018438 L 90.71125 -34.014531 M 90.71125 -34.014531 L 92.125313 -34.018438 " transform="matrix(1, 0, 0, -1, 31.195, 230.005)"/>
<path fill="none" stroke-width="0.79701" stroke-linecap="butt" stroke-linejoin="miter" stroke="rgb(0%, 0%, 0%)" stroke-opacity="1" stroke-miterlimit="10" d="M 0.0003125 124.727656 L 0.0003125 79.372187 " transform="matrix(1, 0, 0, -1, 31.195, 230.005)"/>
<path fill="none" stroke-width="0.79701" stroke-linecap="butt" stroke-linejoin="miter" stroke="rgb(0%, 0%, 0%)" stroke-opacity="1" stroke-miterlimit="10" d="M 90.71125 124.727656 L 90.71125 79.372187 " transform="matrix(1, 0, 0, -1, 31.195, 230.005)"/>
<g fill="rgb(0%, 0%, 0%)" fill-opacity="1">
<use xlink:href="#glyph-4-0" x="18.951" y="139.525"/>
</g>
<g fill="rgb(0%, 0%, 0%)" fill-opacity="1">
<use xlink:href="#glyph-4-0" x="129.502" y="139.525"/>
</g>
<g fill="rgb(0%, 0%, 0%)" fill-opacity="1">
<use xlink:href="#glyph-0-8" x="58.317" y="73.655"/>
<use xlink:href="#glyph-0-1" x="63.025325" y="73.655"/>
<use xlink:href="#glyph-0-2" x="70.553563" y="73.655"/>
<use xlink:href="#glyph-0-3" x="76.667611" y="73.655"/>
</g>
<g fill="rgb(0%, 0%, 0%)" fill-opacity="1">
<use xlink:href="#glyph-0-4" x="83.492988" y="73.655"/>
<use xlink:href="#glyph-0-5" x="86.312902" y="73.655"/>
<use xlink:href="#glyph-0-6" x="90.072788" y="73.655"/>
<use xlink:href="#glyph-0-7" x="92.42695" y="73.655"/>
</g>
<path fill="none" stroke-width="0.79701" stroke-linecap="butt" stroke-linejoin="miter" stroke="rgb(0%, 0%, 0%)" stroke-opacity="1" stroke-miterlimit="10" d="M 209.765938 170.079219 L 209.765938 170.930781 M 209.765938 214.587031 L 209.765938 215.434687 " transform="matrix(1, 0, 0, -1, 31.195, 230.005)"/>
<path fill="none" stroke-width="0.79701" stroke-linecap="butt" stroke-linejoin="miter" stroke="rgb(0%, 0%, 0%)" stroke-opacity="1" stroke-miterlimit="10" d="M 209.765938 214.985469 L 209.765938 200.399531 L 223.656563 200.399531 " transform="matrix(1, 0, 0, -1, 31.195, 230.005)"/>
<path fill-rule="nonzero" fill="rgb(0%, 0%, 0%)" fill-opacity="1" stroke-width="0.79701" stroke-linecap="butt" stroke-linejoin="miter" stroke="rgb(0%, 0%, 0%)" stroke-opacity="1" stroke-miterlimit="10" d="M 214.918281 200.399531 L 214.918281 202.383906 L 219.137031 200.399531 L 214.918281 198.415156 Z M 214.918281 200.399531 " transform="matrix(1, 0, 0, -1, 31.195, 230.005)"/>
<path fill="none" stroke-width="1.59404" stroke-linecap="butt" stroke-linejoin="miter" stroke="rgb(0%, 0%, 0%)" stroke-opacity="1" stroke-miterlimit="10" d="M 223.656563 203.672969 L 223.656563 181.844844 M 226.988594 200.399531 L 226.988594 185.118281 " transform="matrix(1, 0, 0, -1, 31.195, 230.005)"/>
<path fill="none" stroke-width="0.79701" stroke-linecap="butt" stroke-linejoin="miter" stroke="rgb(0%, 0%, 0%)" stroke-opacity="1" stroke-miterlimit="10" d="M 223.656563 185.118281 L 209.765938 185.118281 L 209.765938 170.532344 " transform="matrix(1, 0, 0, -1, 31.195, 230.005)"/>
<path fill="none" stroke-width="0.79701" stroke-linecap="butt" stroke-linejoin="miter" stroke="rgb(0%, 0%, 0%)" stroke-opacity="1" stroke-miterlimit="10" d="M 226.988594 192.758906 L 237.945625 192.758906 " transform="matrix(1, 0, 0, -1, 31.195, 230.005)"/>
<path fill-rule="nonzero" fill="rgb(100%, 100%, 100%)" fill-opacity="1" stroke-width="0.79701" stroke-linecap="butt" stroke-linejoin="miter" stroke="rgb(0%, 0%, 0%)" stroke-opacity="1" stroke-miterlimit="10" d="M 226.988594 192.758906 C 226.988594 193.633906 227.699531 194.344844 228.578438 194.344844 C 229.453438 194.344844 230.164375 193.633906 230.164375 192.758906 C 230.164375 191.88 229.453438 191.172969 228.578438 191.172969 C 227.699531 191.172969 226.988594 191.88 226.988594 192.758906 Z M 226.988594 192.758906 " transform="matrix(1, 0, 0, -1, 31.195, 230.005)"/>
<path fill="none" stroke-width="0.79701" stroke-linecap="butt" stroke-linejoin="miter" stroke="rgb(0%, 0%, 0%)" stroke-opacity="1" stroke-miterlimit="10" d="M 209.765938 215.434687 L 209.765938 215.434687 " transform="matrix(1, 0, 0, -1, 31.195, 230.005)"/>
<path fill-rule="nonzero" fill="rgb(0%, 0%, 0%)" fill-opacity="1" d="M 243.085938 14.570312 C 243.085938 13.394531 242.136719 12.441406 240.960938 12.441406 C 239.785156 12.441406 238.835938 13.394531 238.835938 14.570312 C 238.835938 15.742188 239.785156 16.695312 240.960938 16.695312 C 242.136719 16.695312 243.085938 15.742188 243.085938 14.570312 Z M 243.085938 14.570312 "/>
<path fill="none" stroke-width="0.79701" stroke-linecap="butt" stroke-linejoin="miter" stroke="rgb(0%, 0%, 0%)" stroke-opacity="1" stroke-miterlimit="10" d="M 237.547188 192.758906 L 237.547188 170.079219 L 209.765938 170.079219 " transform="matrix(1, 0, 0, -1, 31.195, 230.005)"/>
<path fill-rule="nonzero" fill="rgb(0%, 0%, 0%)" fill-opacity="1" d="M 243.085938 59.925781 C 243.085938 58.75 242.136719 57.796875 240.960938 57.796875 C 239.785156 57.796875 238.835938 58.75 238.835938 59.925781 C 238.835938 61.097656 239.785156 62.050781 240.960938 62.050781 C 242.136719 62.050781 243.085938 61.097656 243.085938 59.925781 Z M 243.085938 59.925781 "/>
<g fill="rgb(0%, 0%, 0%)" fill-opacity="1">
<use xlink:href="#glyph-4-1" x="265.565" y="39.64"/>
</g>
<g fill="rgb(0%, 0%, 0%)" fill-opacity="1">
<use xlink:href="#glyph-5-0" x="274.2635" y="40.9846"/>
</g>
<path fill="none" stroke-width="0.79701" stroke-linecap="butt" stroke-linejoin="miter" stroke="rgb(0%, 0%, 0%)" stroke-opacity="1" stroke-miterlimit="10" d="M 209.765938 124.727656 L 209.765938 125.575312 M 209.765938 169.231562 L 209.765938 170.079219 " transform="matrix(1, 0, 0, -1, 31.195, 230.005)"/>
<path fill="none" stroke-width="0.79701" stroke-linecap="butt" stroke-linejoin="miter" stroke="rgb(0%, 0%, 0%)" stroke-opacity="1" stroke-miterlimit="10" d="M 209.765938 169.63 L 209.765938 155.044062 L 195.875313 155.044062 " transform="matrix(1, 0, 0, -1, 31.195, 230.005)"/>
<path fill-rule="nonzero" fill="rgb(0%, 0%, 0%)" fill-opacity="1" stroke-width="0.79701" stroke-linecap="butt" stroke-linejoin="miter" stroke="rgb(0%, 0%, 0%)" stroke-opacity="1" stroke-miterlimit="10" d="M 204.613594 155.044062 L 204.613594 157.028437 L 200.394844 155.044062 L 204.613594 153.059687 Z M 204.613594 155.044062 " transform="matrix(1, 0, 0, -1, 31.195, 230.005)"/>
<path fill="none" stroke-width="1.59404" stroke-linecap="butt" stroke-linejoin="miter" stroke="rgb(0%, 0%, 0%)" stroke-opacity="1" stroke-miterlimit="10" d="M 195.875313 158.3175 L 195.875313 136.489375 M 192.543281 155.044062 L 192.543281 139.762812 " transform="matrix(1, 0, 0, -1, 31.195, 230.005)"/>
<path fill="none" stroke-width="0.79701" stroke-linecap="butt" stroke-linejoin="miter" stroke="rgb(0%, 0%, 0%)" stroke-opacity="1" stroke-miterlimit="10" d="M 195.875313 139.762812 L 209.765938 139.762812 L 209.765938 125.176875 " transform="matrix(1, 0, 0, -1, 31.195, 230.005)"/>
<path fill="none" stroke-width="0.79701" stroke-linecap="butt" stroke-linejoin="miter" stroke="rgb(0%, 0%, 0%)" stroke-opacity="1" stroke-miterlimit="10" d="M 192.543281 147.403437 L 181.58625 147.403437 " transform="matrix(1, 0, 0, -1, 31.195, 230.005)"/>
<path fill-rule="nonzero" fill="rgb(100%, 100%, 100%)" fill-opacity="1" stroke-width="0.79701" stroke-linecap="butt" stroke-linejoin="miter" stroke="rgb(0%, 0%, 0%)" stroke-opacity="1" stroke-miterlimit="10" d="M 192.543281 147.403437 C 192.543281 148.278437 191.832344 148.989375 190.957344 148.989375 C 190.078438 148.989375 189.3675 148.278437 189.3675 147.403437 C 189.3675 146.528437 190.078438 145.8175 190.957344 145.8175 C 191.832344 145.8175 192.543281 146.528437 192.543281 147.403437 Z M 192.543281 147.403437 " transform="matrix(1, 0, 0, -1, 31.195, 230.005)"/>
<g fill="rgb(0%, 0%, 0%)" fill-opacity="1">
<use xlink:href="#glyph-4-1" x="257.061" y="84.995"/>
</g>
<g fill="rgb(0%, 0%, 0%)" fill-opacity="1">
<use xlink:href="#glyph-5-1" x="265.7595" y="86.3396"/>
</g>
<g fill="rgb(0%, 0%, 0%)" fill-opacity="1">
<use xlink:href="#glyph-5-2" x="270.507612" y="86.3396"/>
</g>
<path fill="none" stroke-width="0.79701" stroke-linecap="butt" stroke-linejoin="miter" stroke="rgb(0%, 0%, 0%)" stroke-opacity="1" stroke-miterlimit="10" d="M 209.765938 124.727656 L 209.765938 113.387812 L 90.71125 113.387812 " transform="matrix(1, 0, 0, -1, 31.195, 230.005)"/>
<path fill-rule="nonzero" fill="rgb(0%, 0%, 0%)" fill-opacity="1" d="M 124.03125 116.617188 C 124.03125 115.445312 123.078125 114.492188 121.90625 114.492188 C 120.730469 114.492188 119.777344 115.445312 119.777344 116.617188 C 119.777344 117.792969 120.730469 118.742188 121.90625 118.742188 C 123.078125 118.742188 124.03125 117.792969 124.03125 116.617188 Z M 124.03125 116.617188 "/>
<path fill="none" stroke-width="0.79701" stroke-linecap="butt" stroke-linejoin="miter" stroke="rgb(0%, 0%, 0%)" stroke-opacity="1" stroke-miterlimit="10" d="M 181.984688 147.403437 L 178.58625 147.403437 L 178.58625 113.387812 " transform="matrix(1, 0, 0, -1, 31.195, 230.005)"/>
<path fill-rule="nonzero" fill="rgb(0%, 0%, 0%)" fill-opacity="1" d="M 211.90625 116.617188 C 211.90625 115.445312 210.953125 114.492188 209.78125 114.492188 C 208.605469 114.492188 207.652344 115.445312 207.652344 116.617188 C 207.652344 117.792969 208.605469 118.742188 209.78125 118.742188 C 210.953125 118.742188 211.90625 117.792969 211.90625 116.617188 Z M 211.90625 116.617188 "/>
<g fill="rgb(0%, 0%, 0%)" fill-opacity="1">
<use xlink:href="#glyph-6-0" x="5.479" y="316.0021"/>
<use xlink:href="#glyph-6-1" x="10.957434" y="316.0021"/>
<use xlink:href="#glyph-6-2" x="15.440604" y="316.0021"/>
</g>
<g fill="rgb(0%, 0%, 0%)" fill-opacity="1">
<use xlink:href="#glyph-6-3" x="21.663244" y="316.0021"/>
<use xlink:href="#glyph-6-4" x="24.155886" y="316.0021"/>
<use xlink:href="#glyph-6-4" x="28.639056" y="316.0021"/>
<use xlink:href="#glyph-6-5" x="33.122226" y="316.0021"/>
</g>
<g fill="rgb(0%, 0%, 0%)" fill-opacity="1">
<use xlink:href="#glyph-6-4" x="39.846981" y="316.0021"/>
<use xlink:href="#glyph-6-6" x="44.330151" y="316.0021"/>
<use xlink:href="#glyph-6-3" x="48.813321" y="316.0021"/>
<use xlink:href="#glyph-6-7" x="51.305964" y="316.0021"/>
</g>
<g fill="rgb(0%, 0%, 0%)" fill-opacity="1">
<use xlink:href="#glyph-6-8" x="58.030719" y="316.0021"/>
<use xlink:href="#glyph-6-9" x="61.518625" y="316.0021"/>
<use xlink:href="#glyph-6-7" x="65.49968" y="316.0021"/>
<use xlink:href="#glyph-6-8" x="69.98285" y="316.0021"/>
</g>
<g fill="rgb(0%, 0%, 0%)" fill-opacity="1">
<use xlink:href="#glyph-6-10" x="75.712341" y="316.0021"/>
<use xlink:href="#glyph-6-1" x="78.204984" y="316.0021"/>
<use xlink:href="#glyph-6-2" x="82.688154" y="316.0021"/>
</g>
<g fill="rgb(0%, 0%, 0%)" fill-opacity="1">
<use xlink:href="#glyph-6-10" x="88.910794" y="316.0021"/>
<use xlink:href="#glyph-6-11" x="91.403436" y="316.0021"/>
</g>
<g fill="rgb(0%, 0%, 0%)" fill-opacity="1">
<use xlink:href="#glyph-6-4" x="97.78747" y="316.0021"/>
</g>
<g fill="rgb(0%, 0%, 0%)" fill-opacity="1">
<use xlink:href="#glyph-6-12" x="104.512225" y="316.0021"/>
<use xlink:href="#glyph-6-13" x="108.995395" y="316.0021"/>
<use xlink:href="#glyph-6-9" x="111.981187" y="316.0021"/>
<use xlink:href="#glyph-6-6" x="115.962241" y="316.0021"/>
<use xlink:href="#glyph-6-14" x="120.445411" y="316.0021"/>
<use xlink:href="#glyph-6-1" x="124.426466" y="316.0021"/>
<use xlink:href="#glyph-6-2" x="128.909636" y="316.0021"/>
<use xlink:href="#glyph-6-8" x="132.890691" y="316.0021"/>
</g>
<g fill="rgb(0%, 0%, 0%)" fill-opacity="1">
<use xlink:href="#glyph-6-15" x="138.620183" y="316.0021"/>
<use xlink:href="#glyph-6-16" x="145.595995" y="316.0021"/>
<use xlink:href="#glyph-6-8" x="150.079165" y="316.0021"/>
<use xlink:href="#glyph-6-10" x="153.567071" y="316.0021"/>
</g>
<g fill="rgb(0%, 0%, 0%)" fill-opacity="1">
<use xlink:href="#glyph-6-9" x="158.301299" y="316.0021"/>
<use xlink:href="#glyph-6-17" x="162.282354" y="316.0021"/>
<use xlink:href="#glyph-6-13" x="166.765524" y="316.0021"/>
<use xlink:href="#glyph-6-2" x="169.751315" y="316.0021"/>
<use xlink:href="#glyph-6-2" x="173.73237" y="316.0021"/>
<use xlink:href="#glyph-6-18" x="177.713425" y="316.0021"/>
</g>
<g fill="rgb(0%, 0%, 0%)" fill-opacity="1">
<use xlink:href="#glyph-6-9" x="182.196595" y="316.0021"/>
<use xlink:href="#glyph-6-6" x="186.17765" y="316.0021"/>
<use xlink:href="#glyph-6-19" x="190.66082" y="316.0021"/>
</g>
<g fill="rgb(0%, 0%, 0%)" fill-opacity="1">
<use xlink:href="#glyph-6-20" x="197.385575" y="316.0021"/>
<use xlink:href="#glyph-6-2" x="201.36663" y="316.0021"/>
<use xlink:href="#glyph-6-13" x="205.347685" y="316.0021"/>
<use xlink:href="#glyph-6-4" x="208.333476" y="316.0021"/>
</g>
<g fill="rgb(0%, 0%, 0%)" fill-opacity="1">
<use xlink:href="#glyph-6-14" x="215.058231" y="316.0021"/>
<use xlink:href="#glyph-6-16" x="219.039286" y="316.0021"/>
<use xlink:href="#glyph-6-13" x="223.522456" y="316.0021"/>
<use xlink:href="#glyph-6-13" x="226.508247" y="316.0021"/>
<use xlink:href="#glyph-6-2" x="229.494039" y="316.0021"/>
<use xlink:href="#glyph-6-6" x="233.475094" y="316.0021"/>
<use xlink:href="#glyph-6-10" x="237.958264" y="316.0021"/>
</g>
<g fill="rgb(0%, 0%, 0%)" fill-opacity="1">
<use xlink:href="#glyph-6-21" x="242.692491" y="316.0021"/>
<use xlink:href="#glyph-6-6" x="245.185134" y="316.0021"/>
</g>
<g fill="rgb(0%, 0%, 0%)" fill-opacity="1">
<use xlink:href="#glyph-6-12" x="11.3515" y="326.7616"/>
<use xlink:href="#glyph-6-4" x="15.83467" y="326.7616"/>
<use xlink:href="#glyph-6-10" x="20.31784" y="326.7616"/>
<use xlink:href="#glyph-6-1" x="22.810483" y="326.7616"/>
</g>
<g fill="rgb(0%, 0%, 0%)" fill-opacity="1">
<use xlink:href="#glyph-6-9" x="29.535238" y="326.7616"/>
<use xlink:href="#glyph-6-17" x="33.516292" y="326.7616"/>
<use xlink:href="#glyph-6-13" x="37.999462" y="326.7616"/>
<use xlink:href="#glyph-6-2" x="40.985254" y="326.7616"/>
<use xlink:href="#glyph-6-2" x="44.966309" y="326.7616"/>
<use xlink:href="#glyph-6-8" x="48.947364" y="326.7616"/>
</g>
<g fill="rgb(0%, 0%, 0%)" fill-opacity="1">
<use xlink:href="#glyph-6-22" x="54.676855" y="326.7616"/>
<use xlink:href="#glyph-6-16" x="57.169497" y="326.7616"/>
<use xlink:href="#glyph-6-8" x="61.652667" y="326.7616"/>
<use xlink:href="#glyph-6-10" x="65.140574" y="326.7616"/>
</g>
<g fill="rgb(0%, 0%, 0%)" fill-opacity="1">
<use xlink:href="#glyph-6-9" x="69.874801" y="326.7616"/>
<use xlink:href="#glyph-6-8" x="73.855856" y="326.7616"/>
</g>
<g fill="rgb(0%, 0%, 0%)" fill-opacity="1">
<use xlink:href="#glyph-6-11" x="79.585347" y="326.7616"/>
<use xlink:href="#glyph-6-2" x="86.059045" y="326.7616"/>
<use xlink:href="#glyph-6-3" x="90.0401" y="326.7616"/>
<use xlink:href="#glyph-6-3" x="92.532742" y="326.7616"/>
<use xlink:href="#glyph-6-18" x="95.025385" y="326.7616"/>
</g>
<g fill="rgb(0%, 0%, 0%)" fill-opacity="1">
<use xlink:href="#glyph-6-8" x="99.508555" y="326.7616"/>
<use xlink:href="#glyph-6-4" x="102.996461" y="326.7616"/>
</g>
<g fill="rgb(0%, 0%, 0%)" fill-opacity="1">
<use xlink:href="#glyph-6-9" x="109.721216" y="326.7616"/>
</g>
<g fill="rgb(0%, 0%, 0%)" fill-opacity="1">
<use xlink:href="#glyph-6-8" x="115.943856" y="326.7616"/>
<use xlink:href="#glyph-6-10" x="119.431762" y="326.7616"/>
<use xlink:href="#glyph-6-9" x="121.924405" y="326.7616"/>
<use xlink:href="#glyph-6-13" x="125.90546" y="326.7616"/>
<use xlink:href="#glyph-6-10" x="128.891251" y="326.7616"/>
<use xlink:href="#glyph-6-16" x="131.383894" y="326.7616"/>
<use xlink:href="#glyph-6-5" x="135.867064" y="326.7616"/>
</g>
<g fill="rgb(0%, 0%, 0%)" fill-opacity="1">
<use xlink:href="#glyph-6-19" x="142.591819" y="326.7616"/>
<use xlink:href="#glyph-6-2" x="147.074989" y="326.7616"/>
</g>
<g fill="rgb(0%, 0%, 0%)" fill-opacity="1">
<use xlink:href="#glyph-6-23" x="150.831885" y="326.7616"/>
<use xlink:href="#glyph-6-21" x="155.315055" y="326.7616"/>
<use xlink:href="#glyph-6-14" x="157.807698" y="326.7616"/>
<use xlink:href="#glyph-6-2" x="161.788753" y="326.7616"/>
</g>
<g fill="rgb(0%, 0%, 0%)" fill-opacity="1">
<use xlink:href="#glyph-6-21" x="168.011392" y="326.7616"/>
<use xlink:href="#glyph-6-8" x="170.504035" y="326.7616"/>
</g>
<g fill="rgb(0%, 0%, 0%)" fill-opacity="1">
<use xlink:href="#glyph-6-6" x="176.233526" y="326.7616"/>
<use xlink:href="#glyph-6-4" x="180.716696" y="326.7616"/>
<use xlink:href="#glyph-6-10" x="185.199866" y="326.7616"/>
</g>
<g fill="rgb(0%, 0%, 0%)" fill-opacity="1">
<use xlink:href="#glyph-6-4" x="189.934094" y="326.7616"/>
<use xlink:href="#glyph-6-5" x="194.417264" y="326.7616"/>
<use xlink:href="#glyph-6-10" x="198.900434" y="326.7616"/>
<use xlink:href="#glyph-6-21" x="201.393076" y="326.7616"/>
<use xlink:href="#glyph-6-4" x="203.885719" y="326.7616"/>
<use xlink:href="#glyph-6-6" x="208.368889" y="326.7616"/>
<use xlink:href="#glyph-6-9" x="212.852059" y="326.7616"/>
<use xlink:href="#glyph-6-3" x="216.833114" y="326.7616"/>
<use xlink:href="#glyph-6-24" x="219.325756" y="326.7616"/>
</g>
<g fill="rgb(0%, 0%, 0%)" fill-opacity="1">
<use xlink:href="#glyph-4-1" x="224.3446" y="326.7616"/>
</g>
<g fill="rgb(0%, 0%, 0%)" fill-opacity="1">
<use xlink:href="#glyph-5-1" x="233.0431" y="328.1062"/>
</g>
<g fill="rgb(0%, 0%, 0%)" fill-opacity="1">
<use xlink:href="#glyph-5-2" x="237.791212" y="328.1062"/>
</g>
<g fill="rgb(0%, 0%, 0%)" fill-opacity="1">
<use xlink:href="#glyph-6-3" x="8.5435" y="337.5211"/>
<use xlink:href="#glyph-6-21" x="11.036143" y="337.5211"/>
<use xlink:href="#glyph-6-25" x="13.528785" y="337.5211"/>
<use xlink:href="#glyph-6-10" x="16.514576" y="337.5211"/>
<use xlink:href="#glyph-6-8" x="19.007219" y="337.5211"/>
</g>
<g fill="rgb(0%, 0%, 0%)" fill-opacity="1">
<use xlink:href="#glyph-6-10" x="24.73671" y="337.5211"/>
<use xlink:href="#glyph-6-1" x="27.229353" y="337.5211"/>
<use xlink:href="#glyph-6-2" x="31.712523" y="337.5211"/>
</g>
<g fill="rgb(0%, 0%, 0%)" fill-opacity="1">
<use xlink:href="#glyph-6-26" x="37.935163" y="337.5211"/>
<use xlink:href="#glyph-6-27" x="44.40886" y="337.5211"/>
<use xlink:href="#glyph-6-28" x="52.379936" y="337.5211"/>
<use xlink:href="#glyph-6-29" x="58.853634" y="337.5211"/>
</g>
<g fill="rgb(0%, 0%, 0%)" fill-opacity="1">
<use xlink:href="#glyph-6-13" x="66.080504" y="337.5211"/>
<use xlink:href="#glyph-6-9" x="69.066295" y="337.5211"/>
<use xlink:href="#glyph-6-21" x="73.04735" y="337.5211"/>
<use xlink:href="#glyph-6-3" x="75.539992" y="337.5211"/>
</g>
<g fill="rgb(0%, 0%, 0%)" fill-opacity="1">
<use xlink:href="#glyph-6-4" x="80.27422" y="337.5211"/>
<use xlink:href="#glyph-6-25" x="84.75739" y="337.5211"/>
</g>
<g fill="rgb(0%, 0%, 0%)" fill-opacity="1">
<use xlink:href="#glyph-6-25" x="87.519023" y="337.5211"/>
</g>
<g fill="rgb(0%, 0%, 0%)" fill-opacity="1">
<use xlink:href="#glyph-6-17" x="92.746399" y="337.5211"/>
<use xlink:href="#glyph-6-13" x="97.229569" y="337.5211"/>
<use xlink:href="#glyph-6-4" x="100.21536" y="337.5211"/>
<use xlink:href="#glyph-6-16" x="104.69853" y="337.5211"/>
<use xlink:href="#glyph-6-6" x="109.1817" y="337.5211"/>
<use xlink:href="#glyph-6-19" x="113.66487" y="337.5211"/>
</g>
<g fill="rgb(0%, 0%, 0%)" fill-opacity="1">
<use xlink:href="#glyph-6-16" x="120.389625" y="337.5211"/>
<use xlink:href="#glyph-6-6" x="124.872795" y="337.5211"/>
<use xlink:href="#glyph-6-10" x="129.355965" y="337.5211"/>
<use xlink:href="#glyph-6-21" x="131.848608" y="337.5211"/>
<use xlink:href="#glyph-6-3" x="134.34125" y="337.5211"/>
</g>
<g fill="rgb(0%, 0%, 0%)" fill-opacity="1">
<use xlink:href="#glyph-6-10" x="139.075478" y="337.5211"/>
<use xlink:href="#glyph-6-1" x="141.56812" y="337.5211"/>
<use xlink:href="#glyph-6-2" x="146.05129" y="337.5211"/>
</g>
<g fill="rgb(0%, 0%, 0%)" fill-opacity="1">
<use xlink:href="#glyph-6-3" x="152.27393" y="337.5211"/>
<use xlink:href="#glyph-6-4" x="154.766573" y="337.5211"/>
<use xlink:href="#glyph-6-4" x="159.249743" y="337.5211"/>
<use xlink:href="#glyph-6-5" x="163.732913" y="337.5211"/>
</g>
<g fill="rgb(0%, 0%, 0%)" fill-opacity="1">
<use xlink:href="#glyph-6-10" x="170.457668" y="337.5211"/>
<use xlink:href="#glyph-6-9" x="172.95031" y="337.5211"/>
<use xlink:href="#glyph-6-30" x="176.931365" y="337.5211"/>
</g>
<g fill="rgb(0%, 0%, 0%)" fill-opacity="1">
<use xlink:href="#glyph-6-2" x="181.324872" y="337.5211"/>
<use xlink:href="#glyph-6-8" x="185.305927" y="337.5211"/>
</g>
<g fill="rgb(0%, 0%, 0%)" fill-opacity="1">
<use xlink:href="#glyph-6-4" x="191.035418" y="337.5211"/>
</g>
<g fill="rgb(0%, 0%, 0%)" fill-opacity="1">
<use xlink:href="#glyph-6-23" x="195.384093" y="337.5211"/>
</g>
<g fill="rgb(0%, 0%, 0%)" fill-opacity="1">
<use xlink:href="#glyph-6-2" x="199.732768" y="337.5211"/>
<use xlink:href="#glyph-6-13" x="203.713823" y="337.5211"/>
</g>
<g fill="rgb(0%, 0%, 0%)" fill-opacity="1">
<use xlink:href="#glyph-6-24" x="206.206465" y="337.5211"/>
</g>
<g fill="rgb(0%, 0%, 0%)" fill-opacity="1">
<use xlink:href="#glyph-4-1" x="211.2262" y="337.5211"/>
</g>
<g fill="rgb(0%, 0%, 0%)" fill-opacity="1">
<use xlink:href="#glyph-5-0" x="219.9247" y="338.8666"/>
</g>
<g fill="rgb(0%, 0%, 0%)" fill-opacity="1">
<use xlink:href="#glyph-6-14" x="228.6709" y="337.5211"/>
<use xlink:href="#glyph-6-4" x="232.651955" y="337.5211"/>
<use xlink:href="#glyph-6-8" x="237.135125" y="337.5211"/>
<use xlink:href="#glyph-6-10" x="240.623031" y="337.5211"/>
<use xlink:href="#glyph-6-8" x="243.115674" y="337.5211"/>
</g>
<g fill="rgb(0%, 0%, 0%)" fill-opacity="1">
<use xlink:href="#glyph-6-21" x="14.6608" y="348.2806"/>
<use xlink:href="#glyph-6-10" x="17.153443" y="348.2806"/>
</g>
<g fill="rgb(0%, 0%, 0%)" fill-opacity="1">
<use xlink:href="#glyph-6-9" x="21.88767" y="348.2806"/>
</g>
<g fill="rgb(0%, 0%, 0%)" fill-opacity="1">
<use xlink:href="#glyph-6-10" x="28.11031" y="348.2806"/>
<use xlink:href="#glyph-6-1" x="30.602953" y="348.2806"/>
<use xlink:href="#glyph-6-13" x="35.086123" y="348.2806"/>
<use xlink:href="#glyph-6-2" x="38.071914" y="348.2806"/>
<use xlink:href="#glyph-6-8" x="42.052969" y="348.2806"/>
<use xlink:href="#glyph-6-1" x="45.540875" y="348.2806"/>
<use xlink:href="#glyph-6-4" x="50.024045" y="348.2806"/>
<use xlink:href="#glyph-6-3" x="54.507215" y="348.2806"/>
<use xlink:href="#glyph-6-19" x="56.999857" y="348.2806"/>
</g>
<g fill="rgb(0%, 0%, 0%)" fill-opacity="1">
<use xlink:href="#glyph-6-4" x="63.724612" y="348.2806"/>
<use xlink:href="#glyph-6-25" x="68.207782" y="348.2806"/>
</g>
<g fill="rgb(0%, 0%, 0%)" fill-opacity="1">
<use xlink:href="#glyph-6-19" x="73.435159" y="348.2806"/>
<use xlink:href="#glyph-6-13" x="77.918329" y="348.2806"/>
<use xlink:href="#glyph-6-21" x="80.90412" y="348.2806"/>
</g>
<g fill="rgb(0%, 0%, 0%)" fill-opacity="1">
<use xlink:href="#glyph-6-23" x="83.172604" y="348.2806"/>
</g>
<g fill="rgb(0%, 0%, 0%)" fill-opacity="1">
<use xlink:href="#glyph-6-2" x="87.521279" y="348.2806"/>
<use xlink:href="#glyph-6-18" x="91.502334" y="348.2806"/>
</g>
<g fill="rgb(0%, 0%, 0%)" fill-opacity="1">
<use xlink:href="#glyph-6-11" x="95.985504" y="348.2806"/>
<use xlink:href="#glyph-6-1" x="102.459201" y="348.2806"/>
<use xlink:href="#glyph-6-21" x="106.942371" y="348.2806"/>
<use xlink:href="#glyph-6-14" x="109.435014" y="348.2806"/>
<use xlink:href="#glyph-6-1" x="113.416069" y="348.2806"/>
</g>
<g fill="rgb(0%, 0%, 0%)" fill-opacity="1">
<use xlink:href="#glyph-6-21" x="120.140824" y="348.2806"/>
<use xlink:href="#glyph-6-8" x="122.633466" y="348.2806"/>
</g>
<g fill="rgb(0%, 0%, 0%)" fill-opacity="1">
<use xlink:href="#glyph-6-11" x="128.362958" y="348.2806"/>
<use xlink:href="#glyph-6-1" x="134.836655" y="348.2806"/>
<use xlink:href="#glyph-6-9" x="139.319825" y="348.2806"/>
<use xlink:href="#glyph-6-10" x="143.30088" y="348.2806"/>
</g>
<g fill="rgb(0%, 0%, 0%)" fill-opacity="1">
<use xlink:href="#glyph-6-15" x="148.035108" y="348.2806"/>
<use xlink:href="#glyph-6-9" x="155.01092" y="348.2806"/>
<use xlink:href="#glyph-6-30" x="158.991975" y="348.2806"/>
</g>
<g fill="rgb(0%, 0%, 0%)" fill-opacity="1">
<use xlink:href="#glyph-6-2" x="163.385482" y="348.2806"/>
<use xlink:href="#glyph-6-8" x="167.366537" y="348.2806"/>
</g>
<g fill="rgb(0%, 0%, 0%)" fill-opacity="1">
<use xlink:href="#glyph-6-21" x="173.096028" y="348.2806"/>
<use xlink:href="#glyph-6-10" x="175.58867" y="348.2806"/>
</g>
<g fill="rgb(0%, 0%, 0%)" fill-opacity="1">
<use xlink:href="#glyph-6-3" x="180.322898" y="348.2806"/>
<use xlink:href="#glyph-6-2" x="182.81554" y="348.2806"/>
<use xlink:href="#glyph-6-10" x="186.796595" y="348.2806"/>
</g>
<g fill="rgb(0%, 0%, 0%)" fill-opacity="1">
<use xlink:href="#glyph-6-17" x="191.530823" y="348.2806"/>
<use xlink:href="#glyph-6-4" x="196.013993" y="348.2806"/>
</g>
<g fill="rgb(0%, 0%, 0%)" fill-opacity="1">
<use xlink:href="#glyph-6-9" x="202.738748" y="348.2806"/>
<use xlink:href="#glyph-6-25" x="206.719803" y="348.2806"/>
<use xlink:href="#glyph-6-10" x="209.705594" y="348.2806"/>
<use xlink:href="#glyph-6-2" x="212.198237" y="348.2806"/>
<use xlink:href="#glyph-6-13" x="216.179292" y="348.2806"/>
<use xlink:href="#glyph-6-11" x="219.165083" y="348.2806"/>
</g>
<g fill="rgb(0%, 0%, 0%)" fill-opacity="1">
<use xlink:href="#glyph-6-9" x="225.549117" y="348.2806"/>
<use xlink:href="#glyph-6-13" x="229.530172" y="348.2806"/>
<use xlink:href="#glyph-6-19" x="232.515963" y="348.2806"/>
<use xlink:href="#glyph-6-8" x="236.999133" y="348.2806"/>
</g>
<g fill="rgb(0%, 0%, 0%)" fill-opacity="1">
<use xlink:href="#glyph-6-21" x="30.6385" y="359.041"/>
<use xlink:href="#glyph-6-6" x="33.131143" y="359.041"/>
<use xlink:href="#glyph-6-8" x="37.614313" y="359.041"/>
<use xlink:href="#glyph-6-10" x="41.102219" y="359.041"/>
<use xlink:href="#glyph-6-2" x="43.594861" y="359.041"/>
<use xlink:href="#glyph-6-9" x="47.575916" y="359.041"/>
<use xlink:href="#glyph-6-19" x="51.556971" y="359.041"/>
</g>
<g fill="rgb(0%, 0%, 0%)" fill-opacity="1">
<use xlink:href="#glyph-6-4" x="58.281726" y="359.041"/>
<use xlink:href="#glyph-6-25" x="62.764896" y="359.041"/>
</g>
<g fill="rgb(0%, 0%, 0%)" fill-opacity="1">
<use xlink:href="#glyph-6-3" x="67.992272" y="359.041"/>
<use xlink:href="#glyph-6-2" x="70.484915" y="359.041"/>
<use xlink:href="#glyph-6-9" x="74.46597" y="359.041"/>
<use xlink:href="#glyph-6-30" x="78.447025" y="359.041"/>
<use xlink:href="#glyph-6-21" x="82.930195" y="359.041"/>
<use xlink:href="#glyph-6-6" x="85.422837" y="359.041"/>
<use xlink:href="#glyph-6-17" x="89.906007" y="359.041"/>
</g>
<g fill="rgb(0%, 0%, 0%)" fill-opacity="1">
<use xlink:href="#glyph-6-21" x="96.630762" y="359.041"/>
<use xlink:href="#glyph-6-6" x="99.123405" y="359.041"/>
<use xlink:href="#glyph-6-10" x="103.606575" y="359.041"/>
<use xlink:href="#glyph-6-4" x="106.099217" y="359.041"/>
</g>
<g fill="rgb(0%, 0%, 0%)" fill-opacity="1">
<use xlink:href="#glyph-6-9" x="112.823972" y="359.041"/>
</g>
<g fill="rgb(0%, 0%, 0%)" fill-opacity="1">
<use xlink:href="#glyph-6-8" x="119.046612" y="359.041"/>
<use xlink:href="#glyph-6-15" x="122.534519" y="359.041"/>
<use xlink:href="#glyph-6-9" x="129.510331" y="359.041"/>
<use xlink:href="#glyph-6-3" x="133.491386" y="359.041"/>
<use xlink:href="#glyph-6-3" x="135.984029" y="359.041"/>
</g>
<g fill="rgb(0%, 0%, 0%)" fill-opacity="1">
<use xlink:href="#glyph-6-12" x="140.718256" y="359.041"/>
<use xlink:href="#glyph-6-13" x="145.201426" y="359.041"/>
<use xlink:href="#glyph-6-9" x="148.187217" y="359.041"/>
<use xlink:href="#glyph-6-6" x="152.168272" y="359.041"/>
<use xlink:href="#glyph-6-14" x="156.651442" y="359.041"/>
<use xlink:href="#glyph-6-1" x="160.632497" y="359.041"/>
</g>
<g fill="rgb(0%, 0%, 0%)" fill-opacity="1">
<use xlink:href="#glyph-6-14" x="167.357252" y="359.041"/>
<use xlink:href="#glyph-6-16" x="171.338307" y="359.041"/>
<use xlink:href="#glyph-6-13" x="175.821477" y="359.041"/>
<use xlink:href="#glyph-6-13" x="178.807269" y="359.041"/>
<use xlink:href="#glyph-6-2" x="181.79306" y="359.041"/>
<use xlink:href="#glyph-6-6" x="185.774115" y="359.041"/>
<use xlink:href="#glyph-6-10" x="190.257285" y="359.041"/>
</g>
<g fill="rgb(0%, 0%, 0%)" fill-opacity="1">
<use xlink:href="#glyph-6-25" x="194.991512" y="359.041"/>
<use xlink:href="#glyph-6-4" x="197.977303" y="359.041"/>
<use xlink:href="#glyph-6-13" x="202.460473" y="359.041"/>
</g>
<g fill="rgb(0%, 0%, 0%)" fill-opacity="1">
<use xlink:href="#glyph-6-2" x="207.68785" y="359.041"/>
</g>
<g fill="rgb(0%, 0%, 0%)" fill-opacity="1">
<use xlink:href="#glyph-6-23" x="211.444746" y="359.041"/>
</g>
<g fill="rgb(0%, 0%, 0%)" fill-opacity="1">
<use xlink:href="#glyph-6-2" x="215.793421" y="359.041"/>
<use xlink:href="#glyph-6-13" x="219.774476" y="359.041"/>
</g>
<g fill="rgb(0%, 0%, 0%)" fill-opacity="1">
<use xlink:href="#glyph-6-24" x="222.267118" y="359.041"/>
</g>
</svg>
