<?xml version="1.0" encoding="UTF-8" standalone="no"?>
<!DOCTYPE svg PUBLIC "-//W3C//DTD SVG 1.1//EN"
 "http://www.w3.org/Graphics/SVG/1.1/DTD/svg11.dtd">
<!-- Generated by graphviz version 12.2.1 (20241206.2353)
 -->
<!-- Title: finite_state_machine Pages: 1 -->
<svg width="576pt" height="192pt"
 viewBox="0.00 0.00 576.00 192.05" xmlns="http://www.w3.org/2000/svg" xmlns:xlink="http://www.w3.org/1999/xlink">
<g id="graph0" class="graph" transform="scale(0.948776 0.948776) rotate(0) translate(4 198.42)">
<title>finite_state_machine</title>
<polygon fill="white" stroke="none" points="-4,4 -4,-198.42 603.1,-198.42 603.1,4 -4,4"/>
<!-- idle -->
<g id="node1" class="node">
<title>idle</title>
<ellipse fill="none" stroke="black" cx="49.96" cy="-49.96" rx="45.96" ry="45.96"/>
<ellipse fill="none" stroke="black" cx="49.96" cy="-49.96" rx="49.96" ry="49.96"/>
<text text-anchor="middle" x="49.96" y="-67.06" font-family="Times,serif" font-size="12.00">IDLE</text>
<text text-anchor="middle" x="49.96" y="-52.81" font-family="Times,serif" font-size="12.00">a=0 </text>
<text text-anchor="middle" x="49.96" y="-38.56" font-family="Times,serif" font-size="12.00">b=0</text>
<text text-anchor="middle" x="49.96" y="-24.31" font-family="Times,serif" font-size="12.00">count=0</text>
</g>
<!-- idle&#45;&gt;idle -->
<g id="edge2" class="edge">
<title>idle&#45;&gt;idle</title>
<path fill="none" stroke="black" d="M33.75,-97.6C34.95,-109.25 40.35,-117.92 49.96,-117.92 56.27,-117.92 60.76,-114.19 63.45,-108.33"/>
<polygon fill="black" stroke="black" points="66.73,-109.62 65.8,-99.07 59.94,-107.89 66.73,-109.62"/>
<text text-anchor="middle" x="49.96" y="-121.12" font-family="Times,serif" font-size="14.00">vol = 0</text>
</g>
<!-- up -->
<g id="node2" class="node">
<title>up</title>
<ellipse fill="none" stroke="black" cx="273.55" cy="-113.96" rx="45.96" ry="45.96"/>
<text text-anchor="middle" x="273.55" y="-131.06" font-family="Times,serif" font-size="12.00">UP</text>
<text text-anchor="middle" x="273.55" y="-116.81" font-family="Times,serif" font-size="12.00">a=1</text>
<text text-anchor="middle" x="273.55" y="-102.56" font-family="Times,serif" font-size="12.00">b=0</text>
<text text-anchor="middle" x="273.55" y="-88.31" font-family="Times,serif" font-size="12.00">count++</text>
</g>
<!-- idle&#45;&gt;up -->
<g id="edge1" class="edge">
<title>idle&#45;&gt;up</title>
<path fill="none" stroke="black" d="M98.5,-63.69C133.53,-73.81 181.26,-87.59 217.87,-98.17"/>
<polygon fill="black" stroke="black" points="216.82,-101.51 227.4,-100.92 218.76,-94.78 216.82,-101.51"/>
<text text-anchor="middle" x="137.8" y="-83.24" font-family="Times,serif" font-size="14.00">vol = 1</text>
</g>
<!-- up&#45;&gt;up -->
<g id="edge4" class="edge">
<title>up&#45;&gt;up</title>
<path fill="none" stroke="black" d="M248.12,-152.68C247.57,-166.59 256.05,-177.92 273.55,-177.92 285.99,-177.92 293.87,-172.19 297.19,-163.88"/>
<polygon fill="black" stroke="black" points="300.62,-164.6 298.74,-154.18 293.71,-163.5 300.62,-164.6"/>
<text text-anchor="middle" x="273.55" y="-181.12" font-family="Times,serif" font-size="14.00">count &lt; up_cycles</text>
</g>
<!-- dwn -->
<g id="node3" class="node">
<title>dwn</title>
<ellipse fill="none" stroke="black" cx="553.14" cy="-49.96" rx="45.96" ry="45.96"/>
<text text-anchor="middle" x="553.14" y="-67.06" font-family="Times,serif" font-size="12.00">DWN</text>
<text text-anchor="middle" x="553.14" y="-52.81" font-family="Times,serif" font-size="12.00">a=0</text>
<text text-anchor="middle" x="553.14" y="-38.56" font-family="Times,serif" font-size="12.00">b=1</text>
<text text-anchor="middle" x="553.14" y="-24.31" font-family="Times,serif" font-size="12.00">count++</text>
</g>
<!-- up&#45;&gt;dwn -->
<g id="edge3" class="edge">
<title>up&#45;&gt;dwn</title>
<path fill="none" stroke="black" d="M318.84,-103.75C367.18,-92.6 444.65,-74.74 496.92,-62.69"/>
<polygon fill="black" stroke="black" points="497.57,-66.13 506.53,-60.48 496,-59.31 497.57,-66.13"/>
<text text-anchor="middle" x="439.3" y="-88.99" font-family="Times,serif" font-size="14.00">count = up_cycles</text>
</g>
<!-- dwn&#45;&gt;idle -->
<g id="edge5" class="edge">
<title>dwn&#45;&gt;idle</title>
<path fill="none" stroke="black" d="M506.85,-47.56C470.31,-45.75 417.57,-43.42 371.42,-42.46 284.44,-40.66 262.63,-39.85 175.67,-42.46 154.73,-43.09 131.84,-44.31 111.45,-45.59"/>
<polygon fill="black" stroke="black" points="111.36,-42.09 101.6,-46.23 111.81,-49.08 111.36,-42.09"/>
<text text-anchor="middle" x="273.55" y="-45.66" font-family="Times,serif" font-size="14.00">(count &gt; (up_cycles+1)) &amp; (vz = 1)</text>
</g>
<!-- dwn&#45;&gt;dwn -->
<g id="edge6" class="edge">
<title>dwn&#45;&gt;dwn</title>
<path fill="none" stroke="black" d="M531.81,-91.18C532.24,-103.92 539.35,-113.92 553.14,-113.92 562.61,-113.92 568.93,-109.2 572.1,-102.1"/>
<polygon fill="black" stroke="black" points="575.45,-103.17 574.14,-92.66 568.61,-101.69 575.45,-103.17"/>
<text text-anchor="middle" x="553.14" y="-117.12" font-family="Times,serif" font-size="14.00">vz = 0</text>
</g>
</g>
</svg>
