<svg xmlns="http://www.w3.org/2000/svg" xmlns:xlink="http://www.w3.org/1999/xlink" width="1787" height="1032" version="1.1">
<style type="text/css">
.l0{
  fill: #000000;
  stroke: #000000;
  stroke-linecap:round;
  stroke-linejoin:round;
  stroke-width: 2.14686;
}
.l1{
  fill: #00ccee;
  stroke: #00ccee;
  stroke-linecap:round;
  stroke-linejoin:round;
  stroke-width: 2.14686;
}
.l2{
  fill: #3f3f3f; fill-opacity: 0.2;
  stroke: #3f3f3f;
  stroke-linecap:round;
  stroke-linejoin:round;
  stroke-width: 2.14686;
}
.l3{
  fill: #cccccc; fill-opacity: 0.5;
  stroke: #cccccc;
  stroke-linecap:round;
  stroke-linejoin:round;
  stroke-width: 2.14686;
}
.l4{
  fill: #88dd00;
  stroke: #88dd00;
  stroke-linecap:round;
  stroke-linejoin:round;
  stroke-width: 2.14686;
}
.l5{
  fill: #bb2200;
  stroke: #bb2200;
  stroke-linecap:round;
  stroke-linejoin:round;
  stroke-width: 2.14686;
}
.l6{
  fill: #00ccee; fill-opacity: 0.5;
  stroke: #00ccee;
  stroke-linecap:round;
  stroke-linejoin:round;
  stroke-width: 2.14686;
}
.l7{
  fill: #ff0000; fill-opacity: 0.5;
  stroke: #ff0000;
  stroke-linecap:round;
  stroke-linejoin:round;
  stroke-width: 2.14686;
}
.l8{
  fill: #ffff00; fill-opacity: 0.5;
  stroke: #ffff00;
  stroke-linecap:round;
  stroke-linejoin:round;
  stroke-width: 2.14686;
}
.l9{
  fill: #ffffff; fill-opacity: 0.5;
  stroke: #ffffff;
  stroke-linecap:round;
  stroke-linejoin:round;
  stroke-width: 2.14686;
}
.l10{
  fill: #ff00ff;
  stroke: #ff00ff;
  stroke-linecap:round;
  stroke-linejoin:round;
  stroke-width: 2.14686;
}
.l11{
  fill: #00ff00; fill-opacity: 0.5;
  stroke: #00ff00;
  stroke-linecap:round;
  stroke-linejoin:round;
  stroke-width: 2.14686;
}
.l12{
  fill: #0044dd; fill-opacity: 0.5;
  stroke: #0044dd;
  stroke-linecap:round;
  stroke-linejoin:round;
  stroke-width: 2.14686;
}
.l13{
  fill: #aaaa00; fill-opacity: 0.5;
  stroke: #aaaa00;
  stroke-linecap:round;
  stroke-linejoin:round;
  stroke-width: 2.14686;
}
.l14{
  fill: #aaccaa; fill-opacity: 0.2;
  stroke: #aaccaa;
  stroke-linecap:round;
  stroke-linejoin:round;
  stroke-width: 2.14686;
}
.l15{
  fill: #ff7777; fill-opacity: 0.5;
  stroke: #ff7777;
  stroke-linecap:round;
  stroke-linejoin:round;
  stroke-width: 2.14686;
}
.l16{
  fill: #bfff81; fill-opacity: 0.5;
  stroke: #bfff81;
  stroke-linecap:round;
  stroke-linejoin:round;
  stroke-width: 2.14686;
}
.l17{
  fill: #00ffcc; fill-opacity: 0.2;
  stroke: #00ffcc;
  stroke-linecap:round;
  stroke-linejoin:round;
  stroke-width: 2.14686;
}
.l18{
  fill: #ce0097; fill-opacity: 0.5;
  stroke: #ce0097;
  stroke-linecap:round;
  stroke-linejoin:round;
  stroke-width: 2.14686;
}
.l19{
  fill: #d2d46b; fill-opacity: 0.2;
  stroke: #d2d46b;
  stroke-linecap:round;
  stroke-linejoin:round;
  stroke-width: 2.14686;
}
.l20{
  fill: #ef6158; fill-opacity: 0.2;
  stroke: #ef6158;
  stroke-linecap:round;
  stroke-linejoin:round;
  stroke-width: 2.14686;
}
.l21{
  fill: #fdb200; fill-opacity: 0.2;
  stroke: #fdb200;
  stroke-linecap:round;
  stroke-linejoin:round;
  stroke-width: 2.14686;
}
text {font-family: Sans-Serif;}
</style>
<rect class="l0" x="0" y="0" width="1787" height="1032"/>
<path class="l4" d="M1426.24 666.081L1426.24 697.887"/>
<path class="l4" d="M1219.5 761.497L1219.5 793.303"/>
<path class="l4" d="M1537.56 761.497L1537.56 793.303"/>
<path class="l4" d="M901.451 761.497L901.451 793.303"/>
<path class="l4" d="M241.491 761.497L241.491 793.303"/>
<path class="l4" d="M26.805 761.497L58.6103 761.497"/>
<path class="l4" d="M58.6103 761.497L58.6103 793.303"/>
<path class="l4" d="M1728.39 761.497L1760.19 761.497"/>
<path class="l4" d="M1728.39 761.497L1728.39 793.303"/>
<path class="l4" d="M1426.24 634.276L1426.24 666.081"/>
<path class="l4" d="M1426.24 697.887L1426.24 729.692"/>
<path class="l4" style="fill:none;" d="M1306.97 761.497L1760.19 761.497L1760.19 634.276L1306.97 634.276L1306.97 761.497"/>
<path class="l4" style="fill:none;" d="M1306.97 666.081L1728.39 666.081L1728.39 634.276L1306.97 634.276L1306.97 666.081"/>
<path class="l4" style="fill:none;" d="M26.805 793.303L1760.19 793.303L1760.19 761.497L26.805 761.497L26.805 793.303"/>
<path class="l4" style="fill:none;" d="M1306.97 761.497L1728.39 761.497L1728.39 729.692L1306.97 729.692L1306.97 761.497"/>
<path class="l4" style="fill:none;" d="M1306.97 729.692L1728.39 729.692L1728.39 697.887L1306.97 697.887L1306.97 729.692"/>
<path class="l4" style="fill:none;" d="M1306.97 697.887L1728.39 697.887L1728.39 666.081L1306.97 666.081L1306.97 697.887"/>
<path class="l4" d="M583.398 435.493L599.301 427.541"/>
<path class="l4" d="M583.398 435.493L599.301 443.444"/>
<path class="l4" d="M583.398 387.785L615.203 387.785"/>
<path class="l4" d="M583.398 363.931L583.398 387.785"/>
<path class="l4" d="M583.398 435.493L615.203 435.493"/>
<path class="l4" d="M583.398 435.493L583.398 459.347"/>
<path class="l4" d="M583.398 411.639L615.203 411.639"/>
<path class="l4" d="M615.203 387.785L615.203 435.493"/>
<path class="l4" d="M623.155 387.785L623.155 435.493"/>
<path class="l4" d="M623.155 411.639L647.009 411.639"/>
<path class="l4" d="M917.354 427.541L933.257 435.493"/>
<path class="l4" d="M917.354 443.444L933.257 435.493"/>
<path class="l4" d="M901.451 387.785L933.257 387.785"/>
<path class="l4" d="M933.257 363.931L933.257 387.785"/>
<path class="l4" d="M901.451 435.493L933.257 435.493"/>
<path class="l4" d="M933.257 435.493L933.257 459.347"/>
<path class="l4" d="M901.451 411.639L933.257 411.639"/>
<path class="l4" d="M901.451 387.785L901.451 435.493"/>
<path class="l4" d="M893.5 387.785L893.5 435.493"/>
<path class="l4" d="M869.646 411.639L893.5 411.639"/>
<path class="l4" d="M1124.09 427.541L1139.99 435.493"/>
<path class="l4" d="M1124.09 443.444L1139.99 435.493"/>
<path class="l4" d="M1108.19 387.785L1139.99 387.785"/>
<path class="l4" d="M1139.99 363.931L1139.99 387.785"/>
<path class="l4" d="M1108.19 435.493L1139.99 435.493"/>
<path class="l4" d="M1139.99 435.493L1139.99 459.347"/>
<path class="l4" d="M1108.19 411.639L1139.99 411.639"/>
<path class="l4" d="M1108.19 387.785L1108.19 435.493"/>
<path class="l4" d="M1100.23 387.785L1100.23 435.493"/>
<path class="l4" d="M1076.38 411.639L1100.23 411.639"/>
<path class="l5" d="M273.296 284.418L281.248 284.418"/>
<path class="l5" d="M273.296 284.418L267.333 276.466L253.418 276.466L259.381 284.418L253.418 292.369L267.333 292.369L273.296 284.418"/>
<path class="l5" d="M279.26 282.43L283.235 282.43L283.235 286.405L279.26 286.405L279.26 282.43z"/>
<path class="l5" d="M177.88 507.055L185.832 507.055"/>
<path class="l5" d="M177.88 507.055L171.917 499.103L158.002 499.103L163.965 507.055L158.002 515.006L171.917 515.006L177.88 507.055"/>
<path class="l5" d="M183.844 505.067L187.819 505.067L187.819 509.043L183.844 509.043L183.844 505.067z"/>
<path class="l5" d="M1378.53 252.612L1392.45 252.612"/>
<path class="l5" d="M1406.36 252.612L1400.4 244.661L1386.48 244.661L1392.45 252.612L1386.48 260.564L1400.4 260.564L1406.36 252.612"/>
<path class="l5" d="M1376.54 250.624L1380.52 250.624L1380.52 254.6L1376.54 254.6L1376.54 250.624z"/>
<path class="l5" d="M577.037 357.57L589.759 357.57L589.759 370.292L577.037 370.292L577.037 357.57z"/>
<path class="l5" d="M640.648 405.278L653.37 405.278L653.37 418L640.648 418L640.648 405.278z"/>
<path class="l5" d="M577.037 452.986L589.759 452.986L589.759 465.708L577.037 465.708L577.037 452.986z"/>
<path class="l5" d="M577.037 405.278L589.759 405.278L589.759 418L577.037 418L577.037 405.278z"/>
<path class="l5" d="M926.896 357.57L939.618 357.57L939.618 370.292L926.896 370.292L926.896 357.57z"/>
<path class="l5" d="M863.285 405.278L876.007 405.278L876.007 418L863.285 418L863.285 405.278z"/>
<path class="l5" d="M926.896 452.986L939.618 452.986L939.618 465.708L926.896 465.708L926.896 452.986z"/>
<path class="l5" d="M926.896 405.278L939.618 405.278L939.618 418L926.896 418L926.896 405.278z"/>
<path class="l5" d="M1133.63 357.57L1146.35 357.57L1146.35 370.292L1133.63 370.292L1133.63 357.57z"/>
<path class="l5" d="M1070.02 405.278L1082.74 405.278L1082.74 418L1070.02 418L1070.02 405.278z"/>
<path class="l5" d="M1133.63 452.986L1146.35 452.986L1146.35 465.708L1133.63 465.708L1133.63 452.986z"/>
<path class="l5" d="M1133.63 405.278L1146.35 405.278L1146.35 418L1133.63 418L1133.63 405.278z"/>
<text fill="#cccccc"  xml:space="preserve" font-size="20.6735" transform="translate(1314.92, 688.756)" >Updated</text>
<text fill="#cccccc"  xml:space="preserve" font-size="20.6735" transform="translate(66.5617, 784.171)" >Library/Cell</text>
<text fill="#cccccc"  xml:space="preserve" font-size="20.6735" transform="translate(1314.92, 656.95)" >Designer</text>
<text fill="#cccccc"  xml:space="preserve" font-size="20.6735" transform="translate(1314.92, 720.561)" >Modified</text>
<text fill="#cccccc"  xml:space="preserve" font-size="20.6735" transform="translate(1322.87, 752.366)" >Copyright</text>
<text fill="#cccccc"  xml:space="preserve" font-size="20.6735" transform="translate(1442.14, 688.756)" >wulff</text>
<text fill="#cccccc"  xml:space="preserve" font-size="20.6735" transform="translate(1442.14, 720.561)" >2025-10-26  10:54:26</text>
<text fill="#cccccc"  xml:space="preserve" font-size="20.6735" transform="translate(1442.14, 752.366)" >wulff</text>
<text fill="#cccccc"  xml:space="preserve" font-size="20.6735" transform="translate(249.442, 784.171)" >LELO_EX</text>
<text fill="#cccccc"  xml:space="preserve" font-size="20.6735" transform="translate(1442.14, 656.95)" >wulff</text>
<text fill="#00ccee"  xml:space="preserve" font-size="27.289" transform="translate(140.43, 295.281)" >IBPS_5U</text>
<text fill="#00ccee"  xml:space="preserve" font-size="27.289" transform="translate(103.014, 517.918)" >VSS</text>
<text fill="#00ccee"  xml:space="preserve" font-size="27.289" transform="translate(1410.34, 263.476)" >IBNS_20U</text>
<text fill="#cccccc"  xml:space="preserve" font-size="13.231" transform="translate(445.398, 384.347)" >JNWATR_NCH_4C5F0</text>
<text fill="#cccccc"  xml:space="preserve" font-size="13.231" transform="translate(559.398, 455.909)" >xo1</text>
<text fill="#cccccc"  xml:space="preserve" font-size="13.231" transform="translate(933.257, 384.347)" >JNWATR_NCH_4C5F0</text>
<text fill="#cccccc"  xml:space="preserve" font-size="13.231" transform="translate(933.257, 455.909)" >xo0[1:0]</text>
<text fill="#cccccc"  xml:space="preserve" font-size="13.231" transform="translate(1139.99, 384.347)" >JNWATR_NCH_4C5F0</text>
<text fill="#cccccc"  xml:space="preserve" font-size="13.231" transform="translate(1139.99, 455.909)" >xo2[1:0]</text>
<path class="l1" d="M647.009 411.639L869.646 411.639"/>
<path class="l1" d="M519.787 411.639L583.398 411.639"/>
<path class="l1" d="M519.787 411.639L519.787 507.055"/>
<path class="l1" d="M519.787 507.055L583.398 507.055"/>
<path class="l1" d="M583.398 459.347L583.398 507.055"/>
<path class="l1" d="M933.257 459.347L933.257 507.055"/>
<path class="l1" d="M583.398 507.055L933.257 507.055"/>
<path class="l1" d="M583.398 284.418L583.398 363.931"/>
<path class="l1" d="M281.248 284.418L583.398 284.418"/>
<path class="l1" d="M583.398 284.418L694.717 284.418"/>
<path class="l1" d="M933.257 268.515L933.257 363.931"/>
<path class="l1" d="M933.257 252.612L933.257 268.515"/>
<path class="l1" d="M933.257 252.612L1155.89 252.612"/>
<path class="l1" d="M933.257 411.639L980.965 411.639"/>
<path class="l1" d="M980.965 411.639L980.965 507.055"/>
<path class="l1" d="M933.257 507.055L980.965 507.055"/>
<path class="l1" d="M1139.99 459.347L1139.99 507.055"/>
<path class="l1" d="M980.965 507.055L1139.99 507.055"/>
<path class="l1" d="M1139.99 411.639L1203.6 411.639"/>
<path class="l1" d="M1203.6 411.639L1203.6 507.055"/>
<path class="l1" d="M1139.99 507.055L1203.6 507.055"/>
<path class="l1" d="M1139.99 252.612L1139.99 363.931"/>
<path class="l1" d="M694.717 284.418L1076.38 284.418"/>
<path class="l1" d="M694.717 284.418L694.717 411.639"/>
<path class="l1" d="M1076.38 284.418L1076.38 411.639"/>
<path class="l1" d="M1155.89 252.612L1378.53 252.612"/>
<path class="l1" d="M185.832 507.055L519.787 507.055"/>
<circle class="l1" cx="519.787" cy="507.055" r="5.88398"/>
<circle class="l1" cx="583.398" cy="284.418" r="5.88398"/>
<circle class="l1" cx="694.717" cy="284.418" r="5.88398"/>
<circle class="l1" cx="583.398" cy="284.418" r="5.88398"/>
<circle class="l1" cx="583.398" cy="284.418" r="5.88398"/>
<circle class="l1" cx="583.398" cy="507.055" r="5.88398"/>
<circle class="l1" cx="933.257" cy="507.055" r="5.88398"/>
<circle class="l1" cx="583.398" cy="507.055" r="5.88398"/>
<circle class="l1" cx="519.787" cy="507.055" r="5.88398"/>
<circle class="l1" cx="583.398" cy="507.055" r="5.88398"/>
<circle class="l1" cx="519.787" cy="507.055" r="5.88398"/>
<circle class="l1" cx="694.717" cy="284.418" r="5.88398"/>
<circle class="l1" cx="694.717" cy="411.639" r="5.88398"/>
<circle class="l1" cx="694.717" cy="284.418" r="5.88398"/>
<circle class="l1" cx="1139.99" cy="252.612" r="5.88398"/>
<circle class="l1" cx="1139.99" cy="507.055" r="5.88398"/>
<circle class="l1" cx="980.965" cy="507.055" r="5.88398"/>
<circle class="l1" cx="1139.99" cy="507.055" r="5.88398"/>
<circle class="l1" cx="1139.99" cy="507.055" r="5.88398"/>
<circle class="l1" cx="933.257" cy="507.055" r="5.88398"/>
<circle class="l1" cx="980.965" cy="507.055" r="5.88398"/>
<circle class="l1" cx="980.965" cy="507.055" r="5.88398"/>
<circle class="l1" cx="933.257" cy="507.055" r="5.88398"/>
</svg>
