<?xml version="1.0" encoding="UTF-8"?>
<svg xmlns="http://www.w3.org/2000/svg" xmlns:xlink="http://www.w3.org/1999/xlink" width="233.116pt" height="97.707pt" viewBox="0 0 233.116 97.707">
<defs>
<g>
<g id="glyph-0-0">
<path d="M 7.0625 -3.53125 L 4.53125 -3.53125 L 4.53125 -3.34375 C 4.953125 -3.3125 5.078125 -3.296875 5.1875 -3.203125 C 5.34375 -3.125 5.40625 -2.890625 5.40625 -2.46875 L 5.40625 -0.84375 C 5.40625 -0.53125 4.796875 -0.265625 4.078125 -0.265625 C 2.453125 -0.265625 1.453125 -1.390625 1.453125 -3.25 C 1.453125 -4.1875 1.734375 -5.09375 2.171875 -5.578125 C 2.609375 -6.078125 3.234375 -6.34375 3.90625 -6.34375 C 4.46875 -6.34375 4.953125 -6.15625 5.34375 -5.796875 C 5.640625 -5.515625 5.796875 -5.25 6.046875 -4.640625 L 6.28125 -4.640625 L 6.203125 -6.734375 L 5.984375 -6.734375 C 5.921875 -6.546875 5.734375 -6.40625 5.53125 -6.40625 C 5.4375 -6.40625 5.28125 -6.4375 5.09375 -6.515625 C 4.640625 -6.65625 4.1875 -6.734375 3.734375 -6.734375 C 1.75 -6.734375 0.3125 -5.28125 0.3125 -3.234375 C 0.3125 -2.265625 0.59375 -1.515625 1.140625 -0.921875 C 1.8125 -0.234375 2.765625 0.140625 3.875 0.140625 C 4.71875 0.140625 5.96875 -0.203125 6.375 -0.5625 L 6.375 -2.578125 C 6.375 -3.171875 6.484375 -3.296875 7.0625 -3.34375 Z M 7.0625 -3.53125 "/>
</g>
<g id="glyph-0-1">
<path d="M 7.03125 -0.1875 C 6.59375 -0.21875 6.484375 -0.3125 6.140625 -1.0625 L 3.65625 -6.71875 L 3.453125 -6.71875 L 1.390625 -1.828125 C 0.75 -0.375 0.625 -0.203125 0.15625 -0.1875 L 0.15625 0 L 2.125 0 L 2.125 -0.1875 C 1.640625 -0.1875 1.453125 -0.3125 1.453125 -0.59375 C 1.453125 -0.71875 1.46875 -0.859375 1.53125 -0.984375 L 1.984375 -2.15625 L 4.59375 -2.15625 L 5 -1.203125 C 5.125 -0.921875 5.1875 -0.671875 5.1875 -0.53125 C 5.1875 -0.28125 5.03125 -0.203125 4.5 -0.1875 L 4.5 0 L 7.03125 0 Z M 2.15625 -2.5625 L 3.296875 -5.296875 L 4.453125 -2.5625 Z M 2.15625 -2.5625 "/>
</g>
<g id="glyph-0-2">
<path d="M 2.53125 -6.1875 L 2.53125 -1.203125 C 2.53125 -0.34375 2.421875 -0.234375 1.59375 -0.1875 L 1.59375 0 L 4.5 0 L 4.5 -0.1875 C 3.6875 -0.234375 3.546875 -0.359375 3.546875 -1.09375 L 3.546875 -6.1875 L 4.09375 -6.1875 C 5.21875 -6.1875 5.4375 -6 5.671875 -4.90625 L 5.90625 -4.90625 L 5.859375 -6.59375 L 0.234375 -6.59375 L 0.171875 -4.90625 L 0.40625 -4.90625 C 0.640625 -5.984375 0.875 -6.1875 2 -6.1875 Z M 2.53125 -6.1875 "/>
</g>
<g id="glyph-0-3">
<path d="M 5.953125 -1.6875 L 5.671875 -1.6875 C 5.171875 -0.609375 4.75 -0.375 3.3125 -0.375 L 3.046875 -0.375 C 2.5625 -0.375 2.140625 -0.421875 2.078125 -0.484375 C 2.03125 -0.515625 2 -0.625 2 -0.796875 L 2 -3.265625 L 3.53125 -3.265625 C 4.359375 -3.265625 4.5 -3.125 4.640625 -2.296875 L 4.859375 -2.296875 L 4.859375 -4.609375 L 4.640625 -4.609375 C 4.5625 -4.203125 4.53125 -4.0625 4.421875 -3.921875 C 4.28125 -3.75 4 -3.671875 3.53125 -3.671875 L 2 -3.671875 L 2 -5.875 C 2 -6.15625 2.0625 -6.21875 2.328125 -6.21875 L 3.671875 -6.21875 C 4.8125 -6.21875 5.03125 -6.078125 5.1875 -5.171875 L 5.4375 -5.171875 L 5.40625 -6.59375 L 0.125 -6.59375 L 0.125 -6.40625 C 0.859375 -6.34375 0.984375 -6.203125 0.984375 -5.515625 L 0.984375 -1.09375 C 0.984375 -0.390625 0.84375 -0.234375 0.125 -0.1875 L 0.125 0 L 5.5 0 Z M 5.953125 -1.6875 "/>
</g>
<g id="glyph-0-4">
<path d="M 4.453125 -6.734375 L 4.25 -6.734375 C 4.203125 -6.515625 4.09375 -6.40625 3.921875 -6.40625 C 3.828125 -6.40625 3.65625 -6.4375 3.484375 -6.515625 C 3.125 -6.65625 2.75 -6.734375 2.4375 -6.734375 C 2 -6.734375 1.5625 -6.5625 1.234375 -6.28125 C 0.890625 -5.96875 0.703125 -5.546875 0.703125 -5.03125 C 0.703125 -4.234375 1.140625 -3.671875 2.265625 -3.09375 C 2.984375 -2.71875 3.5 -2.296875 3.75 -1.921875 C 3.84375 -1.796875 3.890625 -1.578125 3.890625 -1.34375 C 3.890625 -0.671875 3.390625 -0.21875 2.65625 -0.21875 C 1.78125 -0.21875 1.140625 -0.765625 0.640625 -1.984375 L 0.421875 -1.984375 L 0.71875 0.125 L 0.9375 0.125 C 0.953125 -0.0625 1.0625 -0.203125 1.21875 -0.203125 C 1.328125 -0.203125 1.5 -0.15625 1.6875 -0.09375 C 2.0625 0.0625 2.46875 0.140625 2.859375 0.140625 C 4 0.140625 4.890625 -0.640625 4.890625 -1.671875 C 4.890625 -2.5 4.34375 -3.140625 3.03125 -3.84375 C 1.984375 -4.421875 1.5625 -4.859375 1.5625 -5.40625 C 1.5625 -5.953125 1.984375 -6.328125 2.609375 -6.328125 C 3.046875 -6.328125 3.46875 -6.140625 3.8125 -5.78125 C 4.125 -5.46875 4.265625 -5.203125 4.421875 -4.609375 L 4.671875 -4.609375 Z M 4.453125 -6.734375 "/>
</g>
<g id="glyph-0-5">
<path d="M 1.03125 -1.09375 C 1.03125 -0.375 0.921875 -0.234375 0.15625 -0.1875 L 0.15625 0 L 2.984375 0 C 4.140625 0 5.1875 -0.328125 5.8125 -0.890625 C 6.453125 -1.46875 6.828125 -2.359375 6.828125 -3.328125 C 6.828125 -4.234375 6.53125 -5 5.984375 -5.546875 C 5.296875 -6.234375 4.21875 -6.59375 2.84375 -6.59375 L 0.15625 -6.59375 L 0.15625 -6.40625 C 0.953125 -6.34375 1.03125 -6.25 1.03125 -5.515625 Z M 2.046875 -5.84375 C 2.046875 -6.15625 2.15625 -6.234375 2.578125 -6.234375 C 3.421875 -6.234375 4.078125 -6.078125 4.5625 -5.734375 C 5.328125 -5.1875 5.734375 -4.34375 5.734375 -3.265625 C 5.734375 -2.078125 5.328125 -1.25 4.53125 -0.78125 C 4.015625 -0.484375 3.4375 -0.375 2.578125 -0.375 C 2.171875 -0.375 2.046875 -0.453125 2.046875 -0.78125 Z M 2.046875 -5.84375 "/>
</g>
</g>
<clipPath id="clip-0">
<path clip-rule="nonzero" d="M 2 53 L 83 53 L 83 97.707031 L 2 97.707031 Z M 2 53 "/>
</clipPath>
<clipPath id="clip-1">
<path clip-rule="nonzero" d="M 153 53 L 233.117188 53 L 233.117188 97.707031 L 153 97.707031 Z M 153 53 "/>
</clipPath>
</defs>
<g clip-path="url(#clip-0)">
<path fill-rule="nonzero" fill="rgb(73.527527%, 77.056885%, 95.881653%)" fill-opacity="1" d="M 2.492188 89.738281 L 2.492188 61.796875 C 2.492188 57.394531 6.058594 53.828125 10.460938 53.828125 L 74.628906 53.828125 C 79.03125 53.828125 82.597656 57.394531 82.597656 61.796875 L 82.597656 89.738281 C 82.597656 94.140625 79.03125 97.707031 74.628906 97.707031 L 10.460938 97.707031 C 6.058594 97.707031 2.492188 94.140625 2.492188 89.738281 Z M 2.492188 89.738281 "/>
</g>
<path fill-rule="nonzero" fill="rgb(11.764526%, 23.527527%, 86.274719%)" fill-opacity="1" d="M 5.550781 88.667969 L 5.550781 62.355469 C 5.550781 59.054688 8.226562 56.378906 11.53125 56.378906 L 73.558594 56.378906 C 76.859375 56.378906 79.535156 59.054688 79.535156 62.355469 L 79.535156 88.667969 C 79.535156 91.96875 76.859375 94.644531 73.558594 94.644531 L 11.53125 94.644531 C 8.226562 94.644531 5.550781 91.96875 5.550781 88.667969 Z M 5.550781 88.667969 "/>
<g clip-path="url(#clip-1)">
<path fill-rule="nonzero" fill="rgb(73.527527%, 77.056885%, 95.881653%)" fill-opacity="1" d="M 153.011719 89.738281 L 153.011719 61.796875 C 153.011719 57.394531 156.578125 53.828125 160.980469 53.828125 L 225.148438 53.828125 C 229.550781 53.828125 233.117188 57.394531 233.117188 61.796875 L 233.117188 89.738281 C 233.117188 94.140625 229.550781 97.707031 225.148438 97.707031 L 160.980469 97.707031 C 156.578125 97.707031 153.011719 94.140625 153.011719 89.738281 Z M 153.011719 89.738281 "/>
</g>
<path fill-rule="nonzero" fill="rgb(11.764526%, 23.527527%, 86.274719%)" fill-opacity="1" d="M 156.074219 88.667969 L 156.074219 62.355469 C 156.074219 59.054688 158.75 56.378906 162.050781 56.378906 L 224.078125 56.378906 C 227.382812 56.378906 230.058594 59.054688 230.058594 62.355469 L 230.058594 88.667969 C 230.058594 91.96875 227.382812 94.644531 224.078125 94.644531 L 162.050781 94.644531 C 158.75 94.644531 156.074219 91.96875 156.074219 88.667969 Z M 156.074219 88.667969 "/>
<path fill="none" stroke-width="1.59404" stroke-linecap="butt" stroke-linejoin="miter" stroke="rgb(0%, 0%, 0%)" stroke-opacity="1" stroke-miterlimit="10" d="M 66.330813 13.022531 L 66.330813 16.823313 C 66.330813 22.327219 70.79175 26.788156 76.295656 26.788156 L 148.209719 26.788156 C 153.713625 26.788156 158.174563 22.327219 158.174563 16.823313 L 158.174563 13.022531 C 158.174563 7.522531 153.713625 3.061594 148.209719 3.061594 L 76.295656 3.061594 C 70.79175 3.061594 66.330813 7.522531 66.330813 13.022531 Z M 66.330813 13.022531 " transform="matrix(1, 0, 0, -1, 5.552, 56.378)"/>
<g fill="rgb(0%, 0%, 0%)" fill-opacity="1">
<use xlink:href="#glyph-0-0" x="105.076" y="44.909"/>
<use xlink:href="#glyph-0-1" x="112.268997" y="44.909"/>
</g>
<g fill="rgb(0%, 0%, 0%)" fill-opacity="1">
<use xlink:href="#glyph-0-2" x="118.356146" y="44.909"/>
<use xlink:href="#glyph-0-3" x="124.443294" y="44.909"/>
</g>
<path fill="none" stroke-width="0.79701" stroke-linecap="butt" stroke-linejoin="miter" stroke="rgb(0%, 0%, 0%)" stroke-opacity="1" stroke-miterlimit="10" d="M 33.16675 -0.00090625 L 33.16675 8.928781 " transform="matrix(1, 0, 0, -1, 5.552, 56.378)"/>
<path fill="none" stroke-width="0.79701" stroke-linecap="butt" stroke-linejoin="miter" stroke="rgb(0%, 0%, 0%)" stroke-opacity="1" stroke-miterlimit="10" d="M 35.459719 11.225656 C 35.459719 12.495188 34.432375 13.522531 33.16675 13.522531 C 31.897219 13.522531 30.869875 12.495188 30.869875 11.225656 C 30.869875 9.956125 31.897219 8.928781 33.16675 8.928781 C 34.432375 8.928781 35.459719 9.956125 35.459719 11.225656 Z M 35.459719 11.225656 " transform="matrix(1, 0, 0, -1, 5.552, 56.378)"/>
<g fill="rgb(0%, 0%, 0%)" fill-opacity="1">
<use xlink:href="#glyph-0-4" x="35.948" y="36.902"/>
</g>
<path fill="none" stroke-width="0.79701" stroke-linecap="butt" stroke-linejoin="miter" stroke="rgb(0%, 0%, 0%)" stroke-opacity="1" stroke-miterlimit="10" d="M 112.252688 26.788156 L 112.252688 35.717844 " transform="matrix(1, 0, 0, -1, 5.552, 56.378)"/>
<path fill="none" stroke-width="0.79701" stroke-linecap="butt" stroke-linejoin="miter" stroke="rgb(0%, 0%, 0%)" stroke-opacity="1" stroke-miterlimit="10" d="M 114.549563 38.014719 C 114.549563 39.280344 113.522219 40.307688 112.252688 40.307688 C 110.983156 40.307688 109.955813 39.280344 109.955813 38.014719 C 109.955813 36.745188 110.983156 35.717844 112.252688 35.717844 C 113.522219 35.717844 114.549563 36.745188 114.549563 38.014719 Z M 114.549563 38.014719 " transform="matrix(1, 0, 0, -1, 5.552, 56.378)"/>
<g fill="rgb(0%, 0%, 0%)" fill-opacity="1">
<use xlink:href="#glyph-0-0" x="114.206" y="10.115"/>
</g>
<path fill="none" stroke-width="0.79701" stroke-linecap="butt" stroke-linejoin="miter" stroke="rgb(0%, 0%, 0%)" stroke-opacity="1" stroke-miterlimit="10" d="M 188.787844 -0.00090625 L 188.787844 8.928781 " transform="matrix(1, 0, 0, -1, 5.552, 56.378)"/>
<path fill="none" stroke-width="0.79701" stroke-linecap="butt" stroke-linejoin="miter" stroke="rgb(0%, 0%, 0%)" stroke-opacity="1" stroke-miterlimit="10" d="M 191.084719 11.225656 C 191.084719 12.495188 190.057375 13.522531 188.787844 13.522531 C 187.518313 13.522531 186.490969 12.495188 186.490969 11.225656 C 186.490969 9.956125 187.518313 8.928781 188.787844 8.928781 C 190.057375 8.928781 191.084719 9.956125 191.084719 11.225656 Z M 191.084719 11.225656 " transform="matrix(1, 0, 0, -1, 5.552, 56.378)"/>
<g fill="rgb(0%, 0%, 0%)" fill-opacity="1">
<use xlink:href="#glyph-0-5" x="190.741" y="37.041"/>
</g>
<path fill-rule="nonzero" fill="rgb(69.117737%, 73.234558%, 95.196533%)" fill-opacity="1" d="M 79.535156 60.484375 L 79.535156 56.355469 C 79.535156 55.804688 79.984375 55.359375 80.53125 55.359375 L 155.074219 55.359375 C 155.625 55.359375 156.074219 55.804688 156.074219 56.355469 L 156.074219 60.484375 C 156.074219 61.035156 155.625 61.480469 155.074219 61.480469 L 80.53125 61.480469 C 79.984375 61.480469 79.535156 61.035156 79.535156 60.484375 Z M 79.535156 60.484375 "/>
<path fill-rule="nonzero" fill="rgb(11.764526%, 23.527527%, 86.274719%)" fill-opacity="1" d="M 79.535156 58.953125 L 79.535156 57.882812 C 79.535156 57.335938 79.984375 56.886719 80.53125 56.886719 L 155.074219 56.886719 C 155.625 56.886719 156.074219 57.335938 156.074219 57.882812 L 156.074219 58.953125 C 156.074219 59.503906 155.625 59.949219 155.074219 59.949219 L 80.53125 59.949219 C 79.984375 59.949219 79.535156 59.503906 79.535156 58.953125 Z M 79.535156 58.953125 "/>
</svg>
